<?xml version="1.0" encoding="iso-8859-1"?>
<!-- Generator: Adobe Illustrator 16.0.0, SVG Export Plug-In . SVG Version: 6.00 Build 0)  -->
<!DOCTYPE svg PUBLIC "-//W3C//DTD SVG 1.1//EN" "http://www.w3.org/Graphics/SVG/1.1/DTD/svg11.dtd">
<svg version="1.1" id="Layer_1" xmlns="http://www.w3.org/2000/svg" xmlns:xlink="http://www.w3.org/1999/xlink" x="0px" y="0px"
	 width="37.465px" height="44.508px" viewBox="0 0 37.465 44.508" style="enable-background:new 0 0 37.465 44.508;"
	 xml:space="preserve">
<g>
	<polygon points="28.81,42.508 2,42.508 2,4.75 7.517,4.75 7.517,8.625 24.586,8.625 24.586,4.75 28.81,4.75 28.81,20.785 
		30.81,18.823 30.81,2.75 24.586,2.75 24.586,0 19.397,0 19.397,2 12.814,2 12.814,0 7.517,0 7.517,2.75 0,2.75 0,44.508 
		30.81,44.508 30.81,31.25 28.81,33.715 	"/>
	<rect x="5.772" y="13.875" width="20.558" height="1.5"/>
	<rect x="5.772" y="17.5" width="20.558" height="1.5"/>
	<rect x="5.772" y="21.269" width="20.558" height="1.5"/>
	<path d="M37.465,21.33l-3.221-3.08l-1.464,1.53l-0.721-0.689L19.085,32.654l-0.104,0.438l-1.433,5.981l5.912-1.697l0.432-0.124
		l12.974-13.563L36,22.861L37.465,21.33z M34.191,22.604L22.42,34.909l-0.93-0.889l11.771-12.306L34.191,22.604z M32.092,20.596
		l0.785,0.751L21.106,33.652l-0.785-0.751L32.092,20.596z M20.004,37.261l-0.755-0.722l0.622-2.596l2.699,2.581L20.004,37.261z
		 M23.59,36.027l-0.785-0.751l11.771-12.305l0.785,0.751L23.59,36.027z"/>
</g>
<g>
</g>
<g>
</g>
<g>
</g>
<g>
</g>
<g>
</g>
<g>
</g>
<g>
</g>
<g>
</g>
<g>
</g>
<g>
</g>
<g>
</g>
<g>
</g>
<g>
</g>
<g>
</g>
<g>
</g>
</svg>
