<?xml version="1.0" standalone="no"?>
<!DOCTYPE svg PUBLIC "-//W3C//DTD SVG 1.1//EN" "http://www.w3.org/Graphics/SVG/1.1/DTD/svg11.dtd" >
<svg xmlns="http://www.w3.org/2000/svg">
<metadata></metadata>
<defs>
<font id="post_noteregular" horiz-adv-x="796" >
<font-face units-per-em="2048" ascent="1536" descent="-512" />
<missing-glyph horiz-adv-x="430" />
<glyph horiz-adv-x="0" />
<glyph unicode="&#xd;" horiz-adv-x="430" />
<glyph unicode=" "  horiz-adv-x="430" />
<glyph unicode="&#x09;" horiz-adv-x="430" />
<glyph unicode="&#xa0;" horiz-adv-x="430" />
<glyph unicode="!" horiz-adv-x="425" d="M156 8q0 18 14 34.5t27 29.5q25 20 51 20q10 0 21.5 -6t11.5 -16q0 -16 -11 -27q0 -2 -8 -10t-12 -13q-2 -2 -4 -3t-4 -3t-9.5 -6t-9.5 -6q-8 -6 -19 -11t-24 -5q-24 -1 -24 22zM223 248q0 10 4 20.5t9 20.5q4 8 13 28.5t11 22.5l311 569q2 4 9.5 18.5t16.5 33t18.5 36 t13.5 27.5q0 2 4 12.5t9 22.5t9 22.5t4 12.5q4 8 11.5 10t17.5 2h8q2 0 3 -1t3 -1q2 -2 5.5 -5t5.5 -3q6 -6 6 -25v-6l-8 -16q0 -4 -5 -9q-2 -4 -9 -15t-11 -15l-96 -162q-2 -4 -13.5 -24.5t-15.5 -30.5q-10 -25 -18.5 -51.5t-22.5 -49.5l-59 -104q-2 0 -6.5 -8.5 t-6.5 -12.5t-11 -25.5t-11 -25.5t-8 -17.5t-8 -17.5q-8 -12 -16.5 -21t-16.5 -24q0 -2 -1 -2t-1 -2v-2q0 -2 -4.5 -11t-8.5 -18.5t-8 -18.5t-4 -11q-2 -4 -6 -14.5t-8 -14.5t-5 -7t-5 -7l-5 -2q-2 0 -4 -7q-2 -2 -4 -8t-4 -10q0 -2 -2 -4q0 -2 -1 -10t-1 -13l-4 -6 q0 -2 -1 -3t-1 -5q-2 -4 -2 -6q-4 -16 -20.5 -19.5t-28.5 -3.5q-21 1 -21 17z" />
<glyph unicode="&#x22;" horiz-adv-x="598" d="M242 348v4l61 199q0 4 7 21.5t15.5 39t16.5 43t14 31.5q0 2 6.5 15.5t13.5 28.5t14 30.5t11 25.5q2 4 7.5 13.5t5.5 13.5q8 8 20 16.5t23 8.5q31 0 30 -25v-6l-47 -100l-110 -285q-2 -2 -2 -4q-2 -2 -2 -4v-2q0 -2 -1 -2t-1 -2l-2 -2v-52q0 -8 -3 -10q-16 -16 -34 -25 h-13q-10 0 -17 2.5t-11 14.5q-2 4 -2 12zM475 420v2q2 6 5 22.5t3 20.5q4 10 9.5 29.5t7.5 23.5l49 135q4 10 11 37t9 35q8 27 19.5 50.5t29.5 41.5q6 8 17 8q10 0 15 -5t14 -11v-4q0 -2 2 -2v-10q0 -12 -7 -25l-84 -244q-2 -6 -6 -23.5t-6 -25.5q-4 -4 -9 -28.5t-7 -34.5 q-4 -10 -5 -16.5t-10 -14.5q-2 -2 -6 -2h-2l-14 7l-14 7q-20 10 -21 27z" />
<glyph unicode="#" horiz-adv-x="755" d="M211 125v8q0 16 12 39q10 16 21.5 32.5t21.5 33.5q4 8 7 13t8 13q2 2 7 11.5t7 9.5q2 4 2 10q-2 0 -2 2l-2 2h-10q-10 0 -19.5 -2t-19.5 -2q-27 0 -27 24v9q4 10 13.5 12t13.5 4q8 0 34.5 5t32.5 7q2 0 7.5 3t7.5 3q2 2 5 3.5t3 3.5q37 33 51 82q0 2 1 3t1 3t2 4l-8 8 h-107q-2 0 -6 1t-6 1h-8q-4 0 -6 2q-4 0 -7 2t-8 4q-14 6 -14 17q0 18 12.5 19t24.5 1q29 0 58.5 -2t60.5 -2h26q6 0 9.5 7t7.5 11q0 2 3 5.5t3 5.5l100 209l4 4h4q4 0 9 2q6 2 10 4h2q23 -8 22 -27v-4q-2 -2 -2 -4q-2 -2 -2 -4q-4 -8 -15 -29.5t-23.5 -46t-23.5 -46 t-15 -30.5q-2 -2 -7.5 -13l-7.5 -15q0 -2 -2 -5.5t-2 -5.5q-2 -4 -2 -8t12 -8q14 -2 27.5 -2h30.5h32q4 0 8.5 1t6.5 1q12 0 14 4q2 2 4 8t4 9q2 6 8.5 21t14.5 32.5t14 32t8 20.5q2 4 6.5 14.5t8.5 16.5q2 2 4 6q4 8 6 10q4 10 15.5 25.5t25.5 15.5q6 0 17.5 -4t11.5 -14 t-4 -19q-4 -4 -9.5 -15l-7.5 -15q-2 -2 -9 -13.5t-14.5 -25t-14.5 -25.5t-9 -14q-6 -10 -12 -23.5t-6 -28.5v-6q2 -2 12 -8h29q27 0 52 2t52 2h10q4 0 14.5 -5t10.5 -11v-4q0 -12 -7.5 -24.5t-17.5 -12.5q-16 0 -30.5 4t-30.5 4h-109l-6 -2q-10 -8 -13 -22.5t-7 -26.5 q-2 -2 -2 -8v-2q10 -23 32 -23h50q35 0 34 -37q0 -25 -22 -24h-8q-25 6 -48.5 10t-46.5 4h-18q-4 -10 -8 -17.5t-6 -17.5q-2 -2 -7.5 -12t-10.5 -21.5t-9 -21.5t-4 -12q-2 -4 -12.5 -23.5t-14.5 -28.5q0 -4 -2 -6q-2 -4 -6 -8q-4 -10 -14 -20.5t-23 -10.5q-12 0 -19 11.5 t-7 23.5q0 4 4 17q2 6 10 18t17.5 26.5t16.5 27t11 18.5q8 14 14 26q4 8 9 19v14h-7h-6q-29 0 -56.5 -3t-55.5 -11q-4 -2 -9 -2q-4 -2 -14 -2q-29 -8 -41 -35q-23 -41 -42 -81t-32 -83q-16 -18 -32 -18q-18 0 -27 14zM410 381l4 -2h6h12q4 0 26.5 3t26.5 3h23.5t26.5 4 q25 8 40 23.5t15 42.5v6q-2 4 -8 4q-2 0 -10.5 1t-16.5 2t-15.5 2t-9.5 1h-22h-27q-72 -8 -71 -82v-8z" />
<glyph unicode="$" horiz-adv-x="835" d="M78 199v10q10 18 28 18q4 -2 10.5 -5t10.5 -7l37 -37q10 -10 24.5 -19t26.5 -18q37 -25 78 -39t88 -14h14q6 0 9.5 7l5.5 11l125 406v2q0 6 -6.5 8t-10.5 4q-6 2 -23.5 6.5t-36 9.5t-34.5 9t-23 6q-14 4 -27.5 10t-25.5 13q-12 6 -21.5 15t-9.5 26q0 16 4.5 26t14.5 21 q29 41 84 62.5t100 31.5q10 2 40 7t40 9q14 6 21 21q2 4 6 19.5t6 19.5q0 4 5 17t5 15l37 205q6 27 31 27h8q2 0 14 -4q14 -10 15 -27q0 -6 -3 -10q-4 -10 -14 -42t-14 -42q0 -4 -4 -16.5t-9.5 -29l-10.5 -31.5t-7 -23q-6 -23 -10 -42.5t-4 -39.5v-9h2q8 -2 33.5 -7t31.5 -7 q27 -4 54.5 -15.5t40.5 -39.5q4 -4 3 -9.5t-1 -9.5v-10q0 -6 -7.5 -10t-11.5 -4h-2l-4 4q-31 16 -65.5 31.5t-71.5 15.5q-8 0 -16.5 -5t-10.5 -15v-17q0 -4 -2 -13t-4 -13q-4 -8 -11 -31t-7 -29q-2 -2 -5.5 -17.5t-7.5 -23.5l-2 -6q0 -6 8 -6q6 -4 19.5 -14.5t29 -21.5 t29 -20.5t19.5 -13.5q45 -33 68.5 -72.5t23.5 -93.5q0 -37 -16.5 -69.5t-41 -62t-55 -53.5t-59.5 -40q-14 -8 -31.5 -16.5t-34.5 -12.5l-112 -26q-10 -4 -13.5 -10.5t-5.5 -12.5q0 -2 -3 -12t-5 -14q0 -2 -1 -3t-1 -4q0 -2 -2 -12t-4 -21.5t-5 -20.5t-3 -11 q-4 -20 -14.5 -44t-35.5 -24q-14 0 -22 6q-8 9 -8 23q0 33 12 57q4 10 17.5 40t17.5 40q2 4 2 10v8.5t-4 4.5q-6 0 -27.5 3t-30.5 3q-2 0 -6 1t-4 3q-6 4 -19.5 7t-15.5 3l-120 49q-8 4 -16.5 5.5t-16.5 5.5q-2 0 -7 2t-8 6q-16 12 -22 34.5t-6 43.5zM385 633q0 -6 10 -10 l8 -5q2 -2 7 -2q4 -2 10 -4t6 -4q6 -2 24.5 -7t22.5 -7q2 0 12.5 -3t22.5 -6t23.5 -6.5t15.5 -5.5h2q8 0 8 5q2 4 6 13t4 13l6.5 19.5t8.5 30t8 29.5t6 19v5q0 12 -12 12t-24.5 -3t-22.5 -7q-8 -4 -22.5 -8.5t-18.5 -6.5q-6 -2 -26.5 -10t-29.5 -12q-16 -8 -29.5 -16.5 t-25.5 -20.5v-2zM467 96q43 0 93 17.5t93 47t72 70.5t29 91q0 27 -11.5 51t-27.5 43q-29 27 -55.5 46.5t-63.5 29.5q-8 -4 -12 -17q-2 -4 -6.5 -20.5t-6.5 -20.5q0 -2 -3 -11t-7 -19.5t-7 -20.5t-3 -12l-2 -9q-2 -6 -7 -10t-10 -12q-2 -4 -5 -16.5t-5 -14.5l-51 -194 q0 -2 -2 -7.5t-2 -7.5v-4z" />
<glyph unicode="%" horiz-adv-x="1232" d="M281 563q0 16 6 29q2 10 8 30.5t8 24.5t4 11.5t2 9.5q43 98 111 186q4 4 19.5 23.5t23.5 27.5q2 4 6 9.5t6 7.5q4 4 14.5 14t21.5 20.5t20.5 19.5t11.5 13q4 0 13 9.5t13 13.5q49 41 113 41h6q8 -6 16.5 -12.5t18.5 -10.5q4 -4 24.5 -16.5t24.5 -14.5l2 -2q0 -2 2 -2 q23 -20 28 -43.5t5 -52.5q0 -23 -2 -40t-10 -38q-10 -29 -26.5 -54.5t-37.5 -49.5q-16 -20 -32.5 -37.5t-34.5 -36.5q-2 -2 -16.5 -15.5t-20.5 -17.5q-4 -2 -9.5 -6t-7.5 -6q-51 -35 -115.5 -68.5t-129.5 -33.5q-23 0 -46.5 11t-33.5 32q-6 8 -6 24zM305 -133q0 8 2 13t4 9 t3 8.5t5 8.5q2 6 7 10l88 137l485 703q2 2 9 10t14.5 18.5t14.5 19.5t11 13q6 8 22.5 27.5t35 41t35 41t24.5 25.5q0 2 6 7.5t8 7.5q4 4 16.5 12t18.5 8h2q8 -2 12.5 -6t8.5 -8q6 -10 6 -21v-6q-2 -6 -6 -10t-9 -8q-2 -2 -4 -3t-6 -5t-8 -7q-4 -4 -17.5 -14t-17.5 -14l-6 -6 q-2 -2 -4 -2t-2 -3q-6 -6 -14.5 -16t-16.5 -20.5t-15 -17.5t-7 -9l-428 -592q-2 -2 -13.5 -19.5t-27 -41t-31.5 -48t-25 -38.5q-4 -6 -11 -20.5t-11 -18.5q-10 -23 -20.5 -43.5t-22.5 -40.5q-8 -10 -17.5 -19.5t-17.5 -19.5q0 -2 -1 -4t-1 -4q-2 -2 -4 -18.5t-4 -18.5 q-2 -10 -8.5 -21.5t-18.5 -11.5q-16 0 -29.5 9.5t-13.5 25.5zM334 584q0 -20 12 -23.5t31 -3.5q29 0 54.5 7t47.5 18q25 10 45.5 21t42.5 28q27 20 57.5 45.5t58.5 56.5t48.5 64.5t28.5 70.5v4q0 2 1 2t1 3v18q0 6 1 11t-3 14q-4 16 -16.5 33.5t-34.5 17.5q-25 0 -47 -17 q-2 0 -5 -2l-4 -4v-4q0 -8 4.5 -14t4.5 -15q0 -10 -5.5 -17t-17.5 -7h-2q-4 0 -10 2t-9 4l-2 2q-2 0 -2 2q-2 2 -2 4q-10 14 -10 28.5v31.5q-10 0 -10 -2q-4 -6 -16.5 -17.5t-26.5 -25t-26.5 -25.5t-16.5 -16q-2 -2 -6 -7.5t-6 -7.5q-41 -53 -77 -105t-65 -112 q-6 -16 -12 -31.5t-6 -31.5zM662 -6q0 31 10 59.5t26 55.5q4 8 12.5 23t17.5 31.5t17.5 30t10.5 17.5q4 6 20.5 29.5t22.5 33.5q4 4 18 26t21 30q4 2 16 17t18 24l17 16q31 33 78 70t98 37q4 0 15.5 -2.5t15.5 -6.5q4 0 9 -6t7 -8l6 -6t6 -8l6 -6q12 -10 26.5 -16.5 t29 -13.5t26 -17.5t15.5 -28.5v-10q0 -4 2 -9v-49l-2 -8q-6 -35 -22.5 -64.5t-39.5 -56.5q-31 -49 -71.5 -89t-83.5 -77q-59 -53 -123 -86q-29 -14 -59.5 -26.5t-65.5 -12.5q-47 0 -73.5 30t-26.5 77zM725 -16v-11.5t6 -13.5q18 -12 41 -12q41 0 79 21.5t71 43.5q4 2 12 8.5 t12 8.5q8 8 26.5 23.5t22.5 17.5q6 6 20.5 18t30 26.5t30 27t18.5 18.5q2 4 7 11t5 11q6 6 6 8q23 31 46.5 63t23.5 73q0 29 -22.5 45t-47.5 24q-8 -14 -22 -14q-10 0 -12.5 6t-6.5 14q-8 4 -16 4.5t-15 0.5q-8 0 -10 -5q-10 -8 -18 -17t-23 -9h-18q-20 0 -31 -15l-31 -30 q-4 -2 -15 -16.5t-15 -18.5t-13.5 -18.5t-11.5 -18.5q-4 -6 -13.5 -18.5t-18.5 -26.5t-17 -27.5t-10 -17.5q0 -2 -13.5 -25.5t-21.5 -33.5q0 -2 -2 -6.5t-4 -4.5q0 -2 -2 -7t-2 -7q-25 -47 -25 -100z" />
<glyph unicode="&#x26;" horiz-adv-x="970" d="M184 162v12v31v24q2 45 22.5 86t57.5 70q45 33 103 55q4 2 21.5 9.5t21.5 11.5q14 6 26 18q8 4 20.5 5t16.5 8v6q0 12 -5 25.5t-9 23.5q-16 35 -34.5 69.5t-18.5 75.5q0 59 47 99t104 40q35 0 59.5 -12t47.5 -37q12 -12 20 -32q6 -12 8 -26.5t2 -31.5q0 -33 -8 -64.5 t-29 -60.5q-2 -4 -4 -6q-2 -4 -4 -5t-2 -3q-4 -4 -8 -10t-6 -6q-4 -4 -16.5 -17.5t-16.5 -17.5q-4 -2 -13 -11.5t-12 -11.5q-2 -2 -3 -2t-3 -2l-4 -4v-4v-2l133 -166q2 -4 11.5 -13.5l13.5 -13.5q0 -4 6 -10t10 -8q2 0 5.5 -3t5.5 -5l2 -2q0 -2 2 -2h2q10 12 20 26.5 t21 28.5q2 2 6 10t8 12q10 20 22.5 47t12.5 52q0 14 -3 27.5t-3 29.5q0 14 10 21.5t20 7.5q14 0 21 -4q18 -18 18 -49q0 -45 -20.5 -92.5t-42.5 -86.5q-16 -31 -43 -63q-2 0 -2 -2t-2 -2q2 -2 2 -4q0 -4 2 -6q4 -12 13 -24.5t20 -23.5q4 -4 9 -11t9 -11t11 -11.5t9 -9.5 q6 -6 18.5 -17t25 -23.5l22.5 -22.5l14 -14t20.5 -17.5t24.5 -21.5q10 -10 27 -17q2 -2 11.5 -6t13.5 -6q10 -6 22 -12t23 -19q4 -4 4 -16q0 -10 -6.5 -21.5t-18.5 -11.5h-4q-4 0 -8 3t-6 5q-4 2 -12.5 7.5t-19.5 11.5t-20.5 12t-13.5 8q-2 2 -11 8.5t-11 10.5 q-4 4 -24.5 19.5t-26.5 23.5q-4 0 -8.5 5t-6.5 5q-10 10 -31.5 33.5t-25.5 27.5l-12.5 12.5t-21.5 22.5t-21.5 22.5t-12.5 14.5q-4 2 -6 5t-6 7t-8 7h-4q-20 -20 -41 -39t-43 -37q-59 -43 -125 -73t-139 -30h-19.5t-19.5 4q-59 12 -101.5 50t-64.5 90q-6 6 -6 12 q-2 4 -5.5 17.5t-5.5 17.5zM238 164q6 -31 23.5 -55.5t43 -42t55 -27.5t58.5 -10q82 0 149.5 43t124.5 96q2 0 10 8q4 4 7 8q4 4 4 11q0 8 -8 16q-2 4 -4.5 7t-4.5 7q-4 4 -11 13.5t-9 11.5q-4 2 -14.5 13t-21.5 23.5t-20.5 24t-13.5 15.5q-2 2 -8 11t-14.5 20.5t-14.5 20.5 t-8 13q-6 10 -21.5 25.5t-31.5 21.5h-2q-10 0 -21.5 -6t-19.5 -10q-6 -4 -23.5 -12.5t-36 -17.5t-35 -17t-24.5 -13q-57 -33 -82.5 -71.5t-25.5 -106.5v-20zM467 686q0 -14 3 -25.5t7 -23.5q10 -25 21.5 -49.5t23.5 -46.5q2 -4 4 -8.5t6 -4.5t10.5 3.5t10.5 5.5q2 2 6 5t6 5 q31 29 51.5 66.5t20.5 80.5q0 35 -17.5 58.5t-54.5 23.5q-16 0 -33.5 -7t-29.5 -17q-14 -14 -24.5 -30t-10.5 -36z" />
<glyph unicode="'" horiz-adv-x="376" d="M270 553v4q0 4 2 8q0 4 1 6t1 4q2 2 6.5 13.5t8.5 15.5q2 4 3 8t3 6q4 12 14 35t13 25l118 194q0 2 6 9q2 4 9.5 16t9.5 16q10 12 19.5 18.5t25.5 6.5q23 0 29 -12v-13q0 -10 -1 -16t-6 -16q-4 -2 -13 -12.5t-13 -14.5q0 -2 -2 -4t-4 -2q-2 -4 -6.5 -11.5t-6.5 -9.5 l-7 -14t-11 -20.5t-11 -20.5t-7 -12l-2 -6q-2 0 -8.5 -9.5t-8.5 -11.5q-2 -4 -9 -13t-9 -13q-4 -6 -12.5 -23.5t-19.5 -36t-20.5 -34t-13.5 -21.5q-4 -10 -11 -21.5t-13 -21.5q-2 -2 -5.5 -9.5t-7.5 -9.5q-6 -6 -16 -6h-6l-4 2q-14 8 -15 27z" />
<glyph unicode="(" horiz-adv-x="587" d="M180 96q0 63 12.5 124t28.5 120q2 8 11.5 33.5t11.5 32.5q2 6 9 21t15 32.5t14.5 32t8.5 20.5q4 8 14 29.5t22.5 44t23.5 43t16 28.5q4 6 13 22.5t19.5 34t19.5 33t13 21.5q4 4 19.5 27.5t19.5 31.5q23 31 46.5 58.5t49.5 52.5q4 2 12.5 9t12.5 11q4 0 10 4.5t10 6.5 q33 25 74 24h16q4 0 9.5 -2t7.5 -2q23 -10 36 -31.5t13 -44.5v-10l-2 -4q-14 -10 -25 -10h-14q-8 6 -10 15t-4 17.5t-7.5 14.5t-19.5 6q-23 0 -40 -13.5t-34 -29.5q-29 -27 -55.5 -56.5t-50.5 -60.5q-35 -45 -64.5 -92t-56.5 -98q-4 -6 -10 -20.5t-13.5 -31t-13.5 -30.5 t-8 -18q-4 -8 -13.5 -31t-19.5 -47.5t-19 -47t-14 -30.5q-4 -20 -11 -38.5t-11 -39.5q-20 -70 -21 -158v-28q4 -37 24.5 -67t45.5 -52q23 -20 54.5 -32.5t60.5 -12.5q10 0 18 1t17 1q20 0 34 -14q4 -12 4 -17q0 -12 -7 -27.5t-19 -19.5h-12h-11h-4q-2 0 -4 2 q-51 12 -97 32.5t-80 52.5t-54.5 75t-20.5 102z" />
<glyph unicode=")" horiz-adv-x="532" d="M-20 -131q0 14 16 25q6 4 23.5 13t37 20.5t38 21.5t24.5 14q2 2 11 8t21.5 14.5t23.5 15.5t18 11q98 66 181 161t118 214q10 31 13 62.5t3 66.5v31q0 2 -1 11t-3 13q-8 57 -33 106.5t-61 94.5q-2 4 -10.5 12.5l-10.5 10.5q-4 4 -19.5 20t-23.5 25l-20 20q-6 4 -18.5 17.5 t-16.5 17.5q-16 12 -17 29q0 14 17 26q6 6 18 6t19 -2q4 -4 14 -12t14 -12t12.5 -11.5t16.5 -16.5t15.5 -17t11.5 -11q16 -18 30.5 -37.5t30.5 -37.5q43 -59 68.5 -131t25.5 -148q0 -35 -6 -67q-2 -4 -5 -16.5t-6 -29t-6 -32t-5 -23.5q-10 -35 -25 -57q-2 -4 -8 -13.5 t-6 -13.5q-2 -2 -6.5 -11t-9.5 -18.5t-10 -18.5t-5 -11q-2 -2 -9 -13.5t-11 -15.5q-31 -41 -64 -73.5t-68 -67.5q-2 -4 -10 -12.5t-18 -16.5t-19.5 -16t-11.5 -12q-4 -4 -18.5 -14.5t-18.5 -12.5l-178 -121q-8 -4 -23 -4h-12q-6 0 -10 4q-18 8 -18 35z" />
<glyph unicode="*" horiz-adv-x="747" d="M281 391q0 23 16 38t31 26l104 104v2q0 12 -8 25q-16 12 -27 16q-4 4 -11 4t-13 2q-4 0 -27.5 3t-28.5 3q-10 2 -19 6.5t-9 20.5q0 18 22 18h43q4 4 4 9v2q-4 6 -13 27.5t-13 25.5q-4 8 -7 15t-3 16q0 8 6 14q4 10 22 10q8 0 10 -4t8.5 -15t12.5 -23.5t12 -23t8 -14.5 q2 0 7.5 -9t7.5 -13t6 -11.5t6 -7.5q6 -8 16.5 -12t20.5 -4t14 6q18 27 25.5 61.5t9.5 67.5v101q6 16 27 16q6 0 14 -1t12 -7l2 -6v-35q-2 -6 -4 -19.5t-5 -29t-6 -28.5t-5 -17q0 -2 -2 -18.5t-2 -26.5q0 -2 -1 -8.5t-1 -8.5v-6v-8q0 -2 4 -2h2q10 8 36.5 33.5t35.5 35.5 q0 2 5 5.5t9 7.5l6 6h12l4 4q4 4 7 4q12 8 16 8q33 0 33 -22q0 -10 -2 -11q-4 -10 -11 -12q-2 0 -3 -1t-5 -1q-4 -2 -8 -2l-4 -4l-70 -59l-12 -13q-2 -4 -4 -6l-4 -8v-2v-2q10 -4 20.5 -6t20.5 -2l90 -4q10 0 26.5 -6.5t16.5 -22.5q0 -10 -6 -18.5t-19 -12.5h-12 q-23 0 -51 14q-10 4 -16.5 8.5t-16.5 4.5q-6 0 -25.5 1t-25.5 1q-10 0 -17.5 1t-15.5 1q-10 0 -25.5 -7t-15.5 -18q0 -6 2 -8q35 -55 88.5 -89t110.5 -58l2 -2v-9q0 -8 -1 -14t-7 -12q-8 0 -8 -8q-2 -2 -4.5 -3.5t-4.5 -3.5q-4 -2 -6 -4h-6h-6l-4 2l-4 4q-4 2 -23.5 18.5 t-23.5 20.5q-2 0 -13.5 8.5t-27 19.5t-31.5 22.5t-25 17.5q-4 4 -9 8t-13 4l-6 -6q0 -6 -2 -29.5t-4 -27.5v-6q0 -10 2 -19.5t2 -19.5q0 -16 -14.5 -31.5t-32.5 -15.5q-8 0 -15 12v10v8q0 6 2 16.5t2 14.5l19 109v4q0 6 -4 6h-2l-2 -2q-4 -2 -8.5 -6t-6.5 -6 q-4 -4 -16 -15.5t-15 -15.5q-2 -2 -10 -11.5t-16 -19.5t-15.5 -18.5t-9.5 -10.5t-11 -12t-13 -14q-8 -4 -9 -4q-4 0 -6 6t-6 10q-8 -12 -18 -12q-8 0 -8 16z" />
<glyph unicode="+" horiz-adv-x="686" d="M195 367v8q0 20 13 25.5t30 5.5h34q29 0 58.5 1t58.5 5q18 4 24.5 10t12.5 22l74 224q0 2 4 14t6 20q0 2 2 5q2 2 2 3t2 3q2 0 2 2q0 4 2 4h8q10 0 17.5 -3t7.5 -14v-4l-82 -270v-2l4 -2q4 0 12.5 -1t12.5 -1h20h148q10 0 24.5 -7t14.5 -18v-8v-8q0 -8 -11.5 -17.5 t-19.5 -11.5h-8q-16 0 -25.5 5t-21.5 8q-25 4 -49.5 5t-49.5 1h-37h-16q-12 0 -16 -6q0 -4 -4.5 -13.5t-6.5 -13.5q-2 -6 -7 -20.5t-9 -29t-8 -27.5t-4 -15q-2 -6 -5 -19.5t-7.5 -28t-8.5 -27.5t-4 -19q-6 -23 -6 -39.5t-21 -32.5q-4 -4 -11 -5t-13 -1q-21 0 -21 18 q0 16 11 41l51 152l20 75l-6 2h-6q-37 0 -75 -6t-72 -6h-29q-4 0 -10 6t-6 11z" />
<glyph unicode="," horiz-adv-x="376" d="M82 -205q0 23 16.5 34t30.5 21q35 27 51.5 54.5t16.5 72.5v21q-4 31 -27 61q-4 2 -13.5 11.5l-13.5 13.5q-10 8 -19 15t-9 22q0 10 6 18t16 8q8 0 19.5 -6t15.5 -10q39 -29 55.5 -73t16.5 -91q0 -23 -11.5 -56.5t-31 -65t-44 -54t-51.5 -22.5q-24 -1 -24 26z" />
<glyph unicode="-" horiz-adv-x="649" d="M121 276v11v10q0 4 4 8q4 10 13 13.5t20 5.5q6 0 25.5 1t25.5 1l260 41q4 2 30.5 3t39.5 3q4 0 24.5 1t30.5 1h20h23q10 -4 17.5 -8.5t7.5 -16.5q0 -41 -41 -41q-12 0 -24.5 2t-27.5 2h-14q-12 -2 -39 -3t-31 -1l-211 -33q-8 -2 -36.5 -8t-36.5 -10q-10 -2 -22.5 -3 t-22.5 -1q-18 0 -29 14q-6 0 -6 8z" />
<glyph unicode="." horiz-adv-x="415" d="M137 18q0 16 15 35q10 16 26.5 30.5t34.5 18.5q10 4 21.5 4h21.5h12q8 -2 11 -12v-10v-12q0 -4 -2.5 -9.5t-4.5 -11.5q-16 -27 -47.5 -41t-60.5 -14h-10l-4 2q-2 0 -6.5 4t-4.5 6q-2 2 -2 10z" />
<glyph unicode="/" horiz-adv-x="378" d="M-115 -162q0 8 6 8l906 1092q8 14 30 14q12 0 19.5 -10t7.5 -20q0 -12 -10 -23l-35 -35q-4 -4 -11 -8t-12 -10q0 -8 -8 -8q-4 -4 -12 -12.5t-8 -10.5l-617 -739l-131 -178q-2 0 -5 -6.5t-7 -10.5q-6 -10 -12 -25.5t-14.5 -28.5t-19.5 -22.5t-26 -9.5q-10 0 -24.5 8.5 t-16.5 18.5v10v6z" />
<glyph unicode="0" horiz-adv-x="1204" d="M145 80v20q0 16 2.5 37t12.5 37q6 10 13 20.5t11 20.5q2 2 8.5 13.5t14.5 24.5t15 25.5t9 16.5q2 2 7.5 10t11.5 17.5t12 17.5t8 12q4 4 11.5 14.5t14.5 20.5t13 18.5t8 12.5q6 6 18.5 20.5t26 30.5t25.5 30.5t16 18.5q4 6 16.5 18.5l27 27t27.5 26.5t20 18q6 4 18 16.5 t26.5 26t27 24.5t18.5 15q4 4 20.5 17.5t37 29t38.5 30.5t29 21q2 2 9 8.5t16 12.5t17.5 12t12.5 8q2 2 14.5 8.5t16.5 10.5q16 12 41.5 22.5t46.5 12.5h24q29 0 58.5 -4.5t56.5 -14.5q39 -23 76 -57q25 -23 49 -51.5t43.5 -61t33 -67.5t13.5 -70q0 -111 -53.5 -188.5 t-139.5 -139.5q-31 -27 -63.5 -47t-67.5 -43q-4 -2 -22.5 -12t-22.5 -14q-8 -4 -28.5 -14.5t-26.5 -12.5t-21.5 -8t-17.5 -8l-110 -33l-7 -2q-16 -2 -30.5 -2t-30.5 -4q-8 -4 -15.5 -7.5t-15.5 -7.5q-35 -16 -77 -24t-82 -13q-4 0 -27 -2t-31 -2h-16q-12 0 -26.5 1t-24.5 3 q-39 10 -83 34t-53 69zM209 115q0 -25 14.5 -39.5t35 -22.5t45 -10t42.5 -2q59 0 121 12q121 23 229 62q6 2 24.5 9t24.5 9q59 23 116 51.5t110 61.5q23 16 46 32.5t46 36.5q18 18 34.5 36t32.5 40q23 29 36.5 62.5t13.5 72.5q0 49 -22.5 99.5t-57.5 87.5q-4 2 -15.5 14 t-15.5 16q-8 8 -17.5 14.5t-17.5 12.5l-4 2h-6q-18 0 -25.5 -13.5t-13.5 -28.5t-14 -28.5t-27 -13.5q-35 0 -35 33q0 23 12.5 40t12.5 40q0 12 -4 18h-10q-29 0 -55.5 -12t-51.5 -25q-4 -2 -9 -6t-9 -4q-96 -61 -181.5 -135t-162.5 -156q-4 -4 -12.5 -14t-19.5 -20.5 t-20.5 -20.5t-13.5 -14q-4 -6 -14.5 -19.5t-22.5 -28t-22.5 -27.5t-14.5 -18q-4 -6 -18 -26.5t-21 -28.5q-2 -4 -13 -20.5t-15 -24.5q-10 -23 -22.5 -50t-12.5 -54z" />
<glyph unicode="1" horiz-adv-x="385" d="M121 -57l94 299q2 4 6 16t8 18q0 2 2 5.5t2 5.5q2 2 10.5 14t10.5 14q4 6 5 14.5t5 12.5q2 6 8.5 28.5t8.5 30.5l86 256l53 197q0 4 4 15.5t6 17.5q6 16 14.5 27.5t30.5 11.5h7t7 -4q14 -12 15 -31v-6l-135 -393v-25q-6 -12 -17.5 -41t-24 -60.5t-23.5 -60.5t-15 -41 q-4 -10 -13.5 -37.5t-19.5 -58.5t-19.5 -58.5t-13.5 -37.5q-2 -4 -6 -20.5t-4 -20.5q-2 -6 -5 -21.5t-6 -33t-6 -34t-3 -22.5q-6 -25 -39 -24q-18 0 -25.5 12t-7.5 26v9z" />
<glyph unicode="2" horiz-adv-x="968" d="M72 -63q0 18 13 30.5t28 20.5q4 2 14 6t14 6l219 88q2 0 28 11.5t38 17.5q4 0 10 4t10 6q2 0 5.5 3t5.5 3q4 4 26.5 18.5t28.5 16.5q2 2 15.5 10t28.5 17.5t27.5 17.5t16.5 10t17.5 11.5t27.5 18.5t26.5 18.5t18.5 13.5q2 2 10.5 8t17.5 13t18 14.5t14 9.5q4 4 19 19.5 t22 21.5q4 4 11 10t9 10q31 29 59.5 70t28.5 88q0 33 -18.5 54.5t-45 33.5t-58.5 16t-56 4q-37 0 -72 -7t-67 -17q-12 -4 -23.5 -8t-21.5 -9q-2 0 -6.5 -3t-6.5 -3t-6 -4q-2 -2 -4 -2t-4 -1t-6 -1q-4 -2 -10 -2h-5q-61 -23 -110 -64.5t-96 -89.5l-21 -6h-2q-14 0 -24.5 7.5 t-10.5 23.5q0 10 11.5 28.5t19.5 26.5l15.5 15.5t13.5 15.5q14 12 33.5 24.5t35.5 18.5q51 29 103.5 47.5t107.5 32.5q41 10 85 16t87 6h37q25 0 55 -10q53 -16 88 -51t35 -92q0 -47 -20.5 -87t-48.5 -75q0 -2 -5.5 -7t-7.5 -9q-4 -2 -8 -7.5t-6 -7.5q-8 -10 -28.5 -29.5 t-24.5 -23.5t-20.5 -19.5t-22.5 -19.5q-117 -96 -256 -170q-6 -4 -27.5 -12t-27.5 -12q-2 -2 -12.5 -6.5t-22 -9.5t-21.5 -9t-12 -6q-2 0 -17.5 -8t-23.5 -13q-4 0 -10 -6q-2 0 -4 -2t-2 -4q0 -4 4 -5t6 -1h8h8q4 0 10.5 1t10.5 3q45 8 90 10l90 4h53h43l379 -16h14h29l4 2 h4q12 0 17.5 -13.5t5.5 -23.5q0 -16 -6.5 -30.5t-24.5 -14.5h-4q-41 23 -88 29q-55 8 -112.5 9t-112.5 1h-66l-362 -22q-6 0 -29 -2.5t-31 -4.5q-41 -4 -81 -15t-81 -11q-12 0 -21 7.5t-9 23.5z" />
<glyph unicode="3" horiz-adv-x="667" d="M74 -70q0 18 14 27q8 4 10 4q4 2 29 7t29 7q25 8 48 15.5t46 17.5q55 20 110 58q125 76 213 184q39 45 52 100q4 10 5 19.5t1 19.5v14q0 10 -3 16.5t-7 14.5q-23 37 -68 54.5t-86 17.5q-35 0 -67.5 -13.5t-67.5 -25.5q-18 -4 -35.5 -10t-36.5 -6q-37 0 -37 32q0 10 10 21 q10 6 22.5 11l27.5 11q2 0 13 4.5t24.5 8.5t24.5 8t15 6q16 4 29.5 10t30.5 15q2 2 8 6t8 4q35 25 69 50.5t52 66.5q8 14 8 28v6q0 4 -8 6.5t-12 4.5q-12 4 -22.5 4h-24.5h-22.5t-22.5 -4l-115 -31q-23 -8 -51 -8q-29 0 -29 28q0 18 21 25q4 2 17 8t28.5 12.5t29 11.5 t17.5 7q10 6 23.5 10t23.5 8q8 2 14 3t17 1q16 0 27 -7t28 -13q27 -6 57.5 -9t48.5 -28q8 -8 9.5 -18.5t1.5 -20.5q0 -20 -3 -29q-6 -23 -24 -45q-4 -4 -14.5 -15t-14.5 -13q-16 -16 -35.5 -30.5t-31.5 -35.5l-2 -2l2 -2h4q4 0 8 1t8 1q6 0 19 -6q6 -4 21 -11t17 -10 q6 -2 26 -13t24 -15q6 -4 14 -9.5t12 -11.5q33 -41 33 -98q0 -59 -35 -114.5t-69 -96.5q-25 -29 -53.5 -55.5t-57.5 -48.5q-2 -4 -10 -10.5t-13 -10.5q-4 -2 -13 -7t-9 -7l-105 -60q-20 -12 -51 -18h-14l-6 -4q-4 -2 -19.5 -9t-19.5 -10q-2 -2 -9 -5t-10 -5q-4 -4 -22 -11 t-23 -11q-8 -4 -15 -4h-13q-16 0 -29.5 8t-13.5 24z" />
<glyph unicode="4" horiz-adv-x="747" d="M145 238q0 10 3.5 15t7.5 11l80 117l202 258q6 8 12.5 14t10.5 11h2q2 0 2 -1t2 -1h2q18 -18 18 -35v-4q0 -4 -4 -9q-2 -4 -7 -13t-7 -9l-211 -270q-2 -2 -8 -12.5t-10 -14.5q-8 -12 -9 -16q0 -8 2 -9h27l227 15h17l2 2l2 4q4 6 10 17t8 16q4 8 12.5 26.5t10.5 22.5 l225 495q0 2 5 14.5t9 16.5q10 16 29 41t41 25q6 0 10 -3.5t9 -7.5q0 -2 1 -2t1 -2t2 -2v-18l-2 -2q-2 -4 -10.5 -17.5t-17.5 -28t-18.5 -26.5t-11.5 -18q-4 -6 -16 -26.5t-17 -29.5q-4 -8 -14 -28.5t-14 -24.5l-121 -278q0 -2 -5 -12.5t-7 -14.5l-4 -4q-2 -2 -2 -4t-3 -2 v-19q-23 -37 -40 -76q-8 -20 -9 -24q0 -6 2 -6h7h8q8 0 28.5 1t43 3t43 3t28.5 1q6 2 11 4t14 2q16 0 28 -18q6 -10 6 -21q0 -12 -12 -20t-22 -8h-125h-16.5t-20.5 -3q-10 -2 -20.5 -3t-20.5 -3l-4 -2q-10 -6 -19 -20q0 -4 -2 -6l-4 -4q-4 -8 -14 -31t-14 -29 q-4 -8 -12.5 -26.5t-17.5 -40t-17.5 -40t-10.5 -26.5q-2 -4 -9 -23.5t-11 -27.5q0 -4 -5 -19.5t-8 -19.5q0 -2 -1 -8t-3 -8q0 -2 -2 -7.5t-2 -7.5v-2q0 -2 -4 -2q0 -4 -5 -10t-7 -10h-2h-10q-16 0 -27.5 3t-11.5 23q0 4 2 8t4 10.5t2 8.5l135 299l2 6v2q0 4 -4 4h-39 q-10 0 -32.5 -2t-48 -4t-49.5 -4t-32 -2h-61h-6q-12 0 -34 3t-22 26z" />
<glyph unicode="5" horiz-adv-x="800" d="M244 416q0 10 6 20t14 19q2 4 6 10t4 8l99 113q0 2 4 4t6 6q6 6 6 10q0 2 2 4q0 2 1 2t1 2v2q0 8 -2 14.5t-2 14.5q0 12 2 17q4 4 11.5 7t11.5 3q10 4 22.5 6t22.5 8q14 10 23.5 22.5t27.5 12.5q6 0 12 -1t13 -1q33 0 63.5 10t60.5 21q4 0 15.5 3t13.5 3l184 26 q2 0 13.5 1t25 2t27.5 3.5t20 2.5q14 2 27.5 2h28.5q20 0 37.5 -7.5t17.5 -31.5q0 -10 -7 -20.5t-20 -10.5h-8q-2 0 -11 1t-20.5 2t-20.5 2t-11 1h-37q-47 0 -94 -5t-95 -15q-80 -12 -163 -41q-31 -12 -64 -31q-14 -6 -35 -25l-22.5 -22.5t-33.5 -34.5t-32.5 -34.5 t-21.5 -22.5q-2 -2 -5 -6.5t-8 -6.5q-2 -4 -5 -8t-3 -8q0 -8 6 -8h7l157 35q51 10 94 10h16.5t16.5 -2q20 -4 43 -14.5t41.5 -24.5t29.5 -32.5t11 -41.5q0 -41 -15.5 -74.5t-38 -63.5t-52 -54.5t-56.5 -44.5q-4 -2 -13 -8.5t-18.5 -14.5t-18.5 -14t-11 -8q-16 -6 -27 -7 q-4 -4 -11 -10t-13 -8q-6 -4 -22.5 -12.5t-33 -17.5l-33 -18t-22.5 -11q-2 -2 -25.5 -11.5t-33.5 -15.5t-19 -6q-30 -1 -30 26q0 18 10 31.5t28 13.5q4 0 14.5 1.5t12.5 1.5t8 2t11 4q45 16 83.5 37.5t79.5 46.5q4 4 28 19t30 22q27 18 47 37.5t43 41.5q12 14 28.5 39 t18.5 45v13q0 35 -15.5 51t-48.5 27q-14 6 -27.5 6h-25.5h-26q-2 0 -11.5 -1t-13.5 -1q-6 -4 -19.5 -6.5t-15.5 -2.5l-147 -36q-23 -6 -45.5 -10.5t-44.5 -4.5q-10 0 -24.5 2t-14.5 19z" />
<glyph unicode="6" horiz-adv-x="976" d="M145 23v20q0 63 31 123q4 6 9 17.5t5 13.5l117 188q2 4 12.5 19.5t23.5 35t26.5 38t19.5 28.5q4 6 13.5 18.5t20.5 25.5t20.5 25.5t13.5 16.5t13 15t20.5 23.5t20.5 24t13 15.5q2 4 13.5 16t23.5 24.5t22.5 23.5t14.5 16q4 2 14.5 10t21.5 17t21.5 18.5t14.5 13.5 q2 2 10 8t18.5 14.5t19.5 16.5t15 12q2 2 12.5 9.5t14.5 11.5q49 35 110 34q18 0 31.5 -7t13.5 -29v-11q-2 -6 -10 -9t-14 -3h-47q-2 -2 -4 -2h-9q-6 -6 -12 -6q-39 -18 -72.5 -42t-62.5 -52q-25 -18 -47.5 -40t-42.5 -44q-35 -31 -57 -78q-4 -4 -15.5 -16.5t-25 -26.5 t-24.5 -27.5t-15 -17.5q-6 -6 -17.5 -21.5t-24 -32t-22.5 -30.5t-12 -19l-107 -161q-4 -4 -16 -27t-18 -35q0 -2 -5.5 -14t-9.5 -17q-10 -20 -17 -42.5t-7 -41.5q0 -14 10 -22h2h2q31 41 67.5 78t77.5 65q57 35 123 66q4 2 16.5 6t26 9t24.5 10.5t17 7.5q41 14 83 25t83 20 q16 4 33.5 5t34.5 1h26q51 -8 92.5 -35t41.5 -84q0 -20 -9.5 -37.5t-23.5 -32.5q-6 -10 -23.5 -25.5t-19.5 -17.5q-4 -4 -21.5 -18t-27.5 -23q-8 -6 -17.5 -10t-17.5 -10q-4 -2 -15.5 -7t-15.5 -5q-72 -31 -144.5 -54.5t-148.5 -44.5q-49 -14 -104 -14h-76h-51 q-8 0 -15.5 -1t-11.5 3q-6 4 -8 13.5t-6 15.5t-8 9t-9 7q-2 4 -11 11.5t-11 11.5q-10 6 -13 16t-8 21zM270 -6q0 -12 17.5 -17.5t27.5 -5.5h17q29 0 57.5 1t56.5 8q43 6 84 19t84 30q20 0 31 4q4 0 15.5 4t13.5 6q10 4 30.5 12t24.5 11q29 14 57.5 28.5t55.5 32.5 q20 16 41.5 42t21.5 54q0 20 -14 30.5t-31 14.5q-10 4 -21.5 6t-21.5 2h-67q-2 0 -15.5 -3t-21.5 -5q-4 -2 -17.5 -6t-17.5 -6q-47 -10 -91 -26.5t-89 -32.5q-10 -4 -19.5 -11.5t-21.5 -13.5l-31 -18q-63 -35 -119 -91q-12 -12 -24.5 -31.5t-12.5 -37.5z" />
<glyph unicode="7" horiz-adv-x="688" d="M186 -14q0 4 2 8l5 8l493 506l168 154v4h-33l-413 -48q-20 -2 -40 -2h-40h-29q-20 2 -33.5 10.5t-13.5 30.5q0 12 12 19h4q2 0 2 2h80l576 53h10h9t9 -2q10 -4 19.5 -13t9.5 -22v-2q-4 -10 -13 -18t-20 -15l-100 -67l-111 -96l-452 -476q0 -2 -4 -7t-7 -7q0 -2 -7 -12 t-9 -12l-4 -5q0 -2 -6 -8l-8 -8q-6 -4 -21 -4q-10 0 -22.5 7.5t-12.5 21.5z" />
<glyph unicode="8" horiz-adv-x="962" d="M67 -97.5q1 5.5 1 13.5q0 35 14 66.5t31 60.5q4 4 10 14.5t8 12.5q6 10 22.5 31.5t20.5 25.5q4 6 15.5 18.5t22.5 26.5t21.5 25.5t14.5 15.5t19.5 20.5t31.5 34t31.5 32.5t19.5 19q2 2 6 7.5t9 9.5v2q0 6 -9 6q-18 2 -38.5 4t-38 8t-28.5 19.5t-11 38.5q0 16 7 33.5 t17 33.5q18 39 49 72q10 10 31 32.5t23 24.5l194 189q2 4 15.5 15t19.5 15q66 59 141 95q2 2 17.5 6t21.5 8h4q2 0 2 2q18 4 36 9t36 5q20 0 31.5 -11t19.5 -28q4 0 6 -8t4 -10q0 -6 11 -10q18 -10 41.5 -18.5t46 -19.5t38 -27.5t15.5 -45.5q0 -35 -22.5 -63.5t-47.5 -50.5 q-2 -2 -10 -8.5t-12 -10.5t-17.5 -14.5t-30 -21.5t-29.5 -22.5t-17 -13.5q-8 -8 -15.5 -13t-17.5 -11q-4 -2 -14.5 -7t-22.5 -12.5t-21.5 -13.5t-11.5 -8q-16 -8 -28 -21l2 -2q23 -16 44 -22t46 -15q55 -16 73.5 -53t18.5 -90q0 -41 -21.5 -75.5t-48.5 -63.5 q-55 -55 -116 -101q-66 -45 -132.5 -80.5t-138.5 -68.5q-4 -2 -25.5 -10t-29.5 -13q-4 -2 -22.5 -8t-22.5 -8q-10 -4 -17.5 -10t-17.5 -10q-33 -12 -62.5 -20.5t-64.5 -8.5q-18 0 -40.5 2t-44 9t-38 19.5t-22.5 34.5q-4 6 -3 11.5zM135 -63q0 -18 8 -25q8 -12 17 -14 q8 -6 24 -7h21q41 0 80 9.5t80 19.5q72 29 141 61.5t135 73.5q37 23 73 47.5t66 53.5l43 43q20 20 38 51t18 61q0 37 -19.5 59.5t-49.5 33t-63.5 13.5t-62.5 3h-33.5t-34.5 -4q-4 0 -3 -3t-3 -7q2 -10 5 -22.5t3 -23.5q0 -6 -2 -8q-8 -16 -26 -16q-12 0 -19.5 7t-13.5 16.5 t-12 16.5t-19 7q-12 0 -21 -9t-20 -18q-6 -4 -13 -5t-11 -5l-12 -6q-4 -2 -7 -4q-47 -35 -83.5 -78t-73.5 -84l-6 -6l-5 -4q-8 -8 -16 -12.5t-14 -14.5l-86 -135q0 -2 -4 -11t-9 -14q-10 -20 -10 -40zM309 434q0 -10 5 -14t12 -8q4 -4 13 -6.5t15 -2.5q29 0 55.5 3.5 t51.5 15.5q16 6 28.5 13t28.5 18q4 2 14.5 6t14.5 6l24 12q4 2 21.5 8.5t38 13.5t37 14t20.5 9q6 4 23.5 9.5t21.5 9.5q100 47 182 114q20 16 37 33t33 35q2 2 6 7t6 9q14 10 15 25v2l-2 4v2q-6 16 -24.5 28.5t-42 19.5t-47.5 11.5t-38 4.5q-10 0 -12 -2q-2 -4 -7 -8.5 t-8 -6.5l-4 -2h-6q-23 0 -24.5 20.5t-3.5 36.5q0 2 -4.5 3.5t-6.5 1.5t-2 -2q-4 -2 -16 -7.5t-14 -7.5t-11.5 -7t-19.5 -11t-20.5 -12.5t-16.5 -8.5q-6 -6 -10 -6q-6 -4 -20.5 -15t-31 -23.5t-31 -24t-20.5 -15.5q-2 -2 -11 -9t-19.5 -16t-19.5 -18.5t-13 -13.5t-19.5 -18.5 t-21.5 -20.5q-2 -4 -12.5 -17.5t-14.5 -15.5l-10 -10t-17.5 -16.5t-18.5 -16.5t-11 -10q-10 -10 -19.5 -24.5t-17.5 -28.5q-4 -8 -17.5 -33t-17.5 -31v-6z" />
<glyph unicode="9" horiz-adv-x="882" d="M260 440q0 14 2 21q2 4 3 9t5 11q2 8 6 15q49 111 131 190.5t181 142.5q68 43 142.5 74t154.5 31h20q12 0 25.5 -4t25.5 -8q33 -16 57.5 -45t24.5 -70q0 -23 -5 -41t-13 -39q-16 -45 -37.5 -88t-46.5 -82v-14q0 -2 -2 -4q-4 -4 -4 -7q-23 -47 -52.5 -90t-58.5 -88 q-10 -14 -17 -29.5t-18 -29.5q-12 -14 -25.5 -27.5l-27.5 -27.5q-2 -4 -12 -16.5t-22.5 -27t-22.5 -26.5t-12 -16q-41 -47 -87.5 -90.5t-99.5 -81.5q-16 -16 -37.5 -30.5t-42.5 -27.5q-4 -4 -14 -8t-12 -6q-4 -2 -20.5 -10.5t-24.5 -12.5t-25 -4h-8l-2 2q-2 0 -4 2 q-19 19 -19 29t11.5 30.5t21.5 20.5h6q8 0 14.5 -2t14.5 -2h2q66 35 124 79t111 91l12.5 12.5l16.5 16.5t15.5 15t9.5 11q2 2 11 13.5t20.5 24t20.5 22.5t13 14q6 6 20.5 24.5t18.5 22.5l111 172q2 4 8 15.5t8 15.5t10 20.5t11 20.5q2 4 4 10q2 4 4 7t4 8v10q-2 0 -4 2h-4 q-2 0 -2 2q-6 -4 -20.5 -14.5t-32 -21.5t-32 -20.5t-20.5 -13.5q-16 -10 -30.5 -16t-28.5 -14q-12 -8 -21.5 -18.5t-23.5 -18.5q-39 -20 -79 -34.5t-83 -27.5q-4 -2 -22.5 -7t-24.5 -5q-23 -6 -47.5 -11t-48.5 -5q-37 0 -71 17t-34 58zM319 442q4 -14 21.5 -18t30.5 -4h24 q18 0 31.5 1t30.5 3q4 2 16 6t16 4q6 2 20.5 9.5t31 14.5t31 13t20.5 8t23.5 10.5t36 17.5t36 18.5t25.5 13.5q4 4 24.5 14t28.5 14q29 16 54.5 32.5t49.5 39.5q23 18 44.5 40.5t35.5 49.5q8 12 14.5 27.5t6.5 29.5v19q0 41 -17.5 60.5t-58.5 19.5q-51 0 -100 -17 q-47 -16 -93.5 -38.5t-87.5 -47.5q-2 0 -8 -1t-8 -1l-4 -2q-102 -74 -188 -164q-29 -29 -58 -72.5t-29 -86.5v-13z" />
<glyph unicode=":" horiz-adv-x="415" d="M152 31q0 23 30.5 42t53.5 19q18 0 26 -12t8 -31q0 -10 -9 -19.5t-22.5 -15.5t-27.5 -9t-23 -3q-16 0 -26 6.5t-10 22.5zM262 379q0 14 8.5 22.5l18.5 18.5q20 14 47 14t26 -24q0 -18 -13 -29.5t-30 -20.5q-8 -4 -28 -4h-12q-17 7 -17 23z" />
<glyph unicode=";" horiz-adv-x="415" d="M31 -202q0 3 4 7l4 5l6 6l2 2q2 0 2 1t2 1q14 4 28.5 6t26.5 6q2 0 5.5 2t5.5 2q20 12 38.5 27.5t34.5 34.5q16 14 25.5 35.5t9.5 43.5q0 25 -12 45.5t-25 36.5l-14 15q-8 12 -8 14q0 12 9 20.5t20 8.5h8q4 0 8 -3t6 -5q14 -12 25.5 -26.5t17.5 -31.5l2 -4q4 -18 8 -37.5 t4 -38.5q0 -16 -6 -30.5t-10 -26.5q-12 -23 -26.5 -41t-30.5 -37q-23 -23 -60 -52.5t-71 -29.5q-16 0 -27.5 10.5t-11.5 26.5v7zM244 367q0 18 15 28.5t32 10.5q29 0 51 -25q2 -2 2 -10q0 -20 -19.5 -27.5t-35.5 -7.5q-14 0 -29.5 7.5t-15.5 23.5z" />
<glyph unicode="&#x3c;" horiz-adv-x="641" d="M160 422q0 8 6 13t12 7l217 97l160 79q23 10 46.5 17.5t45.5 15.5q12 4 27 4h2q2 0 4 -1t4 -1h4l2 -2l4 -8q2 -4 2 -7t2 -5v-4v-8.5t-4 -8.5t-13 -6t-13 -4q-4 0 -17.5 -2t-15.5 -2t-8 -2t-11 -4q-4 -2 -11 -4t-9 -4q-8 -4 -23.5 -10.5t-17.5 -8.5l-143 -76l-105 -43 q-2 0 -10 -3t-12 -7t-11.5 -7t-13.5 -5l-2 -4q0 -4 10 -8q2 -4 10.5 -9.5t12.5 -7.5l325 -184q2 0 7.5 -3t7.5 -5q4 -4 4 -19q0 -18 -8.5 -22t-24.5 -4q-12 0 -20 4q-37 29 -78 53t-82 47q-4 4 -18.5 10t-18.5 9q-2 2 -7 6t-7 4l-142 71q0 2 -7 6.5t-9 4.5q-2 2 -8 7t-10 7 q-4 0 -8.5 4t-6.5 6q-4 4 -12 11.5t-8 15.5z" />
<glyph unicode="=" horiz-adv-x="907" d="M190 205v4v4q12 16 31 16h51l344 -12l197 -18q31 -4 31 -31q0 -10 -7.5 -20.5t-17.5 -10.5t-16 3t-15 5q-59 14 -115.5 21.5t-117.5 11.5h-43h-102h-101q-8 0 -30.5 -3t-28.5 -3h-17h-16q-27 8 -27 33zM266 506q0 8 2 10q8 12 27.5 14t32.5 5q6 0 19 1t15 1h310 q4 0 17 -1t30.5 -2.5t33 -3.5t25.5 -4q4 0 35 -3t45 -7q16 -2 34.5 -6t18.5 -27q0 -14 -11 -37.5t-30 -23.5q-28 -1 -28 22q0 4 1 8.5t1 8.5q-4 0 -6 2q-2 0 -2 1t-2 1t-3 2l-133 12h-22q-29 0 -59.5 -2t-59.5 -2h-29h-12l-14 4h-21q-29 0 -58.5 -2t-57.5 -2h-33h-17 q-12 2 -25.5 6t-21.5 15q-2 0 -2 10z" />
<glyph unicode="&#x3e;" horiz-adv-x="661" d="M184 174v21v2q0 2 2 4q6 8 27 16q4 2 15.5 7t17.5 5q8 2 29.5 10.5t45 15.5t45 14.5t29.5 9.5q16 6 29.5 12t30.5 14q2 2 7 5t7 5l2 2q2 2 3 2t3 3l8 4q4 2 9.5 2h9.5q4 4 6 8t6 8l8 4t8 6q4 2 16.5 10.5t26 15.5t25.5 14t16 12q4 0 12.5 6t10.5 10q2 0 4 2q0 4 -4 4 q-6 6 -14 6l-273 94q-4 2 -19.5 8.5t-23.5 8.5q-2 2 -15 7t-18 9q-8 4 -14 8t-10 13q-4 4 -3 6t1 4q0 20 22 31h11q10 0 16 -3.5t16 -7.5q4 -2 14.5 -9t14.5 -9q0 -2 8 -2q6 -4 25.5 -12.5t41 -17.5t40 -16t26.5 -9q6 -2 16.5 -6.5t20.5 -8.5t19.5 -7t13.5 -3l139 -35 q2 0 10.5 -3t14.5 -3q4 -4 14 -7t15 -9v-11q0 -4 -1.5 -11t-5.5 -11q-2 0 -7 -5t-7 -5q-2 -4 -9 -8.5t-9 -6.5l-267 -145l-131 -64q-2 0 -23.5 -8t-31.5 -12q-23 -8 -45 -8h-14q-12 4 -13 14z" />
<glyph unicode="?" horiz-adv-x="747" d="M154 4q0 14 9 29.5t25 15.5t23.5 -12t7.5 -29q0 -16 -14 -28q-2 -2 -4 -3q-2 0 -4 -2h-11q-32 0 -32 29zM180 154q2 20 10.5 38.5t14.5 36.5q2 8 9 30t9 28q2 4 5 21.5t5 23.5q0 4 3.5 16t3.5 17q4 10 11 18t17 8h13h45q45 0 88 8.5t88 22.5q31 6 61.5 19.5t61.5 29.5 q49 27 96 70t65 96l8.5 25.5t4.5 25.5v25v24q0 12 -4 24.5t-9 22.5q-12 23 -24 39q-35 39 -90.5 47.5t-102.5 8.5q-86 0 -168 -25q-4 0 -15 -3t-15 -5t-12.5 -5t-12.5 -7q-2 -2 -11 -9.5t-11 -7.5q-4 -6 -11.5 -7t-15.5 -3q-10 -8 -17.5 -16.5t-21.5 -8.5t-25.5 9.5 t-11.5 25.5q0 12 9.5 22.5t23.5 18.5t27.5 14.5t23.5 10.5q43 16 85 25.5t87 17.5q4 0 24.5 3t30.5 5h15h26q57 0 108.5 -10.5t89.5 -36t59.5 -68.5t21.5 -108q0 -41 -8 -80t-29 -74q-12 -23 -28.5 -39t-32.5 -33l-9 -8q-31 -25 -65.5 -42t-71.5 -34q-6 -2 -23.5 -9 t-21.5 -7q-8 -4 -25.5 -9t-21.5 -5l-199 -47q0 -2 -2 -2h-4l-4 -3q-2 -2 -2 -4t-1 -3t-1 -3q-10 -23 -19.5 -45t-17.5 -49q-10 -23 -12 -43q-4 -14 -5 -28.5t-16 -26.5q-8 -4 -16 -4q-37 0 -37 41z" />
<glyph unicode="@" horiz-adv-x="970" d="M242 365q0 53 16 103t45 97q53 84 132 150.5t169 107.5q76 33 156 41h41q45 0 87 -5t74.5 -22.5t51 -50t18.5 -88.5q0 -90 -54 -161.5t-122 -124.5q-2 -2 -10 -9.5t-18.5 -14.5t-19.5 -14t-15 -12q-16 -10 -32 -19t-38 -13l-6 -2h-17h-16q-10 2 -17.5 8t-15.5 12h-4 q-10 0 -19.5 -4t-17.5 -8t-14 -5t-16 -1q-23 0 -41.5 14t-22.5 37v14v17q0 10 8 26q8 23 19.5 42.5t23.5 37.5q16 25 42 51.5t56.5 49t62.5 38t63 15.5t49 -15.5t18 -46.5q0 -41 -27 -67v-27q-2 -18 -15 -36.5t-23 -30.5q-2 -4 -16.5 -19.5t-16.5 -19.5q-2 -2 -3 -4.5 t-3 -4.5h2q16 4 32.5 13.5t28.5 19.5q82 61 133 150q16 23 28.5 51.5t12.5 56.5q0 41 -17.5 66.5t-44 40t-61 19.5t-67.5 5q-88 0 -169 -36.5t-153 -90.5q-35 -27 -63.5 -57.5t-57.5 -60.5q-16 -18 -24 -39t-19 -43q-10 -31 -18 -60.5t-8 -60.5q0 -78 44 -115t111 -53 q23 -6 46.5 -7t48.5 -1q78 0 149.5 19.5t140.5 47.5q14 -2 26.5 4t25.5 15q20 10 38.5 22t32.5 29q8 8 13 18q6 14 10 37t24 23h9l4 -2q8 -4 11 -13.5t3 -17.5q0 -16 -7 -29.5t-18 -23.5q-16 -23 -36.5 -38.5t-40.5 -29.5q-33 -18 -69 -33.5t-71 -31.5q-35 -14 -72.5 -23.5 t-78.5 -17.5q-51 -10 -98 -11q-72 0 -145 26t-120 85q-16 25 -22 53.5t-6 57.5zM563 416q0 -16 8.5 -26.5t24.5 -10.5q14 0 32.5 8t28.5 19l39 38l109 134q6 6 6 20q0 25 -25 25t-51 -17q-35 -16 -63.5 -40.5t-57.5 -53.5q-14 -16 -32.5 -44.5t-18.5 -51.5z" />
<glyph unicode="A" d="M27 70v8q2 2 4 6q2 2 2 4t2 4q0 4 3 6t3 4q4 8 15.5 22.5t13.5 16.5l131 172q4 4 11 16.5t9 20.5l-2 4q-2 0 -5 8.5t-3 10.5v8q0 12 2 17t14 12l4 2h29q16 2 27.5 14t19.5 25l250 325q12 18 24.5 34.5t22.5 33.5q25 31 48.5 57.5t41.5 56.5q4 12 8 21q0 4 1.5 14.5 t1.5 12.5q2 6 5 10t7 8t10 4h10q23 0 33 -27.5t14 -44.5q4 -25 6.5 -50t2.5 -54v-25q0 -6 -2.5 -25.5t-2.5 -23.5q0 -6 -1 -20.5t-3 -27.5t-3 -24.5t-1 -13.5l-43 -225q-2 -6 -2 -21q0 -8 4 -12q2 0 4 -1t5 -1h51q0 -2 2 -2h4q10 -4 17 -10t7 -19q0 -14 -9 -22t-21.5 -13.5 t-25.5 -6.5t-21 -1h-15q-2 0 -5 1t-5 1h-2h-2l-8 -10l-66 -389q0 -4 -2 -14t-2 -15q-2 -12 -6 -20t-18 -14q-4 0 -6.5 -1t-6.5 -1q-14 0 -26.5 9t-12.5 21v6l25 76l49 197q0 4 4 28.5t8 36.5q4 23 6.5 44.5t2.5 43.5q0 4 -5.5 6.5t-9.5 2.5h-41h-39q-6 0 -23.5 -1t-37 -3.5 t-36.5 -3.5t-21 -1t-20.5 -1t-36 -2t-36 -2t-20.5 -1q-16 -2 -35.5 -5t-30.5 -19l-153 -226q-4 -4 -14.5 -17t-14.5 -17t-11 -12.5t-11 -12.5q-2 -2 -13 -2q-10 0 -19 8t-9 21zM358 430q0 -10 10.5 -14t20.5 -4q16 0 28.5 2t28.5 4l226 10q6 0 12 10v6l51 306q0 4 2 27.5 t2 35.5v23v25t-4 28q0 4 -2 10t-8 6h-4q0 -2 -3 -4t-3 -4l-355 -461q-2 -2 -2 -6z" />
<glyph unicode="B" horiz-adv-x="972" d="M174 63v17q0 16 5 34.5t14 39.5q4 8 13 30.5t19.5 47t19.5 46t13 31.5q2 6 11.5 23.5t18.5 38t17 38t12 23.5q0 2 2.5 4t2.5 4q0 10 -5.5 16.5t-9.5 12.5q-2 0 -2 2v4q-2 2 -2 4v8v9q4 10 10 14q2 0 5.5 1t5.5 1q14 4 27.5 10t17.5 21l125 274v2q0 4 -1 10.5t-8 6.5 q-12 0 -21 -8.5t-20 -16.5q0 -4 -8 -13.5t-10 -11.5q-2 -4 -10 -4q-10 0 -15.5 8.5t-7.5 16.5q-6 6 -6 12v15v10q4 18 25.5 31.5t38.5 19.5q4 0 26.5 8t26.5 10l17 8.5t14 10.5q4 4 6 13t2 16l4 24t18 12q10 0 17 -8q2 0 10 -10t8 -12q4 -2 12.5 -10.5l10.5 -10.5 q8 -8 22 -8t25.5 4t25.5 4q18 0 38 -5t38 -9q41 -8 80 -31q18 -10 30.5 -23.5t22.5 -29.5q10 -10 20.5 -25.5t12.5 -31.5v-19q0 -23 -5 -43t-22 -41q-10 -18 -32 -37q-2 -2 -11.5 -8t-20.5 -14t-20.5 -14.5t-11.5 -8.5t-5 -4t-3 -4q-2 -2 -6 -5t-6 -5q-2 0 -4.5 -3t-4.5 -5 q0 -2 -2 -5l2 -4q2 0 7.5 -4t7.5 -6q23 -4 43 -7t39 -11q41 -16 83 -49t54 -76q4 -10 4 -19.5v-19.5q0 -47 -23.5 -81t-54.5 -62q-4 -4 -16 -13.5t-19 -13.5q-4 -4 -15 -12.5t-24.5 -18.5t-25.5 -20.5t-19 -14.5q-23 -16 -43 -24q-10 -4 -20 -8.5t-21 -8.5q-10 -6 -18 -12 t-18 -10q-6 -2 -19.5 -8t-29 -12.5t-29 -11.5t-19.5 -7q-4 -2 -20.5 -7t-34.5 -11.5t-36.5 -12.5t-26.5 -8q-4 0 -19.5 -4t-33 -9t-33 -10.5t-19.5 -7.5q-2 0 -11 -3t-19.5 -6t-20.5 -7t-12 -4q-23 -8 -43.5 -10t-40.5 -2h-21q-29 1 -29 38q0 14 17 25q4 0 10 2t10 4h6 q2 0 3.5 1t3.5 1l125 23l63 18l172 58q2 2 14.5 6t26.5 10t28.5 12t20.5 10q8 4 30.5 15.5t31.5 15.5q6 4 26.5 15.5t28.5 15.5q4 2 18.5 11t18.5 13q33 23 68.5 56t50.5 71q4 10 6 20.5t2 25.5v12q0 4 -5 12t-10 12q0 2 -7 9.5t-11 9.5q-6 8 -16.5 13t-20.5 9 q-23 10 -47.5 17.5t-46.5 11.5q-18 4 -35.5 4h-36.5h-20q-63 -6 -125 -16.5t-125 -24.5q-2 0 -5 -2t-5 -2q-18 -6 -40 -13t-36 -24q-4 -6 -12.5 -27.5t-12.5 -25.5q-2 -4 -8 -20.5t-15 -36t-17.5 -39t-12.5 -31.5q-2 -2 -2 -4q-2 -2 -2 -4v-2q-4 -6 -7 -19.5t-3 -15.5 q-2 -6 -6.5 -22.5t-9.5 -35t-10 -36t-7 -23.5q-2 -4 -4 -11t-4 -9q-4 -10 -11.5 -24.5t-17.5 -14.5h-10q-27 0 -33 30zM438 549l6 -6h15h14q4 0 14.5 2t14.5 2q47 6 92 20q82 25 158.5 72t128.5 121q6 4 6 24q0 23 -15 41q-20 23 -38.5 33t-47.5 21l-20 4t-21 2h-100 q-12 0 -29 -4q-20 -4 -36.5 -15.5t-26.5 -29.5q-4 -10 -4 -19.5t-4 -19.5l-103 -238q0 -2 -2 -4t-2 -4v-2z" />
<glyph unicode="C" horiz-adv-x="958" d="M115 109q0 25 5 48t13 46q2 6 7 20.5t11.5 29.5t11.5 29.5t7 18.5t6 13.5t4 11.5q2 6 7.5 15t10.5 20.5t10 19.5t5 10q37 68 82 128.5t98 115.5q2 4 11.5 13t18.5 18.5t17.5 17.5t10.5 12q51 49 104 93.5t113 84.5q2 2 11 8.5t21.5 13.5t22.5 13t16 11q41 27 76 38t82 11 h23q39 -4 65.5 -29t36.5 -59q8 -16 9 -31.5t1 -32.5v-24q0 -16 -5 -29.5t-9 -30.5q-12 -41 -33.5 -81t-46.5 -74q-29 -37 -56.5 -69t-58.5 -65q-10 -8 -17 -14t-20 -6q-10 0 -22 10t-12 25q0 10 6 22.5t14 20.5q4 4 11.5 14t9.5 12l108 131q0 2 9.5 14.5t13.5 18.5 q33 41 49 94q4 10 4 31v17q0 10 -8 26q-4 10 -11.5 17.5l-15.5 15.5l-4 2q-20 12 -45 12q-41 0 -82 -18.5t-76 -40.5q-8 -4 -22.5 -14.5t-18.5 -14.5l-139 -110q-4 -2 -13.5 -10.5t-20.5 -17.5t-20 -18.5t-14 -13.5l-14 -14l-21.5 -21.5l-21.5 -21.5l-14 -14 q-6 -6 -25.5 -28t-25.5 -32q-35 -45 -65 -92t-58 -100q0 -4 -5.5 -14.5t-5.5 -14.5q-4 -6 -10 -23.5t-8 -19.5q0 -2 -4 -13.5t-9 -26.5l-10.5 -31.5t-7.5 -24.5q-6 -23 -6 -45q0 -51 40 -72t85 -29q23 -4 47.5 -4h50.5h39q8 0 31 2t29 4q8 2 30.5 5.5t48 8.5t47 8t31.5 5 q6 2 30 7t50.5 11.5t51 11.5t36.5 9q2 2 15.5 5t29 8t31.5 9t25 7q23 4 40 11t35 15q16 6 27.5 16.5t32.5 10.5q16 0 27.5 -14.5t11.5 -30.5q0 -10 -5.5 -17.5t-13.5 -15.5q-12 -6 -28 -10q-4 -2 -16.5 -3t-16.5 -3l-381 -95q-4 0 -16.5 -2t-27.5 -5t-29.5 -5t-20.5 -4 q-47 -8 -94.5 -11t-96.5 -3q-35 0 -72.5 6t-71.5 21.5t-58.5 42t-32.5 67.5q-3 5 -3 10z" />
<glyph unicode="D" horiz-adv-x="876" d="M53 -94q0 16 5 24.5t16 22.5l327 905v6h-14l-6 -2q-27 -6 -49.5 -15t-46.5 -9h-13q-23 10 -22 32q0 12 16.5 20t24.5 13q6 2 18.5 6t14.5 4q10 4 31.5 8.5t25.5 6.5q6 0 23.5 3t36 6t36 6t23.5 3q8 2 34.5 5t34.5 3h23q63 0 134 -18t130 -55t97 -93.5t38 -132.5 q0 -47 -13 -88t-36 -82q-16 -35 -39.5 -65.5t-48.5 -59.5q-70 -82 -156 -143q-8 -4 -24.5 -15.5t-20.5 -13.5l-372 -219q-12 -10 -33 -16q-16 -4 -33.5 -10t-34.5 -17q-2 0 -4 -2t-2 -4q-4 -4 -11 -9t-9 -7q0 -2 -5.5 -8.5t-5.5 -8.5q-4 -2 -10 -8l-10 -10q-8 -8 -25 -8 q-20 0 -28 6q-6 8 -10.5 13t-6.5 11v15zM154 -8q0 -8 2 -8q16 0 32 10q0 2 2 2t5 2q2 2 6 2l334 178q47 27 90 56.5t84 60.5q4 6 23.5 23.5t25.5 21.5q33 31 63.5 66.5t55 75.5t39 85t14.5 92q0 18 -2 37t-8 37q-8 14 -15.5 26.5t-19.5 22.5q-12 16 -25.5 28.5t-30.5 23.5 q-39 27 -81.5 42t-90.5 23q-4 0 -14 1t-14 1h-29h-32.5t-35.5 -4q-41 -6 -61 -43q-2 -4 -7 -14.5t-7 -12.5l-72 -180q-8 -18 -12 -37.5t-13 -38.5l-24 -49q-4 -10 -11.5 -26.5t-13.5 -33t-11 -29.5t-5 -15l-66 -201q-4 -10 -16 -41t-16 -41l-2 -6q0 -4 -2.5 -12t-2.5 -11 q-2 -4 -4 -19t-6 -19v-9q-2 -2 -2 -3t-2 -3t-2 -6q-4 -12 -12 -26.5t-8 -28.5z" />
<glyph unicode="E" horiz-adv-x="1013" d="M104 14v9l13 47l110 325q0 4 4.5 14.5t4.5 12.5v8q0 10 -4.5 23.5t-4.5 27.5q0 12 7.5 14.5t17.5 6.5h6q2 0 4 2q10 4 10 12q10 16 15.5 32.5t9.5 33.5l94 264q0 2 2 10t4 12v2q0 8 -2 14.5t-2 14.5v6l2 4q8 10 29.5 25.5t36.5 15.5h4q2 -2 11 -6t11 -6h7h55q2 0 15.5 -2 t15.5 -2h10h8l293 27q4 0 19.5 1t35 2t37.5 1h29h61h66h30q18 -2 28.5 -4.5t21.5 -18.5q4 -6 5 -13t1 -14v-10q0 -8 -7.5 -17t-17.5 -9t-18 6t-17 12q-10 8 -25.5 12t-27.5 4h-121l-436 -30h-66q-4 0 -10 -8.5t-8 -12.5l-109 -237q0 -2 -10 -24.5t-14 -37.5q-6 -10 -6 -18 q0 -4 3 -6t5 -7h14q43 0 95 11q6 0 20 3t30.5 6t30 5t19.5 4l250 17h123q2 -2 4 -3h6q16 -4 32.5 -13t16.5 -30q0 -14 -8 -18q-2 -4 -9.5 -4t-11.5 -2q-4 0 -8 -1t-6 -1h-27h-24q-4 0 -14.5 1t-22.5 2t-22.5 2t-12.5 1h-41h-41q-8 0 -29.5 -1t-45 -2t-44 -3t-28.5 -2 q-4 0 -18.5 -2t-31 -4t-32 -4t-21.5 -2q-4 0 -15 -2.5t-24.5 -5.5t-24.5 -5t-18 -4q-4 -2 -23.5 -6t-29.5 -6q-4 -2 -13 -4t-13 -4q-18 -8 -27.5 -26.5t-15.5 -35.5q-2 -4 -5.5 -14t-5.5 -14q0 -2 -4 -14.5t-7 -27t-7 -27.5t-4 -17q-2 -4 -4 -11q-4 -12 -4 -14 q-4 -4 -6.5 -11t-4.5 -14q0 -2 -1 -16t-1 -18q-4 -25 -14 -48q-2 -4 -8 -20t-6 -18q-4 -12 -8.5 -22.5t-4.5 -23.5v-4q0 -4 2 -6l11 -10h18l629 63h11t26.5 1.5t32 1.5h26.5h12q20 0 40 -6.5t20 -34.5q0 -10 -4 -15q0 -4 -7.5 -7t-11.5 -3q-23 -6 -47 -6q-4 0 -8 1t-8 1 t-13.5 4t-11.5 4h-14h-17q-6 -2 -27.5 -5t-27.5 -5q-2 0 -6 -1t-6 -1l-348 -19q-55 -23 -113.5 -32t-118.5 -15q-4 0 -25.5 -1t-29.5 -1h-21h-20h-4q-12 10 -15.5 21.5t-3.5 25.5z" />
<glyph unicode="F" d="M86 -43q0 2 2 8t2 10l127 373v2q0 6 -1 11.5t-1 9.5q0 10 6 14l12 12q2 2 5.5 8.5t5.5 10.5l108 272q0 2 5 13.5t10.5 26.5t10.5 30.5t9 25.5q0 2 3 12.5t5 14.5q4 12 4 23q-4 0 -7 -2.5t-7 -4.5q-4 -4 -19.5 -13t-19.5 -13q-14 -10 -31 -10q-12 0 -23 10t-11 22 q0 6 3 10.5t7 8.5q25 20 54.5 33.5t57.5 29.5q27 8 41 25q12 12 17 33q0 2 3 13t7 22.5t7 21.5t3 14q6 20 21 31q0 2 10 2q23 0 35 -16q2 -2 2 -11v-6q0 -2 -3 -8t-3 -10q-4 -4 -9.5 -21.5t-9.5 -21.5v-4l275 108q4 4 30.5 11.5t36.5 9.5q33 10 65 15t60 11h4q4 4 5 7.5 t6 3.5h10h10q4 -4 7 -5.5t7 -5.5q0 -2 3.5 -5t3.5 -5l4 -2v-16v-9.5t-2 -9.5l-7.5 -15t-9.5 -15q0 -2 -5 -7.5t-7 -5.5q-10 -6 -19 -6q-16 0 -21 8t-15 17h-7q-18 0 -36.5 -2t-36.5 -7q-2 0 -11.5 -3t-13.5 -5q-8 -2 -22.5 -5t-18.5 -5q-6 -2 -17 -5t-22.5 -8t-21.5 -8.5 t-13 -5.5q-8 -2 -23 -8l-32.5 -13t-32 -13.5t-20.5 -8.5q-6 -4 -22.5 -12t-36 -17t-38 -17.5t-24.5 -10.5q-10 -8 -20.5 -14t-16.5 -17l-10 -20l-127 -320l-27 -79v-5q23 6 48.5 15.5t48.5 21.5q6 2 26.5 12.5t43 22.5t43 23.5t26.5 13.5q8 2 30.5 12t47 20.5t47 20.5 t33.5 15l21 7t31.5 11t32 11t21.5 7q4 0 17.5 5.5t19.5 5.5q14 4 27.5 7t27.5 3h11q6 0 15 -6t11 -10t3 -14.5t1 -14.5v-6q0 -16 -10 -21l-4 -2h-49q-2 0 -9.5 -1t-11.5 -3q-20 -4 -37.5 -7t-35.5 -9l-16.5 -5.5t-21 -7.5t-18.5 -7t-10 -3l-166 -67q-4 0 -20.5 -8.5 t-37 -18.5t-41 -20.5t-32.5 -16.5q-2 0 -11 -5t-19.5 -10t-20.5 -11.5t-15 -8.5l-61 -37q-8 -8 -16.5 -16t-12.5 -18q-2 -2 -7 -13.5t-9 -15.5q-2 -2 -2 -4q-2 -2 -2 -4v-2q-2 -4 -5 -13.5t-3 -11.5l-80 -283q-2 -4 -6 -16t-4 -16q-2 -4 -4.5 -9.5t-4.5 -5.5l-6 -6t-4 -6 q-6 -2 -20 -2h-9q-12 4 -16 13.5t-4 19.5v8z" />
<glyph unicode="G" horiz-adv-x="1204" d="M113 43v27q0 63 18.5 123.5t42.5 115.5q4 8 15.5 30.5t15.5 27.5q2 6 10 19t17.5 28.5t17.5 29t10 17.5q6 6 17.5 23.5t24.5 36t24.5 34.5t17.5 23q4 6 17.5 22t30 35.5t31.5 37t21 25.5q2 2 11.5 12.5t19.5 22.5t20.5 23.5t16.5 15.5l19.5 19.5t21.5 19.5q4 4 20.5 19.5 t22.5 21.5q10 6 14 12q4 2 11.5 4t11.5 6l6 5q23 29 46.5 51t51.5 45q2 0 11.5 7t22.5 17.5t26.5 19.5t21.5 15l2 4q4 4 14.5 10.5t12.5 6.5q2 2 14 8t25.5 12t26 12.5t16.5 8.5q2 0 11 4t9 6h4l2 2q10 2 19.5 2h19.5h23q10 0 17 -3t18 -5q70 -25 69 -103v-12v-6q0 -2 -1 -2 t-1 -2v-2q-6 -18 -17 -36.5t-34 -18.5q-27 0 -27 24q0 4 2 10q2 4 7.5 13.5t5.5 13.5q6 12 6 25q0 10 -14 28q-10 8 -26.5 10.5t-29.5 2.5q-29 0 -55.5 -10.5t-48.5 -24.5q-4 -2 -18.5 -10.5t-18.5 -12.5t-17.5 -12t-13.5 -10q-6 -4 -18 -13.5t-24.5 -18.5t-23 -16.5 t-12.5 -9.5q-8 -8 -25.5 -22.5t-34.5 -29.5t-31.5 -28.5t-16.5 -17.5l-166 -168l-33 -35q-2 0 -2 -2v-4q-4 -8 -8 -15t-10 -16q-4 -2 -8.5 -4t-6.5 -6l-94 -145q-4 -4 -17.5 -27.5t-17.5 -34.5q-53 -96 -84 -207q0 -4 -6 -10q-8 -10 -8 -24.5v-24.5v-18q0 -16 10 -31 q12 -18 33 -31.5t45.5 -22t49 -12.5t44.5 -4q10 -2 22.5 -2h22.5q31 0 61 5t56 12q8 4 34 9t32 9q63 18 125.5 41t121.5 51q45 23 87.5 45.5t80.5 48.5q4 4 14.5 11.5t14.5 9.5q4 4 13.5 11t9.5 9q4 2 12 11.5t12 13.5q6 4 8 20.5t2 26.5q0 47 -26 76l-10 10q-4 8 -11 8 q-4 4 -19 18.5t-20 16.5q-10 10 -21 12t-24 2q-59 0 -115.5 -17t-115.5 -17h-10q-2 0 -8.5 1t-8.5 1q-14 2 -21 12t-7 22q0 18 17 29.5t32 16.5q66 16 127 16h67q6 0 28 2t28 4l219 10h28q27 0 50.5 -1t42.5 -23q10 -10 10 -25q0 -14 -14 -24q-6 -4 -15.5 -5.5t-15.5 -1.5 h-15q-2 0 -10 1t-19 2.5t-20.5 2.5t-11.5 1h-14q-15 0 -33.5 1t-38.5 2t-33 1h-2l-2 -2l2 -4q6 -16 16.5 -26.5t20.5 -27.5q29 -39 29 -86q0 -10 -1 -19t-3 -20q-4 -10 -5.5 -16t-5.5 -16v-2q-20 -33 -47.5 -55.5t-58.5 -43.5q-6 -4 -21.5 -14t-19.5 -12l-205 -109l-12 -4 q-4 -2 -21.5 -9t-39 -14.5t-42 -15.5t-30.5 -10q-8 -2 -39 -10.5t-43 -12.5q-43 -10 -85 -16t-87 -6h-31q-16 0 -31.5 2t-31.5 6q-53 12 -105.5 41t-62.5 90z" />
<glyph unicode="H" d="M102 27q0 18 7 36q4 10 10 30t6 22l61 155q0 2 3.5 12.5l7.5 22.5t8 25.5t8 19.5l14 58q0 4 1 11t5 11q0 4 1.5 8t1.5 6v2v3q-2 2 -5.5 7t-5.5 9v10v6q0 4 4 7.5t9 5.5q2 2 7 5t9 3q12 18 22.5 38.5t20.5 39.5q2 4 6 15t6 13q4 14 14.5 40t12.5 30l96 330q2 2 11.5 27.5 t13.5 39.5q0 8 6 15q8 2 18 2h4q14 -2 23 -17q0 -2 1 -3t1 -3t2 -4v-10q0 -12 -3 -25.5t-7 -23.5l-66 -158l-76 -217q0 -4 -5 -21.5t-9 -21.5q0 -4 -3 -18.5t-5 -20.5q-4 -12 -4 -21.5v-21.5h53l256 37q4 0 37 7t49 11q4 0 12.5 2t12.5 4q4 0 10 2t10 4v2l19 56l75 358 q8 16 11 23q10 16 30 16q14 0 29 -18q6 0 6 -11v-4q0 -4 -2 -9t-4 -11q0 -4 -5 -16.5t-11.5 -25.5t-11.5 -25.5t-5 -14.5q-2 -2 -2 -4t-2 -4q-2 -4 -2 -6l-49 -199q-2 -4 -4 -20.5t-4 -22.5q-2 -4 -3 -18.5t-1 -18.5v-16v-19q4 -10 8 -17t4 -18q0 -16 -14.5 -16t-22.5 -10 q-2 0 -2 -2v-4q0 -4 -3 -15.5t-3 -13.5l-109 -399q0 -2 -4 -14.5t-9 -28t-10 -30.5t-7 -24q-2 -4 -8 -19t-9 -22q-8 -8 -16 -8q-33 0 -39 29v14q0 20 4 31q4 8 14.5 34.5t14.5 33.5l96 307q0 4 5 19.5t5 23.5q10 41 10 78v2h-2l-127 -25l-221 -29q-8 -2 -13 -5t-15 -3 q-12 0 -22.5 3t-23.5 3h-10q-6 -4 -9 -10t-7 -10l-57 -191q-4 -8 -12.5 -30.5t-12.5 -30.5q-6 -16 -6 -30.5t-4 -31.5q0 -10 -4 -14q0 -2 -3.5 -4t-3.5 -4h-2v-2q0 -2 1 -7t1 -7l-2 -7q-8 -16 -13 -41.5t-21 -33.5q-4 -4 -13 -4q-16 0 -32 20q-6 8 -7 25z" />
<glyph unicode="I" horiz-adv-x="638" d="M-8 24.5v14.5t3 18.5t13 12.5h96h39q4 0 10.5 1t10.5 1h6q2 0 3 1t3 1t8 1t11 1q4 2 11 3t7 5l389 784q2 4 5 13.5t7 15.5q2 2 5.5 10t5.5 13v6q0 4 -9 4q-4 0 -20 1t-21 1h-79q-12 2 -23.5 4t-21.5 12l-2 4v2v23v2q0 2 1 2t1 2q12 12 24 14h17q29 0 54 -5t54 -5 q39 0 77 4t73 8h45h43q23 -4 47 -13t24 -38q0 -12 -5 -24.5t-19 -12.5q-12 0 -21.5 7.5t-19.5 9.5q-16 8 -31.5 9t-32.5 1h-22.5t-24.5 -2q-14 -2 -26.5 -6t-22.5 -19l-199 -379q-4 -8 -8 -15t-6 -15q-2 -4 -7 -22.5t-7 -22.5q0 -2 -4 -10.5t-9 -12.5q0 -2 -5 -10t-11 -18.5 t-11 -19.5t-5 -11q-2 -2 -3 -5t-3 -8q-2 -4 -7 -8q-2 -8 -10 -32.5t-10 -32.5q-2 -4 -12 -15l-5 -4q-2 -2 -4 -5t-4 -5q-2 -6 -9 -23.5t-14 -37t-15.5 -37t-10.5 -23.5q-2 -4 -6 -18.5t-6 -22.5q-2 0 -2 -2v-4q6 -4 15 -5t16 -1q4 0 13 -1t11 -1h14q23 0 44.5 1t44.5 1h30 q2 0 7.5 -1t9.5 -1h20q16 -4 32.5 -11t16.5 -26q0 -18 -11 -27.5t-28 -9.5q-16 0 -32.5 6.5t-32.5 8.5q-8 0 -35 1t-33 1h-49h-39l-229 -19h-68q-2 0 -4 2t-3 2t-3 2q-6 6 -6 10.5z" />
<glyph unicode="J" horiz-adv-x="708" d="M49 98v4q0 6 2 11q8 18 31 18h10q0 -2 2 -2t4 -2q4 0 9.5 -5t9.5 -7q0 -2 2 -2l2 -2q4 -2 17.5 -12.5t15.5 -14.5q39 -27 80.5 -44t89.5 -17q47 0 87 26.5t68 59.5q27 27 48.5 56.5t39.5 59.5q2 6 10.5 17.5t15.5 24t14 23.5t9 15q6 10 16.5 30.5l21 41t18.5 38t10 21.5 l98 230l107 309q0 2 3 7t3 7v4q0 2 2 2q2 6 5 31t5 29q0 4 2 13t4 13l4 9q2 4 3 8q2 2 6 10t4 12q4 4 11 4h15q16 0 22.5 -11t6.5 -26v-8q0 -2 -4 -14q-2 -4 -6 -17.5t-8 -28.5t-8.5 -29.5t-6.5 -20.5q-2 -4 -3 -8.5t-3 -6.5t-8 -11t-8 -9v-4v-21q0 -2 -1 -6t-3 -4 q-2 -4 -9.5 -20.5t-9.5 -20.5l-78 -211q-2 -23 -8 -42l-12 -38q-4 -10 -13.5 -30.5t-11.5 -24.5l-108 -207q-4 -4 -13.5 -21.5t-15.5 -25.5q-4 -4 -16.5 -24.5t-26.5 -43t-27.5 -43t-15.5 -26.5q-10 -14 -18.5 -26.5t-18.5 -24.5q-33 -41 -84 -72t-104 -31 q-72 0 -139.5 26.5t-120.5 72.5q-2 2 -6.5 5t-6.5 7q-4 2 -8 6q-4 8 -4 14z" />
<glyph unicode="K" horiz-adv-x="786" d="M104 88v4l29 72l250 751q2 4 7 29t9 35q2 4 6.5 23.5t4.5 27.5q2 4 4 20.5t2 20.5t2 16.5t2 14.5q0 12 16 20h13q14 0 29.5 -8t15.5 -24q0 -10 -4.5 -15.5t-10.5 -13.5q-2 -4 -2 -11.5t-2 -11.5q0 -4 -3 -15t-3 -13q-4 -20 -8 -27q-2 -6 -7 -22.5t-12.5 -33t-14.5 -31.5 t-9 -22l-2 -4v-26v-6t-2 -9q-2 -2 -3 -8t-3 -10q-2 -6 -8.5 -20.5t-13.5 -31t-13 -30.5t-8 -20l-5 -11q-4 -10 -8 -21t-4 -20q0 -4 1 -8t5 -4l191 150l119 84q2 0 18 11t25 15q2 0 7 3t7 5q23 10 47.5 21.5t48.5 11.5q33 0 33 -26q0 -25 -19 -31q-20 -2 -36 -10l-37 -18.5 t-39 -18.5q-88 -51 -171 -109.5t-155 -136.5q0 -8 4 -8l305 -451q0 -2 10.5 -18.5t14.5 -26.5q4 0 6 -4t4 -6q4 -10 10.5 -22.5t6.5 -22.5t-2 -14q-4 -8 -11.5 -17.5t-17.5 -9.5h-8h-13q-8 2 -14 10t-10 17q-2 4 -3 13t-3 13l-74 146l-37 59l-158 221q-2 0 -15 17.5 t-21 25.5q-10 12 -20.5 22.5t-22.5 20.5q-4 0 -5 -2q-8 -14 -16 -43q0 -4 -3 -15.5t-7 -25.5t-7 -25.5t-3 -15.5l-80 -219q-10 -25 -15.5 -52.5t-9.5 -53.5q0 -2 -2 -15.5t-2 -17.5q0 -2 -1 -4t-1 -4v-7q-4 -8 -15.5 -13t-19.5 -5q-33 12 -33 45z" />
<glyph unicode="L" horiz-adv-x="638" d="M78 4v4l131 320l168 510q2 8 8 30.5t14.5 47t14.5 46t10 31.5q0 4 2 12.5t4 10.5q6 18 25 18q29 0 34 -24v-11q0 -23 -6 -41l-75 -182q0 -2 -1 -4t-1 -6l-3 -6q-2 -4 -4 -11.5t-2 -9.5q-2 -4 -1 -11t-3 -13q-4 -10 -10 -20.5t-10 -20.5l-113 -342l-74 -187q-4 -2 -7 -15 t-5 -19q-2 -2 -3 -10.5t-3 -12.5t-3 -10t-1 -8v-2q0 -4 4 -6.5t8 -2.5h4l125 13l328 57l98 14h31l4 -2q20 -10 20 -32q0 -31 -28 -37q-10 0 -39 -1t-37 -1q-6 0 -19.5 -1t-17.5 -1l-418 -76q-2 0 -12 -1t-23.5 -2t-27.5 -3t-23 -2q-2 0 -11 -1t-11 -1h-13h-12l-2 4 q-6 4 -10 10z" />
<glyph unicode="M" horiz-adv-x="1028" d="M115 27q0 12 2 24t6 23l35 100l139 311l45 101l82 186q0 2 2 6t2 6q8 18 14.5 38t10.5 40q0 2 2 14.5t5 24.5t5 23.5t2 15.5q2 12 5 25.5t15 21.5l2 2h5h20q14 -10 24.5 -15t26.5 -5l19 -19l-74 -534v-39l4 -2l182 219l222 303l67 98q4 10 13.5 19.5t19.5 17.5h10h6 q12 -2 17.5 -18.5t5.5 -24.5q0 -10 -2 -19t-2 -20q0 -2 -1 -5t-1 -7v-10l-2 -2l-224 -852v-13v-2q0 -10 2 -20t2 -21q0 -37 -36 -36q-25 0 -35 16l-2 2v23l26 79l154 615q4 10 13 40.5t12 41.5q6 27 12 52.5t6 53.5h-2l-10 -10l-4 -6q0 -4 -6.5 -14.5t-8.5 -12.5q0 -4 -3 -6 t-5 -6q-2 -2 -10 -11.5t-10 -11.5l-244 -346q-4 -4 -15.5 -16t-23.5 -26.5t-22.5 -27t-14.5 -18.5q-2 -2 -7 -8t-7 -10q-20 -29 -37 -57.5t-35 -55.5q-2 -2 -11 -12t-14 -14q-4 -6 -10 -7q-12 0 -19 10.5t-9 20.5v39v39q0 6 1 18.5t2 26.5t3 25.5t2 15.5l39 264q0 2 1 20.5 t3 28.5q0 4 1 13.5t1 11.5v20v17q-2 2 -2 4v4l-2 4h-2v-2l-291 -694q-4 -12 -6 -25.5t-6 -23.5q-2 -4 -5.5 -18.5t-3.5 -18.5q-4 -10 -7 -16.5t-7 -16.5q-10 -16 -25 -16h-8q-4 0 -7 4t-7 6q-10 12 -10 37z" />
<glyph unicode="N" horiz-adv-x="854" d="M123 59q0 10 1 21.5t9 21.5q10 10 21.5 19.5t17.5 23.5l262 662q2 4 4 10q4 12 6 17v8v41q0 10 9 22q6 10 19 12.5t24 2.5q10 0 19 -2.5t17 -12.5q2 -2 3 -8q0 -16 -11 -33q0 -2 -1 -4t-1 -4t-2 -4v-29l82 -524q0 -4 3 -15.5t6 -25.5t6.5 -27.5t5.5 -21.5q0 -2 4 -19.5 t8 -27.5q0 -4 1 -5t1 -3l4 6l201 714q2 6 8 20.5t12 31t10.5 31t6.5 20.5q2 2 3 7t1 9q2 4 6 21.5t6 21.5l2 2q6 4 13.5 8.5t17.5 4.5q16 0 21 -10.5t5 -24.5q0 -10 -3 -21.5t-7 -21.5l-57 -137l-49 -183q-2 -4 -4.5 -19.5t-4.5 -19.5q0 -4 -2 -10t-2 -8l-39 -109 q-8 -23 -9 -45t-9 -43l-41 -120q-6 -16 -9 -33t-7 -33q0 -2 -3 -10t-7.5 -17.5t-7.5 -17.5t-3 -10q-4 -10 -3 -20.5t-1 -20.5q0 -6 -2 -25.5t-4 -25.5q-4 -18 -11 -42t-32 -24q-16 0 -27.5 17.5t-17.5 29.5q-2 4 -9.5 18.5t-9.5 18.5t-2 14l-8 101l-88 530q0 2 -1 7t-1 7 l-2 5q-2 -4 -4 -5.5t-2 -3.5q-4 -8 -12.5 -24.5t-12.5 -18.5q-4 -10 -12 -26.5t-16.5 -34t-15.5 -29.5t-7 -14l-182 -490q-6 -4 -6 -12q0 -2 -2 -7t-2 -9q0 -2 -2 -15.5t-2 -15.5q-2 -16 -9.5 -28.5t-21.5 -12.5q-25 0 -32 18.5t-7 38.5z" />
<glyph unicode="O" horiz-adv-x="956" d="M100 135q0 31 9.5 60.5t21.5 58.5q2 6 10.5 22.5t17.5 36t17 37t12 23.5q2 6 10.5 20.5t18.5 31.5t19.5 32.5t13.5 23.5q4 6 14 20.5t21.5 31t20.5 31t13 20.5q4 4 15.5 19t25 31.5t24.5 33t17 22.5q29 35 58.5 66.5t62.5 60.5q16 18 34.5 33.5t39.5 32.5q39 31 85 55.5 t97 36.5q12 2 24.5 3t24.5 1h21q18 -4 31.5 -14.5t25.5 -22.5q2 -4 16.5 -18.5t16.5 -18.5q2 -2 12.5 -11t20.5 -20.5t19 -20.5l11 -11q45 -45 56 -111v-14v-27q0 -61 -18.5 -118.5t-50.5 -108.5t-73 -96t-86 -84q-8 -4 -29.5 -21.5t-29.5 -25.5q-4 -4 -19.5 -14.5 t-19.5 -12.5q-6 -4 -20.5 -13.5t-29.5 -19.5t-27.5 -18t-14.5 -11q-6 -4 -19.5 -11t-27.5 -15t-27.5 -16.5t-19.5 -12.5q-4 -2 -26.5 -11t-33.5 -13q-53 -25 -109.5 -40.5t-115.5 -15.5q-31 0 -60.5 6.5t-51 20.5t-35 37.5t-13.5 58.5zM158 121q2 -18 14 -28.5t28.5 -15.5 t34 -6t31.5 -1q53 0 107.5 14t101.5 37q80 33 148 76q66 41 124 88t111 102q2 4 9 9t10 10q51 57 90 125.5t39 146.5q0 53 -17.5 92t-62.5 70q-8 4 -34 22.5t-34 22.5q-12 4 -20 4q-10 0 -17.5 -2t-13.5 -2q-16 0 -22.5 10t-20.5 10h-10q-10 -6 -20.5 -11t-20.5 -9 q-6 -4 -21.5 -13.5t-19.5 -11.5q-4 -4 -25.5 -19.5t-32.5 -21.5q-2 -2 -9 -6t-7 -6q-8 -8 -13 -13.5t-12 -15.5h-2q-4 -4 -8 -6t-6 -4l-37 -37q-2 -2 -12 -10t-12 -10q-16 -18 -36 -39t-38 -43q-4 -4 -12.5 -15.5t-17.5 -23.5t-18 -22.5t-12 -12.5q-4 -6 -14 -22.5 t-21.5 -33t-21.5 -31.5t-14 -22q-2 -4 -10.5 -17t-17.5 -28.5t-17 -30t-10 -20.5q-4 -4 -16.5 -28.5t-18.5 -34.5q-16 -31 -29.5 -72t-13.5 -78v-16z" />
<glyph unicode="P" horiz-adv-x="794" d="M111 -70q0 16 4 33t8 33q2 4 5 16.5t5 16.5l78 200q2 4 5 11.5t5 11.5v10q0 2 -8 14q-2 4 -4 8.5t-2 10.5q0 8 6 14t12 10q4 4 11.5 6.5t9.5 6.5t5 11t5 7l127 338q2 2 6 15.5t10.5 30t11.5 32.5t7 27q2 6 6 20t4 16v11v10q0 8 -17.5 8t-23.5 12q-4 4 -6 9q-2 2 -4 6v4 q0 12 12 19t23 12q4 2 19 5t18 5q10 4 15 12t9 16q4 4 7 9.5t7 9.5q4 0 9.5 1t9.5 1h2q10 0 13 -5t9 -9h15h16q2 0 13.5 1t24.5 2t23.5 2t14.5 1h29h32q16 0 33 -4t33 -9q72 -23 125 -71.5t53 -130.5q0 -41 -16.5 -78t-42 -70t-57 -60.5t-60.5 -49.5q-59 -41 -118.5 -74 t-123.5 -64q-10 -4 -35.5 -15t-35.5 -15t-22.5 -7.5t-22.5 -9.5q-16 -14 -21.5 -29.5t-32.5 -15.5q-10 0 -19 4t-20 4q-10 0 -10 -2q-20 -16 -31.5 -39.5t-21.5 -48.5q0 -6 -6 -22.5t-10 -20.5q0 -2 -2.5 -12t-4.5 -14q-4 -16 -4 -25q0 -6 1 -10t1 -10q0 -10 -2 -19.5 t-4 -19.5q0 -2 -4 -9.5t-6 -11.5q0 -4 -3 -10t-3 -8l-17 -33q-6 -10 -22 -30.5t-33 -20.5q-22 0 -22 20zM315 342q2 0 4.5 1t4.5 1q14 4 39.5 10t29.5 8q8 2 38 12.5t38 14.5q61 25 121.5 55.5t114.5 71.5q45 31 82.5 68t66.5 84q14 23 26.5 50t12.5 54q0 41 -22.5 70.5 t-56.5 49t-74 29t-72 9.5h-15q-4 0 -11 -1t-9 -1q-25 0 -51.5 -4t-49.5 -15q-2 0 -6 -2t-6 -2q-8 -6 -10 -13t-6 -18q-6 -25 -17 -45q-8 -8 -8 -14l-98 -299l-55 -129q0 -2 -2 -10t-5 -12q-4 -12 -4 -23z" />
<glyph unicode="Q" horiz-adv-x="1204" d="M162 145q0 78 30.5 154t69.5 141q35 57 76 107.5t82 99.5q2 2 7 8.5t12 13.5t13.5 14t8.5 9q78 78 162 144.5t180 119.5q35 20 73.5 36t79.5 26q39 8 84 8h25q2 0 6 -1t8 -1q35 -4 63.5 -21.5t47.5 -46.5q12 -18 16 -36v-18.5t4 -18.5q2 -6 9.5 -19.5t14.5 -28t13 -27.5 t8 -20q33 -53 37 -116v-31v-31q0 -2 -1 -8t-1 -8q-8 -53 -27.5 -100.5t-48.5 -92.5q-4 -12 -8 -22t-10 -21q0 -2 -4 -8t-6 -8q-37 -57 -96 -106q-23 -23 -49.5 -44.5t-53.5 -39.5q-4 -4 -20.5 -13.5t-20.5 -13.5q-6 -4 -29.5 -17.5t-29.5 -17.5l-2 -2q4 -4 18.5 -22.5 t18.5 -22.5q31 -41 60.5 -83t53.5 -85q2 -4 5 -14.5t8 -14.5q6 -12 6 -24q0 -23 -21 -31h-2q-2 0 -4 2t-4 2q-4 0 -9 1t-7 1q-20 4 -27 13q-6 10 -7 20t-1 23l-2 4q-6 18 -15.5 34.5t-19.5 32.5q-4 6 -17.5 26.5t-17.5 26.5q-16 23 -32.5 44.5t-34.5 39.5h-3l-4 -2 q-8 -2 -26.5 -9t-39 -16t-38.5 -16.5t-25 -9.5q-4 -2 -16 -6t-25.5 -9t-26 -8t-18.5 -5q-47 -14 -93 -21.5t-95 -7.5q-47 0 -94 10t-84 32.5t-60.5 59.5t-23.5 92zM217 154q0 -45 19.5 -73t51 -43t69.5 -21.5t75 -6.5q94 0 183.5 28t175.5 62l4 2q2 0 4 2v7q-12 14 -25 26 l-21.5 21.5t-17.5 19.5t-17 20.5t-16 16.5l-96 80q-2 0 -15 13.5t-20 19.5q0 2 -6 8v2v10q0 27 31 27h10q4 -2 8 -5t11 -8l13 -13t11 -9l185 -190l4 -5q2 -2 6 -2q8 -8 14 -8q10 0 18.5 4t16.5 8q4 4 23.5 17.5t23.5 17.5q2 2 8 4t8 4q6 4 19.5 13.5t15.5 11.5 q4 2 20.5 14.5t20.5 16.5q4 2 12.5 9t10.5 9q53 51 95 110.5t64 127.5q12 35 20.5 70.5t8.5 76.5v23q-2 0 -2 2v4v4q-2 2 -2 7t-2 9q-2 6 -2 11q-16 57 -37 100q-4 6 -13 21.5t-20 15.5q-6 0 -9 -3t-9 -3q-10 0 -16.5 7t-6.5 17v10l2 5v4q0 10 -16 21t-27 16q-2 2 -10 5 t-18.5 7t-19.5 8t-11 4q-4 2 -15.5 7t-15.5 7q-2 0 -4 3.5t-4 3.5h-14q-33 0 -57.5 -12.5t-51.5 -26.5q-4 -4 -12 -8.5t-10 -4.5q-6 -4 -12.5 -3t-12.5 -3q-14 -6 -25.5 -13t-23.5 -17q-10 -6 -28.5 -20.5l-37 -29t-35 -27t-20.5 -14.5q-6 -4 -18.5 -13t-26.5 -19.5 t-27.5 -20.5t-17.5 -14q-8 -6 -31.5 -28.5t-31.5 -31.5q-92 -88 -156 -191t-103 -226q-6 -20 -11 -42.5t-5 -45.5z" />
<glyph unicode="R" horiz-adv-x="911" d="M133 33v2l39 82l246 676q2 2 7 21.5t9 29.5q0 4 2 10t2 8v8q0 14 -4 25.5t-4 24.5v8q6 16 29.5 22t36.5 8q20 4 38.5 5.5t40.5 1.5q43 0 102.5 -9.5t114 -32t92.5 -61.5t38 -98v-17.5t-4 -17.5q-14 -59 -59.5 -95t-96.5 -56q-59 -29 -118.5 -49.5t-121.5 -36.5 q-8 -4 -8 -9q0 -4 5 -6t7 -4l62 -31q2 -2 9 -4t9 -4q0 -2 2 -2h4q102 -63 190.5 -146t160.5 -184q2 -2 10 -15t12 -17q10 -16 16.5 -29.5t6.5 -32.5v-12v-8q-12 -18 -33 -19q-16 0 -29 15q-8 10 -9 25.5t-7 29.5l-2 2q-10 16 -18.5 31.5t-20.5 31.5q-35 47 -73 91.5 t-85 80.5q-20 16 -41.5 31t-40.5 31q-2 2 -6 4t-6 4q-2 4 -11.5 12.5t-13.5 12.5q-4 2 -17 8t-28.5 13t-29 14.5t-19.5 9.5q-29 14 -67.5 24.5t-73.5 10.5q-10 0 -20.5 -3.5t-14.5 -13.5l-57 -160v-28q-2 -2 -2 -4v-4q-4 -16 -9 -29q-2 -4 -6 -15.5t-9 -24.5t-10 -24.5 t-5 -13.5q-2 -2 -6.5 -16.5t-8.5 -22.5q-4 -10 -4 -19.5t-2 -23.5q-4 -20 -22.5 -34.5t-36.5 -14.5q-31 0 -31 33zM387 526l4 -4h8q37 0 78 10q10 4 35 9.5t29 7.5q53 16 102 34.5t98 45.5q23 12 43.5 24.5t38.5 28.5q14 16 28.5 33.5t14.5 40.5q0 31 -24 59q0 2 -1 4t-1 4 q-12 10 -21.5 19.5t-23.5 19.5q-33 20 -70 29.5t-74 13.5q-6 0 -27.5 2t-27.5 2h-18h-21q-10 -4 -20.5 -11t-18.5 -13q-4 -2 -9 -9.5t-7 -7.5q0 -2 -3 -8t-3 -8q-4 -10 -13.5 -31.5t-11.5 -25.5l-76 -213q0 -4 -4 -17.5t-4 -17.5v-10v-11z" />
<glyph unicode="S" horiz-adv-x="878" d="M-10 104v9q0 6 10 12q14 8 31 8q2 0 18 -4q6 -2 24.5 -8t38 -13.5t38 -12.5t24.5 -7q131 -39 275 -39q92 0 183 16.5t167 69.5q18 14 33.5 28.5t31.5 31.5q2 2 11.5 14t13.5 18q16 16 16 31q0 35 -9 67.5t-28 61.5q-2 2 -2 4t-2 4l-4 4q-25 23 -49.5 43.5t-52.5 38.5 q-20 10 -41 17.5t-43 13.5q-4 2 -13.5 6t-13.5 4l-194 66q-4 2 -14.5 5t-23 8t-23.5 9t-17 6q-2 4 -17.5 11.5t-25.5 11.5q-23 12 -47.5 32.5t-24.5 49.5q0 33 27.5 59.5t54.5 42.5q4 4 15.5 11.5t15.5 9.5q2 4 15 12t18 8q131 68 270 101q2 0 16.5 3t20.5 5h4q2 0 2 1t2 1 h6q2 0 6 2h86q2 0 12.5 -1t14.5 -3q31 -6 61.5 -17.5t53.5 -35.5q10 -10 12 -21.5t2 -24.5v-10v-6q-6 -16 -16.5 -30.5t-30.5 -14.5t-35 14v11q0 4 4 16q0 4 3 6t3 4l2 4q0 6 -6 12.5t-10 10.5l-4 4q-27 16 -53.5 19.5t-57.5 3.5q-29 0 -60.5 -3.5t-60.5 -11.5q-4 -2 -16 -5 t-16 -3q-10 -4 -30 -10t-24 -8q-2 0 -12 -5.5t-22.5 -10.5t-25.5 -10t-22 -7q-6 -6 -14 -6q-10 -6 -32.5 -18.5t-26.5 -12.5q0 -2 -12.5 -8t-18.5 -11l-4 -4q-2 -2 -4 -2q-4 -4 -11.5 -9t-9.5 -5q0 -2 -5 -7t-9 -7q-12 -16 -12 -29q0 -10 10 -19.5t18 -13.5q6 -4 17.5 -9 t13.5 -5l287 -100q4 0 26.5 -11.5t30.5 -13.5q43 -20 85 -46t75 -59.5t52.5 -75.5t19.5 -93q0 -41 -15.5 -75t-41 -60.5t-58.5 -47t-68 -35.5q-41 -20 -85 -31.5t-89 -21.5q-29 -6 -50.5 -8t-49.5 -6q-2 0 -5 -1t-7 -1h-9h-49h-43q-4 0 -28.5 2t-34.5 4q-4 0 -18.5 2 t-18.5 2t-23.5 4t-25.5 6q-4 2 -22.5 6.5t-22.5 6.5q-4 0 -19.5 3t-32 6t-32 6t-19.5 3q-2 0 -14 3t-17 5q-4 0 -9 3t-7 3q-4 2 -9 4t-7 2q-6 6 -15 7q-10 8 -18 14t-8 20z" />
<glyph unicode="T" horiz-adv-x="747" d="M203 881q0 23 16 24l457 41q8 6 14 12.5t15 6.5h8q2 0 7 -3.5t9 -3.5h72l342 17h69q31 0 31 -39v-8q-6 -23 -33 -23h-30h-25q-4 0 -16.5 1t-27.5 1t-27.5 1t-14.5 1q-6 0 -33.5 1t-38.5 1h-43h-63.5t-59.5 -2q-6 0 -21 -1t-19 -1q-6 0 -15 -2q-16 -4 -18 -4t-4 -1t-4 -1 h-7q-4 -2 -6 -6l-4 -8q-14 -25 -22 -47l-41 -111l-264 -559q-2 -4 -10.5 -25.5t-12.5 -29.5q-14 -37 -27.5 -74t-31.5 -72q-2 -2 -4.5 -7l-4.5 -9q-4 -8 -10 -14.5t-16 -6.5q-16 0 -27.5 10.5t-11.5 26.5q0 29 14.5 52.5t26.5 48.5q2 2 5 8t5 8q2 4 2 9t4 9q8 14 15.5 26.5 t15.5 25.5l194 397l86 209l44 119v4q0 4 -3 4q-6 2 -14 2h-14h-21q-8 0 -25.5 -2t-19.5 -2l-256 -35q-4 0 -19.5 -1t-21.5 -1h-22h-23q-12 4 -16 13t-4 20z" />
<glyph unicode="U" horiz-adv-x="911" d="M143 -8q0 27 3.5 52.5t7.5 47.5q4 10 8 30.5t6 24.5l313 857q0 2 6.5 16t10.5 20q2 4 6 13.5t6 11.5l2 2q0 4 2 4h2h27h4q18 -8 18 -31q0 -4 -4 -16q0 -2 -4 -8t-4 -8q-4 -8 -13.5 -27.5t-19.5 -41t-20.5 -40t-14.5 -27.5l-98 -256l-29 -81q-4 -6 -11 -23.5t-14 -36 t-15.5 -35t-10.5 -22.5q-4 -10 -13 -35t-11 -31l-56 -186q-4 -2 -5 -8t-1 -11q-6 -35 -9 -69.5t-7 -69.5v-4v-6q0 -2 2 -2t2 -1t2 -1q4 -4 16 -4q10 0 19.5 5t17.5 9q31 18 57.5 40t51.5 44q4 4 20.5 21.5t20.5 21.5t12 13.5t16.5 18.5t15.5 17t11 10q4 6 15.5 20.5t23.5 30 t22.5 29t14.5 19.5l15 22.5t24.5 36t26 36.5t16.5 24q4 6 13 20t19.5 31.5t18.5 34t12 22.5q2 6 9.5 19.5t15.5 29t15 29.5t11 20q2 2 6.5 11.5t8.5 19.5t9 20.5t7 16.5q2 4 6 13.5t4 13.5q4 10 12.5 32.5t8.5 26.5l51 186l20 60q4 16 16.5 28.5t29.5 12.5q23 0 30 -19v-12 q0 -47 -22 -96q-2 -2 -7.5 -14.5t-12.5 -26t-12 -26.5t-7 -15q-8 -14 -12 -33q0 -4 -2.5 -21.5t-4.5 -21.5t-3 -7t-5 -7q0 -2 -4 -6.5t-6 -6.5v-2q-2 -4 -3 -10t-3 -10q-2 -8 -6 -12q-2 -6 -7.5 -24.5t-7.5 -27.5q-2 -10 -8 -37.5t-14 -58.5t-15.5 -58.5t-9.5 -37.5 q0 -4 -5 -20.5t-10 -35t-9 -35t-6 -20.5t-4.5 -17t-4.5 -20q0 -2 -2 -19t-4 -19q-2 -4 -7 -28t-7 -28q-2 -10 -2 -18t-2 -19q0 -2 -3 -10t-3 -10q-12 -41 -13 -82q0 -23 5.5 -46.5t5.5 -45.5q0 -16 -16.5 -23.5t-28.5 -7.5h-11l-4 2q-6 4 -14 12q-8 10 -8 22.5v20.5v19 q0 4 1 18.5t5 18.5l86 377l-144 -205q-4 -4 -14 -18.5t-23.5 -31t-25.5 -33t-18 -24.5q-6 -6 -21.5 -23.5t-34 -37t-35 -36.5t-22.5 -24q-35 -39 -74 -68.5t-94 -29.5q-25 0 -43 11.5t-25 35.5v25z" />
<glyph unicode="V" horiz-adv-x="698" d="M199 -70l77 969v33v47v20v7q0 12 13.5 18t25.5 6q23 0 31 -22.5t8 -42.5q0 -10 -3 -18.5t-7 -18.5q-2 -2 -2 -6v-11q-2 -4 -3 -17t-1 -15q0 -8 -2 -25.5t-3 -37t-3 -36t-2 -20.5t-1 -16.5t-1 -27t-1 -26.5t-1 -14q0 -4 -3.5 -24.5t-3.5 -24.5q0 -2 -1 -4t-1 -7v-6v-19 t-1 -29.5t-1 -30v-19.5l-37 -369q0 -4 -1 -17t-1 -17v-35v-41l342 524l306 510q6 10 17 21.5t26 15.5h12q16 0 25.5 -4t9.5 -21q0 -12 -5.5 -21t-13.5 -20l-59 -63l-565 -905q-2 -4 -12.5 -22.5t-14.5 -29.5q-2 -4 -10 -19t-13 -22q-4 -10 -6 -21t-6 -19q0 -2 -7 -12.5 t-11 -14.5q-4 -10 -12.5 -17.5t-16.5 -17.5q-12 -6 -20 -6q-20 0 -30.5 17.5t-10.5 33.5v10z" />
<glyph unicode="W" horiz-adv-x="854" d="M94 -72q0 12 2 19l123 454l98 414q10 41 11 76q0 12 -3 22.5t-3 22.5v10q0 8 4 12q8 18 21 37t36 19q18 0 25.5 -14.5t7.5 -30.5v-8l-23 -72l-155 -635l-17 -86v-8q10 10 17.5 20t15.5 23l219 389l117 172q0 2 8 14.5t20.5 27.5t24.5 32.5t21 27.5q0 2 2 4t4 7q2 4 6 6 l4 2q2 0 4 2h8q14 0 21 -4q12 -12 12 -23v-2q0 -16 -1 -46t-1 -32q0 -6 -2 -18t-3 -26.5t-3 -26t-2 -13.5l-49 -301l-11 -100v-27l17 33l143 299l57 107l193 288q2 4 8 15.5t8 15.5q6 10 16.5 20.5t22.5 10.5q23 0 39 -17q2 -4 2 -10q0 -4 -2 -8l-4 -8l-152 -205l-145 -240 l-59 -114l-105 -244q-2 -2 -5 -10t-7 -15q-2 -4 -4 -6t-4 -6t-4 -12t-4 -12q0 -4 -3.5 -15.5t-7.5 -24t-7 -24.5t-3 -14q-2 -2 -6 -16.5t-6 -20.5q-4 -12 -8.5 -21.5t-8.5 -19.5t-14 -17.5t-20 -7.5q-16 0 -25.5 11.5t-9.5 27.5v14.5t2 16.5l43 248q0 2 1 7t1 7v64l2 10 l39 194q0 6 4 32t6 36q6 49 6 94v25l-125 -191l-237 -407q-16 -18 -28.5 -40t-25.5 -40q-2 -4 -7 -14.5t-7 -14.5q0 -4 -5 -15t-9 -23.5t-9.5 -25t-5.5 -14.5t-2 -6l-4 -8t-6 -11t-6 -9q-4 -12 -10 -19.5t-17 -15.5q-4 -4 -14 -4q-23 0 -33 16q-2 0 -2 4q0 2 -2 2v8z" />
<glyph unicode="X" horiz-adv-x="833" d="M27 -8q0 23 12 34t29 27q0 2 2 3t4 5q2 2 4 7l106 133l246 280l29 35v2q0 4 -2 8l-197 449q-4 12 -12 25.5t-12 25.5q0 4 -1.5 7t-1.5 7q0 8 5 21l2 2v4l4 4q2 2 3 2t3 2q4 2 14 2q12 0 21.5 -6t19.5 -14q2 -4 12 -15l9 -8l2 -4q0 -4 1 -19.5t1 -19.5t4 -12q2 -6 5 -18.5 t5 -14.5l127 -299l31 -59l2 -6l2 -2h2q0 2 2 2t4 2l16 16q6 4 16.5 17.5t14.5 15.5l297 397q4 4 24.5 28.5t30.5 35.5q2 4 12.5 13t14.5 13q4 2 8 6q4 2 5 4.5t3 4.5q8 4 14.5 8t16.5 4q18 0 28.5 -14.5t10.5 -32.5q0 -23 -15.5 -25t-29.5 -12q-12 -8 -23 -19l-26 -26 l-391 -477q-2 0 -2 -2t-2 -4q0 -2 -2 -3q-2 0 -3 -2v-2l9 -22l237 -563q2 -10 13 -25q16 -18 30.5 -33.5t14.5 -44.5q0 -23 -15.5 -24.5t-32.5 -5.5q-4 0 -9 -2.5t-7 -2.5h-4l-74 164l-176 447q0 2 -5 11t-7 13q-4 8 -14 19q0 2 -7 2q-4 0 -12 -8q-2 -2 -5 -5.5t-7 -3.5 q-4 -4 -9.5 -11t-7.5 -9l-159 -188l-148 -199q-2 -4 -7 -10.5t-7 -8.5q0 -2 -2 -6t-2 -8q0 -2 -3 -10t-3 -10q-8 -16 -21.5 -24.5t-30.5 -8.5q-29 0 -34 26v15z" />
<glyph unicode="Y" horiz-adv-x="581" d="M158 -10q0 2 1 2t1 2t4 10q2 4 2 8q2 6 10 28.5t17.5 48.5t17.5 47.5t10 27.5q2 4 7 23.5t10 25.5q0 2 2 11t4 14q0 2 2 8t2 8q0 4 2 14.5t2 12.5v165l35 508q0 6 2 13q2 4 2 9t2 9q0 10 6 14l2 2l2 3h25q10 0 15 -9.5t5 -17.5v-16q0 -39 -2 -78t-6 -80q0 -4 -1 -22.5 t-1 -20.5q0 -6 -1 -18.5t-2 -27t-3 -26.5t-2 -16q0 -12 -5.5 -23.5t-5.5 -21.5l-10 -205v-27q2 0 4 2t6 4q2 2 9.5 8.5t11.5 6.5l4 4q2 2 4 2l518 547q4 8 18.5 25.5t18.5 23.5q2 2 5 7t5 5h9q33 0 45 -20q0 -2 1 -2t1 -2v-2v-5q0 -8 -6 -14q-14 -16 -31 -28.5t-33 -22.5 l-477 -502q-4 -4 -19.5 -21.5t-21.5 -23.5q-4 -4 -19.5 -24.5t-19.5 -30.5q-2 -2 -5 -7.5t-5 -5.5q0 -2 -2 -6t-2 -8l-72 -233q0 -2 -2 -6.5t-2 -6.5q0 -4 -3 -25.5t-5 -25.5q-4 -16 -20.5 -38.5t-35.5 -22.5q-18 0 -24 14q-6 0 -6 8v8v11v2z" />
<glyph unicode="Z" horiz-adv-x="1222" d="M-51 -20q2 2 4 7t4 7q0 8 8 8l182 143l947 625l209 125h-109l-299 -10q-6 0 -23.5 -2t-36 -5.5t-36 -5.5t-23.5 -2q-10 -2 -36.5 -2h-34.5q-72 -10 -146 -19t-145 -9h-17.5t-17.5 2q-4 0 -13.5 1t-11.5 1q-4 0 -13 2t-13 2q-12 4 -33 13t-21 28q0 23 13.5 26t31.5 3 q29 0 61 -4.5t66 -4.5h9l755 39h20.5t31 1t31 1h20.5q4 0 22.5 2t22.5 2h20h19q16 -2 33.5 -10t17.5 -24v-5q0 -4 -4 -7t-6 -7q-8 -8 -25 -16q-10 -4 -26.5 -14.5t-16.5 -12.5l-164 -76q-10 -6 -16 -14t-16 -12l-66 -33l-186 -113l-656 -442l-143 -111q-2 -4 -14.5 -14 t-16.5 -14q-4 -2 -10 -9.5t-10 -9.5q8 0 29.5 -2t45 -3t44 -2t28.5 -1h62h61l856 27q16 0 33.5 2t34.5 2h22q18 -4 30.5 -12.5t12.5 -28.5v-8l-2 -2q-16 -23 -43 -23h-10h-4q-2 0 -3 1t-3 1q-4 0 -30 4t-30 6q-10 2 -22.5 2h-22.5q-29 0 -57.5 -1t-59.5 -1h-16q-4 0 -8 3 t-8 3h-2q-25 -6 -54 -6q-33 0 -65.5 1t-65.5 1h-30l-435 -24q-6 -2 -20 -2q-10 0 -20.5 1t-20.5 1t-19.5 -2t-19.5 -4q-2 0 -6 -1t-6 -1q-10 0 -27.5 -1t-21.5 -1h-166h-13q-4 0 -9 1t-9 1q-10 2 -17.5 4t-17.5 4q-18 8 -18 28v3z" />
<glyph unicode="[" horiz-adv-x="735" d="M84 -8q0 14 8 31q4 4 14.5 23.5t14.5 23.5q0 4 2 8q2 2 4 6l201 557q2 4 8 23.5t13 43t13.5 46t10.5 34.5q0 2 3 12.5t6 23t6 23.5t5 17q6 31 6 62q0 10 -1 20t-1 23q0 20 14.5 29.5t34.5 9.5q27 0 51.5 -4.5t53.5 -6.5h29h30q10 0 36 2t30 5l229 36q2 0 20.5 1t26.5 3 h27h12h17q6 -2 7 -8t1 -12q0 -16 -10.5 -22.5t-26.5 -6.5h-33h-18q-6 -2 -21.5 -4t-19.5 -4q-4 0 -19.5 -3t-34 -7t-34 -7t-19.5 -3q-4 -2 -15 -4t-13 -2q-117 -10 -236 -13q-10 0 -19.5 -1t-19.5 -3q-14 0 -18 -10q-2 0 -2 -4v-2q-2 -4 -3 -21.5t-5 -21.5l-52 -187 l-207 -592q0 -2 -4 -14t-6 -20q-4 -16 -4 -23q0 -12 8.5 -14t16.5 -2q2 0 8 -1t8 -1h37q43 0 86 3t86 3h18l74 -8h103q2 -2 4 -2t4 -1t4 -1q12 -2 28.5 -8.5t16.5 -22.5q0 -8 -5 -12.5t-11 -10.5q-12 -12 -33 -12q-6 0 -15 2q-2 0 -12 2t-20.5 5t-20.5 6t-12 3 q-6 0 -30.5 4.5t-35.5 6.5h-16q-6 0 -12 2h-97q-4 0 -21.5 -1t-40 -3t-46 -4t-35.5 -2q-4 0 -27.5 -3.5t-33.5 -5.5t-18.5 -3t-18.5 -1t-21.5 5t-11.5 20z" />
<glyph unicode="\" horiz-adv-x="587" d="M315 915v9q4 12 17 18q2 0 5 2t7 4h14h11q8 -6 11 -20.5t5 -24.5q2 -6 3 -28.5t3 -28.5l86 -463l35 -158l4 -20q2 -10 3 -18.5t1 -12.5q4 -16 4 -34.5v-37.5v-24.5t-4 -27.5t-13 -22.5t-26 -9.5q-22 1 -22 19q0 16 5 32.5t7 32.5v25v29q-2 10 -5 38.5t-3 34.5l-117 584 q-4 27 -17.5 50.5t-13.5 51.5z" />
<glyph unicode="]" horiz-adv-x="587" d="M0 -29q0 16 12.5 24.5t24.5 14.5q10 4 26 4h9q4 0 18 -3t19 -3h18h18l285 25q4 0 35 4t45 6q4 0 11 2t11 4q10 2 14.5 6t8.5 13q4 6 10 18l8 16l183 490l90 276q0 4 6 30t10 38q4 10 4 17.5v17.5q0 25 -20 24h-51l-363 -20h-33h-43h-73q-31 0 -31 31v8v2q0 2 2 4 q18 20 53 20q23 0 44.5 -7t47.5 -7l164 10h55q4 -2 15 -2h6q53 10 107.5 16.5t109.5 6.5h37q12 0 28.5 -1t16.5 -24q0 -6 -2 -12q0 -2 -3 -12.5t-7 -22.5l-7.5 -22.5t-3.5 -14.5q-2 -4 -2 -8t-1 -7t-1 -5q-2 -4 -2 -11.5t-4 -13.5q0 -6 -3 -11t-5 -13l-59 -199l-199 -547 q0 -2 -3 -16.5t-7 -22.5q0 -4 -2 -9t-2 -7v-4q0 -4 2 -5t2 -6q0 -12 -8 -24q-10 -29 -35 -35l-66 -12l-493 -45h-4l-17 8v2l-4 4q-2 2 -2 6v4z" />
<glyph unicode="^" horiz-adv-x="702" d="M289 772q0 4 1 10t5 11q10 6 17 9t18 7l18 6h4q2 0 2 1t2 1q51 23 97.5 51.5t93.5 53.5q2 2 13 7t24.5 11l27 12t21.5 11q12 4 25.5 8t25.5 4h16.5t14.5 -6q6 -4 11 -15.5t7 -19.5q6 -23 7 -47.5t12 -46.5q10 -27 28.5 -46.5t30.5 -43.5v-7q0 -10 -7 -13t-18 -3h-13 t-13 4q-2 0 -8 6q-47 43 -66 111q0 4 -6 24.5t-8 24.5q-6 6 -4 6q-31 -10 -62 -24q-8 -4 -27.5 -14.5t-23.5 -12.5t-20.5 -12.5t-36 -20.5t-37 -20.5t-21.5 -12.5q-2 0 -20.5 -10t-28.5 -14q-2 -2 -7 -2t-5 -2q-4 -2 -20.5 -8.5t-20.5 -6.5l-4 -4q-2 -2 -4 -2h-13h-10 q-12 4 -15 14.5t-3 20.5z" />
<glyph unicode="_" horiz-adv-x="1163" d="M-2 -37q0 14 10 25q8 8 18.5 9t20.5 1q35 2 67.5 2h67.5h27h33.5t51.5 -1t51.5 -1h33.5q10 -2 20.5 -4t20.5 -6q2 0 5 -1t5 -1t8 -1t8 -1h201h12.5t21.5 -1t21.5 -1h12.5h63h47q6 0 25.5 2t43.5 3t43 3t26 2h38h37q12 0 21.5 -9.5t9.5 -21.5t-9 -21.5t-22 -9.5h-6 q-8 0 -32.5 2t-32.5 2h-65.5t-99.5 1.5t-99.5 1.5h-65.5h-6q-8 0 -14.5 -2.5t-12.5 -2.5h-8l-209 15h-225l-131 -17h-4q-12 0 -20.5 10.5t-8.5 22.5z" />
<glyph unicode="`" horiz-adv-x="598" d="M440 1055v6l2 2q2 2 8.5 7t10.5 7q14 14 28 15q6 0 11 -2q4 -4 20.5 -17.5t20.5 -17.5q2 0 8 -6.5t6 -8.5q8 -6 27.5 -25.5l23.5 -23.5q2 -2 9.5 -10t16.5 -18.5t16 -18.5t9 -10q6 -4 11.5 -9t11.5 -10q2 -4 14.5 -13t16.5 -13q10 -8 16 -19.5t12 -23.5q6 -10 6 -23 q0 -10 -8 -15t-16 -9q-4 -2 -10 -2q-10 0 -18.5 9t-14.5 17l-143 142q-4 2 -20.5 17t-22.5 22q-4 2 -22.5 16t-23.5 16q-6 4 -6 19z" />
<glyph unicode="a" horiz-adv-x="774" d="M68 49v4q0 4 2 20.5t4 20.5v4q0 2 2 2q2 2 4 7.5t4 9.5q63 117 166.5 198.5t232.5 120.5q2 2 7.5 3t9.5 1q18 6 37.5 10.5t40.5 4.5h14q2 -2 4 -2h4q23 -4 38 -15.5t30 -27.5l6 -7q0 -2 1 -2t1 -2v-2l24 -49l5 -4q8 8 12 17.5t8 19.5q20 59 29 115q6 31 6 61v16 q-4 16 -11.5 27.5t-21.5 24.5q0 2 -3 3t-5 3q-25 12 -48.5 16t-52.5 4q-63 0 -122.5 -24.5t-112.5 -59.5q-4 -4 -12.5 -9t-12.5 -7q-4 -4 -12 -11.5t-17.5 -14.5t-17.5 -14t-10 -9q-6 -6 -12 -6q-12 0 -18.5 9t-6.5 21q0 27 25.5 48.5t46.5 33.5q43 29 90 48.5t94 35.5 q27 8 51.5 14.5t51.5 6.5q53 0 107 -27t71 -80q10 -27 10 -59q0 -31 -6 -59.5t-14 -57.5q-2 -6 -7.5 -24.5t-5.5 -22.5q-2 -6 -7 -19.5t-11 -27.5t-10.5 -25.5t-6.5 -15.5q-4 -8 -11 -25.5t-16 -38t-17.5 -38t-12.5 -25.5q-6 -10 -19.5 -37t-27.5 -56.5t-27.5 -56 t-19.5 -36.5q-6 -18 -8 -43t-29 -25q-33 0 -41 27v12q0 10 2 19.5t8 17.5l25 24q6 6 6 9q23 39 43 78.5t39 80.5q10 23 20 58q2 8 4.5 16t2.5 18q0 8 -2.5 15.5t-2.5 15.5q-12 49 -45 80q-16 16 -43 16q-23 0 -46 -6t-46 -14q-96 -41 -178 -98q-29 -23 -53.5 -44.5 t-50.5 -50.5q-2 0 -7.5 -7t-7.5 -11q-29 -35 -49 -82l-4 -12t-2 -15q0 -16 9 -25t21.5 -13.5t27 -5.5t26.5 -1h25q2 0 17 1t23 6h7q10 4 27.5 8t19.5 4q6 2 19 6t29.5 9t30 10.5t19.5 7.5q2 2 18.5 7t22.5 9q4 0 8 2q2 0 6 2q20 10 29.5 31.5t34.5 21.5q41 0 41 -39v-6 q0 -6 -4 -10q-18 -18 -43 -31q-35 -18 -72 -32.5t-74 -28.5q-4 0 -16 -3t-25.5 -7t-25 -8.5t-17.5 -6.5q-4 -2 -21.5 -5t-21.5 -5t-11 -2h-9h-23h-28h-15q-31 4 -60.5 17.5t-45.5 41.5q-8 14 -8 33z" />
<glyph unicode="b" horiz-adv-x="802" d="M41 -33q0 10 6 16.5t12 16.5q0 2 10.5 18.5t12.5 24.5q2 2 4 8t4 8q4 8 11.5 21.5t13.5 26t11 22.5l5 10l129 312l191 544l16 33q8 20 20.5 42t36.5 22q10 0 19.5 -5.5t9.5 -15.5t-2 -16l-143 -353l-70 -200q0 -2 -5 -17.5t-7 -25.5q0 -2 -1 -3t-1 -3v-2l6 4l123 106 q4 4 17 13.5t19 13.5q57 39 121 66.5t135 27.5q41 0 80 -20q2 0 4 -3q4 -4 7 -4q0 -4 4 -4l2 -2l35 -35q4 -4 7 -10l5 -10v-25v-35.5t-4 -33.5q-10 -47 -37 -90t-57 -78q-25 -27 -47.5 -48.5t-49.5 -39.5q-8 -4 -23.5 -16.5t-17.5 -12.5l-176 -113l-28 -14q-4 -2 -25 -12 t-45.5 -22.5t-48 -24t-35.5 -17.5q-35 -16 -76 -29.5t-76 -35.5l-4 -6q-4 -2 -14 -11.5t-12 -13.5q-12 -6 -25 -6q-16 0 -27.5 13.5t-15.5 27.5q-4 4 -4 10v6zM160 23h2h6q8 4 22.5 7t14.5 5q12 6 40.5 17t35.5 16q8 4 24.5 11t32.5 15t30.5 14.5t18.5 8.5l156 92q2 2 11 8 t20.5 13.5t21.5 13.5t16 10q29 18 54.5 38.5t48.5 43.5q39 35 70.5 77t48.5 95q2 6 2 10v2q0 2 -2.5 6t-2.5 6q0 4 3 9l4 8q0 2 1 6t1 6q0 29 -23.5 47.5t-52.5 18.5h-19h-25t-24 -4q-35 -6 -65 -21q-90 -35 -162 -92t-137 -125q-4 -2 -10.5 -9t-6.5 -9q-4 -2 -8 -8.5 t-6 -10.5q-4 -4 -10 -14t-8 -15q-2 -4 -9.5 -17t-9.5 -17q-4 -8 -12 -25.5t-16.5 -35t-15.5 -32t-9 -18.5q-14 -31 -24.5 -63.5t-22.5 -61.5q-4 -16 -4 -26z" />
<glyph unicode="c" horiz-adv-x="708" d="M139 115v20v21v12q10 45 19.5 88t25.5 84q23 49 53.5 94t65.5 88q35 47 72 76q10 10 22.5 18.5t22.5 18.5q29 20 65.5 36.5t71.5 16.5q45 0 76 -33q0 -2 2 -4l4 -4q31 -51 31 -112q0 -35 -11 -80q0 -4 -4 -13.5t-4 -13.5q-4 -12 -18 -12q-27 0 -36 17.5t-9 39.5 q0 27 7 50.5t7 47.5q0 33 -20 52q0 2 -5.5 4t-7.5 2h-8q-12 0 -23.5 -6.5t-23.5 -10.5t-23.5 -7t-25.5 -11l-4 -2q-8 -4 -22.5 -15.5t-16.5 -13.5q-43 -37 -85 -81t-74 -95t-51 -106.5t-19 -116.5q0 -23 3 -49.5t21 -42.5q16 -12 35.5 -16.5t38.5 -4.5q31 0 59.5 6t57.5 13 q29 8 57.5 17t54.5 22q47 18 87 42.5t81 51.5q10 4 36 21.5t34 23.5q8 4 14 4q10 0 14 -2q10 -8 16.5 -16.5t6.5 -22.5q0 -18 -18 -27l-226 -112q-2 0 -12 -5.5t-24.5 -11.5t-28 -12t-19.5 -8q-4 -2 -22.5 -8.5t-26.5 -8.5q-29 -10 -59.5 -17t-59.5 -7q-59 0 -111 29.5 t-63 91.5z" />
<glyph unicode="d" horiz-adv-x="714" d="M63 168v14v19q0 35 19 63q37 84 99.5 149.5t129.5 121.5q33 27 68 47t72 39q27 12 56.5 17t57.5 5q27 0 52.5 -7t41.5 -30q2 -2 3 -4q0 -4 2 -4q0 -2 3 -5t3 -5q2 0 6 8l141 383q2 4 11.5 24.5t13.5 30.5q2 2 7 13.5t9 17.5q2 0 2 2q0 4 2 4q4 4 7 11.5t5 9.5 q6 6 16.5 15t22.5 9q10 0 17.5 -6t7.5 -14q0 -18 -14 -39q-8 -12 -17.5 -24.5t-17.5 -26.5q-2 -2 -2 -5q-2 -2 -2 -4l-64 -153l-190 -539q-2 -2 -4 -17.5t-4 -21.5q-2 -4 -4.5 -10t-2.5 -10v-4q0 -4 2.5 -11.5t2.5 -13.5q0 -10 -4.5 -15t-8.5 -14q-6 -10 -11 -20t-9 -23 l-29 -94v-2q-12 -16 -24 -16q-16 0 -26.5 11t-10.5 26q0 10 5 21t9 24v4q0 2 1 2t1 2q0 6 -6 6q-4 0 -6 -2q-6 -4 -17.5 -11t-25 -16.5t-24.5 -16.5t-17 -9q-39 -27 -76 -43q-31 -14 -63.5 -19.5t-67.5 -5.5h-25q-35 4 -63 29q-4 4 -13.5 14t-13.5 14q-23 25 -24 56 q-2 8 -5.5 26.5t-3.5 22.5zM117 168q0 -18 4 -34.5t12 -33.5q0 -2 1 -2t1 -2t2 -4q37 -39 96 -39q37 0 72 16.5t68 32.5q25 14 49 29.5t45 34.5l2 2q2 2 3 2t3 2q4 2 8 6q8 8 17.5 10t17.5 9q8 6 14.5 14t10.5 16q10 16 17 30.5t13 31.5q14 39 26.5 76.5t23.5 78.5 q4 20 7 43t3 45q0 16 -6 36t-27 24h-14q-23 0 -47 -6q-12 -4 -24.5 -4t-27.5 -4q-27 -10 -47 -25q-66 -37 -118 -82q-6 -4 -22.5 -18.5t-20.5 -18.5q-29 -25 -54.5 -52.5t-48.5 -59.5q-12 -16 -23.5 -36t-19.5 -38q-16 -43 -16 -80z" />
<glyph unicode="e" horiz-adv-x="634" d="M119 139q0 49 13 95.5t30 91.5h-2h-8q-4 0 -7 2q-14 2 -16 15t-2 24v16q0 8 8 8h10h33q14 0 25 10q43 53 91 103.5t107 89.5q41 25 84 41t90 16h23q14 -4 23.5 -12t19.5 -18q2 0 2 -3q0 -4 2 -4q6 -6 8 -13t6 -13q4 -4 5 -13q10 -29 13 -56t3 -56q0 -25 -4 -48.5 t-8 -47.5q0 -4 -2 -13.5t-11 -9.5h-2h-9t-16.5 1t-17.5 1h-10h-33h-32q-14 0 -48 -1t-73 -2t-73 -2t-46 -1q-6 0 -23.5 -2t-21.5 -2t-9 -2l-10 -4q-6 0 -10 -2q-2 -4 -9 -21.5t-11 -21.5q-14 -29 -22.5 -57.5t-8.5 -63.5q0 -29 8 -50.5t31 -37.5q10 -10 24.5 -16.5 t28.5 -10.5q4 -2 20.5 -6t20.5 -4q2 0 4 -1t4 -1q8 0 38 2t38 4q25 2 47.5 8t44.5 15q51 16 95 39.5t83 62.5h9q14 0 19 -10.5t5 -24.5q0 -16 -8 -27l-2 -4l-49 -24q-47 -25 -95.5 -45.5t-97.5 -32.5q-25 -6 -46 -8t-46 -2q-37 0 -78 6t-73.5 23.5t-54 46t-21.5 73.5z M264 393q0 -2 2 -4t4 -2q2 -2 6 -2q2 0 5 -2q2 0 5 -1t5 -1q12 0 23.5 3t21.5 5q10 0 36.5 1t35.5 1q4 0 21 2t22 2q4 0 22.5 1t38.5 2t38.5 2t22.5 1t20.5 1t20.5 4q6 10 8.5 24t6.5 27v28q0 29 -4 58.5t-29 50.5h-2q-2 0 -4 2q-3 3 -6 3h-2q-4 -1 -9 -1q-35 0 -62.5 -10 t-53.5 -27q-2 0 -3 -1t-3 -1q-2 -2 -5 -2q-4 -2 -15 -9t-22.5 -14.5t-21.5 -14.5t-14 -9q-6 -4 -12.5 -6t-12.5 -8q-10 -6 -17 -14.5t-16 -16.5q-4 -4 -13 -16.5t-11 -14.5q0 -2 -10.5 -16.5t-14.5 -22.5z" />
<glyph unicode="f" horiz-adv-x="505" d="M176 0q4 6 10.5 22.5t8.5 20.5l174 526v4q-29 -10 -52.5 -21t-50.5 -24q-12 -6 -26.5 -11t-26.5 -5q-31 0 -31 31q0 10 2 14q10 10 22.5 17.5t22.5 11.5q29 10 61 19t60 22q18 8 35.5 18t28.5 29q4 4 8 12t4 10t4 12.5t8 20.5t8.5 19.5t6.5 11.5q0 4 4 10t4 12v15l2 4 q2 6 8 19.5t12 28.5t12.5 29.5t8.5 18.5t7 14.5t11 22.5t12.5 23.5t10.5 17.5t16 29.5t17 31.5q4 4 15 23.5t15 25.5q4 4 12.5 15.5t12.5 15.5q12 16 29.5 37t38 38t43 28.5t47.5 11.5q10 0 22 -3t23 -11q8 -10 17 -18.5t13 -20.5q2 -4 6.5 -16.5t8.5 -27t8 -26.5t4 -16 q12 -35 12 -68v-14q-2 -14 -18 -15q-23 0 -35 17q-4 6 -9 19t-7 24l-17 96q-2 8 -6 15.5t-14 7.5q-4 0 -8 -3q-4 0 -13.5 -3t-11.5 -3q-16 -8 -30.5 -21.5t-28.5 -25.5q-29 -33 -53.5 -67.5t-47.5 -73.5q0 -2 -4 -10.5t-8 -16.5t-8 -15t-6 -9q0 -2 -5.5 -11.5t-11.5 -20.5 t-11 -19.5t-7 -10.5q-6 -12 -10.5 -22.5t-8.5 -22.5q-4 -18 -12 -33q0 -4 -5 -13t-11 -20.5t-11.5 -21.5t-7.5 -12q-10 -27 -10 -45q10 0 21.5 1t21.5 3l113 29q16 4 33.5 10t33.5 6t29.5 -8t13.5 -27q0 -16 -6 -22q-12 -16 -29 -17q-4 0 -8 1t-10 1h-2q-6 -2 -20.5 -3 t-16.5 -1q-8 -2 -28.5 -6t-42 -7t-42 -7t-28.5 -6q-41 -6 -64 -33q0 -2 -2 -4l-4 -4q-2 -4 -6 -13.5t-6 -11.5q-4 -10 -11.5 -27.5t-7.5 -21.5l-77 -238q0 -2 -6.5 -21.5t-13.5 -46l-14 -53t-11 -43.5q0 -2 -2.5 -11t-4.5 -13q0 -2 -4 -12.5t-7 -20.5t-7 -20.5t-4 -12.5 t-2 -9t-2 -9v-23q0 -14 -16.5 -21t-30.5 -7q-16 0 -19.5 13t-3.5 26v12v4z" />
<glyph unicode="g" horiz-adv-x="714" d="M-31 -297q0 14 4 29.5t23 15.5q10 0 17 -7t12 -17q23 -33 42 -65t64 -32q29 0 51.5 11.5t44.5 25.5q2 2 12.5 10.5t22.5 17.5t23.5 18t17.5 14q0 2 5 6t7 6q6 4 21.5 20.5t19.5 20.5t10.5 12t10.5 12q43 53 79 107.5t62 114.5q37 84 62 167q2 6 7 30t9 34q0 2 2 7t2 7v4 v2q-20 -37 -42.5 -73.5t-45.5 -71.5q-6 -10 -19.5 -26.5t-17.5 -18.5l-6 -8l-9 -8q-9 -7 -21.5 -15t-25 -17t-20.5 -16q-2 -2 -7 -5t-7 -3q-4 -4 -18.5 -11t-18.5 -9q-27 -10 -50.5 -20.5t-49.5 -18.5q-29 -6 -54 -6h-16q-47 10 -65.5 47t-18.5 78q0 35 11.5 68.5t27.5 64.5 q2 8 11 26.5t19.5 39t19.5 39t13 26.5q2 2 8.5 12t13.5 21.5t13 21.5t8 15q37 59 83 111t100 95q2 4 13 11.5t15 11.5l5 4q2 2 4 2h16q2 0 4 3t6 3q27 14 64 15q33 0 57 -17q2 0 3 -2t3 -2l25 -25q8 4 15 8.5t18 4.5q14 0 23 -13.5t9 -23.5v-45l-32 -234q-2 -6 -7.5 -34.5 t-7.5 -38.5q-12 -53 -28.5 -101.5t-36.5 -95.5q-25 -57 -54.5 -109.5t-64.5 -105.5q-23 -35 -51.5 -72t-61.5 -65q0 -2 -2 -2h-4q-2 -2 -8 -5t-10 -6q-45 -41 -93.5 -74.5t-107.5 -33.5q-45 0 -72.5 19.5t-52.5 50.5q-4 4 -13 15t-14 15q-2 4 -6 17v16zM141 63 q0 -31 10.5 -45t38.5 -14q35 0 72 11.5t68 27.5q59 33 106 80t82 104q10 16 20.5 32.5t18.5 35.5q2 8 8 23.5t13.5 31t12.5 28.5t7 17q20 51 20 101q0 35 -10 64.5t-47 35.5q-12 4 -22.5 4h-22.5q-2 0 -3 1t-3 1h-2q-4 0 -8 -2q-10 -6 -25 -10q-4 -4 -13 -10.5t-11 -8.5 q-4 -4 -14.5 -11t-12.5 -11q-4 -4 -12.5 -11.5t-16.5 -16.5t-15 -16l-9 -9q-4 -2 -11.5 -10.5t-14.5 -17.5t-14 -18.5t-9 -13.5q-27 -31 -51.5 -66.5t-47.5 -70.5q-16 -29 -31.5 -55.5t-25.5 -55.5l-2 -4q-2 -4 -3 -11t-3 -13l-4 -17q-4 -20 -8.5 -41t-4.5 -39z" />
<glyph unicode="h" horiz-adv-x="643" d="M91 115.5q13 13.5 20 29.5l69 146l219 547l121 379l4 8q2 4 2 6t2 6q6 14 25 14q35 0 35 -32q0 -12 -8 -33q-4 -6 -9.5 -20.5t-7.5 -18.5t-9 -19.5t-15.5 -34t-16.5 -34t-10 -19.5q0 -4 -2 -9t-2 -7l-59 -180q-10 -29 -23.5 -56.5t-24.5 -56.5q-2 -6 -4 -13t-4 -16 l-2 -14v-10l-2 -6q-2 -4 -5 -16.5t-5 -14.5q-2 -6 -8 -21.5t-9 -19.5q0 -2 -4 -10l-6 -12q-8 -8 -16 -25v-6q-2 -4 -4 -10.5t-2 -8.5l-90 -206l10 12l192 233l39 39q18 20 39 39t45 35q31 25 70 25q29 0 45 -18.5t16 -49.5v-16q0 -4 -2 -18.5t-4 -20.5q-2 -8 -5 -22.5 t-6 -30t-6 -28t-3 -16.5l-62 -227q0 -4 -7 -26.5t-11 -34.5q-6 -18 -13.5 -36t-11.5 -38q-4 -33 -9 -71t-34 -62q-6 -6 -14 -6h-4q-10 0 -22.5 5t-12.5 19v4q0 4 2 11q2 4 2 7t2 5l146 469l2 8t5 18.5t5 20.5t4 16q2 12 3 23.5t1 25.5v13q0 6 -3 14t-11 8q-6 0 -13.5 -3 t-11.5 -7q-18 -12 -35.5 -26.5t-34.5 -28.5q-6 -6 -16 -17.5t-21.5 -22.5t-20.5 -21.5t-11 -12.5q-4 -2 -13.5 -12.5t-19.5 -22.5t-20.5 -23.5t-16.5 -17.5q-10 -12 -23.5 -26.5t-23.5 -30.5q-4 -8 -5 -14.5t-5 -14.5q-4 -4 -14.5 -15t-14.5 -16l-2 -2q0 -2 -2 -2 q0 -2 -1 -2t-1 -2v-2q-2 -2 -9 -17.5t-9 -17.5q0 -2 -5.5 -7t-9.5 -9q-14 -16 -29.5 -32.5t-25.5 -35.5q-2 -4 -7 -11t-5 -11q-4 -4 -13.5 -24.5t-13.5 -24.5q-8 -16 -18.5 -29.5t-24.5 -30.5q-6 -6 -25 -6q-28 0 -28 29q0 20 13 33.5zM238 320.5q0 -1.5 2 -1.5t2 1.5 t-2 1.5t-2 -1.5z" />
<glyph unicode="i" horiz-adv-x="303" d="M76 -8q0 16 8 37l186 475l49 158q0 2 3.5 4t3.5 4t3 10t5 8q4 6 6 11.5t10 9.5h6q6 0 11 -2q20 -4 20 -17q0 -2 1 -7t1 -9q0 -20 -9 -38t-20 -36l-4 -8l-168 -447q-2 -6 -2 -13t-2 -15l-2 -2q-2 0 -2 -2q-4 -10 -7 -19.5t-5 -19.5q-2 -4 -5 -27.5t-7 -28.5 q-4 -16 -14 -40.5t-31 -24.5q-16 0 -25.5 12.5t-9.5 26.5zM391 965q0 18 14.5 45.5t30.5 38.5h2q2 0 2 1t2 1t4 2h9q22 0 22 -27q0 -22 -6 -46t-25 -36q-4 -2 -6 -4t-4 -2h-2q-3 -3 -5 -3h-1q-2 1 -6 1h-12q-19 9 -19 29z" />
<glyph unicode="j" horiz-adv-x="350" d="M-391 -197q0 18 18 29l2 2h25l6 -2l4 -4q0 -2 4 -2q2 0 4 -2l95 -90q2 -2 7 -7.5t9 -7.5q23 -16 46.5 -29.5t47.5 -13.5q16 0 30.5 5.5t31.5 9.5q39 14 63.5 41.5t46.5 60.5q23 37 43 84q4 6 12.5 28.5t12.5 26.5q4 8 10 26.5l12 37t11.5 34t7.5 19.5l59 205q0 4 4 22.5 t9.5 41t10.5 45t7 34.5q2 6 4 19.5l4 27t4 23.5t2 12l10 160q0 2 1 11t3 14q4 23 12.5 34t30.5 11q10 0 17.5 -9.5t7.5 -19.5v-14q0 -23 -5 -45.5t-11 -45.5l-19 -118l-78 -330q0 -4 -4 -16.5t-8 -25.5t-8 -26.5t-6 -19.5q-16 -59 -39 -115.5t-51 -111.5q-2 -4 -9.5 -17.5 t-9.5 -17.5q-18 -29 -44.5 -60.5t-55.5 -54.5q-27 -18 -59.5 -29.5t-67.5 -11.5h-16q-6 0 -11.5 2t-11.5 4q-41 16 -73.5 47t-61.5 62q-10 6 -17.5 12t-17.5 12t-23.5 10.5t-23.5 14.5q-2 4 -3 8t-1 10zM291 920q0 4 4 12q2 2 3 4t3 4l4 4h43q10 0 11 -11t1 -18 q0 -16 -7 -28.5t-21 -12.5h-8q-8 2 -20.5 19t-12.5 27z" />
<glyph unicode="k" horiz-adv-x="716" d="M72 12v6q2 2 2 5q0 4 2 6q4 10 12 30.5t8 24.5l80 176q4 4 9 20.5t10 24.5q2 6 4 11.5t2 13.5t-5.5 14t-5.5 16q0 23 17.5 36.5t32.5 25.5q4 4 6 9t6 9l106 289l88 277q0 6 3 12q4 12 4 16l4 13q2 8 8 16q2 14 4 31.5t18 25.5h13q14 0 24.5 -4t10.5 -20v-6l-82 -236 q-2 -4 -9.5 -21.5t-11.5 -25.5q-4 -10 -10 -16.5t-12 -16.5v-20q0 -2 -3.5 -13.5t-5.5 -17.5q0 -2 -2 -11.5t-4 -11.5q-2 -4 -7 -17t-12 -29.5t-12.5 -31t-7.5 -16.5q0 -4 -2 -11t-4 -11q-2 -2 -5 -17.5t-5 -19.5t-8 -21.5t-6 -21.5q-2 -6 -2 -10v-2l21 14t33.5 21.5 t34 21.5t21.5 14q4 2 19.5 10.5t34 19.5t36 20.5t25.5 15.5q4 2 17.5 8t21.5 10q12 6 21 9t24 3h10q4 -2 12.5 -6t8.5 -10v-18l-5 -9q-10 -14 -30 -20q-4 0 -19.5 -6t-19.5 -8q-8 -4 -13.5 -11.5t-15.5 -9.5q-6 -2 -18.5 -7t-25.5 -12t-25.5 -14.5t-18.5 -9.5 q-2 -2 -14.5 -10t-18.5 -12q-2 0 -9 -5.5t-9 -5.5q-4 -4 -7 -4t-7 -4q0 -2 -3.5 -5t-5.5 -5q-4 -2 -11 -6t-16.5 -9.5t-16.5 -10.5t-9 -7q-18 -10 -33.5 -22.5t-29.5 -26.5v-6v-4q31 -18 60.5 -41t57.5 -45q4 -4 14.5 -13.5t14.5 -13.5l30.5 -30.5l22.5 -22.5l111 -125 q0 -2 8 -9t12 -12q2 -4 11.5 -13t11.5 -11q8 -4 14 -13.5t6 -19.5q0 -14 -4 -20q0 -2 -4 -5.5t-6 -5.5q-8 -8 -22 -8q-33 0 -46.5 26.5t-25.5 49.5q-10 20 -23.5 36.5t-27.5 33.5q-4 6 -12.5 15t-17.5 20.5t-16.5 19.5t-9.5 10q-39 43 -80 72q-6 4 -23 14t-22 12 q-2 2 -21.5 14.5t-31.5 18.5h-6q-10 0 -14 -10q-12 -23 -23 -45q0 -4 -5 -18.5t-11 -31t-11.5 -31.5t-5.5 -19q-6 -20 -17 -39t-21 -41q-4 -8 -5 -21q0 -4 -3 -18.5t-3 -16.5l-8 -24t-14 -17h-11h-8q-2 0 -4 3l-4 4q-18 10 -18 28z" />
<glyph unicode="l" horiz-adv-x="280" d="M37 -29l2 6q4 20 15.5 39t21.5 35q2 4 5 9.5t3 7.5l186 495q2 4 9.5 26.5t11.5 33.5q2 4 6 21.5t6 21.5l154 473q0 6 4 14q2 4 2 8v31q2 0 3 5t3 7l8 17q6 8 14.5 9t18.5 1h8q16 -16 17 -37q0 -10 -2.5 -19.5t-6.5 -19.5t-12 -33.5t-17.5 -49t-17.5 -50.5t-12 -33 q-2 -2 -5 -14t-7 -17q-4 -10 -13.5 -23t-9.5 -24v-12v-4v-6l-108 -324q-6 -10 -12.5 -20t-8.5 -21q0 -2 -1 -2t-1 -2v-4q0 -2 -1 -9t-1 -9q0 -6 -2 -12.5t-6 -14.5q-2 -6 -11.5 -25.5t-11.5 -23.5l-88 -244q-2 -6 -5 -18.5t-8 -26.5t-8 -26.5t-5 -16.5q0 -2 -1 -2t-1 -2 l-2 -2l-3 -4l-20 -86q0 -2 -2 -8t-2 -11q-8 -16 -19.5 -34.5t-29.5 -18.5q-29 0 -37 25v14v10z" />
<glyph unicode="m" horiz-adv-x="874" d="M57 0q0 10 5.5 20.5t9.5 18.5l135 307l94 281q2 4 8 20.5t10 24.5q8 16 17.5 26.5t28.5 10.5q29 0 28 -31v-6q-16 -27 -27.5 -53.5t-23.5 -55.5q0 -2 -3 -10t-5 -12v-6l4 2l10 10q4 4 13.5 14t18.5 22.5t17.5 22.5t12.5 15q23 29 53.5 52t68.5 23q33 0 38 -26.5t5 -53.5 q0 -53 -12 -108q-4 -20 -9 -41t-11 -41q-2 -2 -5 -8t-6 -10q-2 0 -2 -2v-5q-10 -10 -10 -14q-4 -2 -5 -9t-1 -9l-43 -119l2 2q4 4 15.5 17.5t11.5 15.5l139 200q4 4 22.5 30t28.5 38q4 4 15.5 17.5t15.5 17.5t15.5 15t15.5 15q25 27 63.5 55.5t79.5 28.5q23 0 32 -19t9 -40 q0 -10 -1 -17.5t-3 -15.5q0 -8 -4 -20q-2 -8 -2 -12l-142 -480q-2 -4 -4 -12t-2 -12q-2 -4 -5 -24.5t-3 -24.5q-2 -16 -9 -37t-28 -21q-14 0 -25.5 9.5t-11.5 25.5q0 8 4.5 15.5t8.5 17.5q2 4 4 14t4 14v9q2 6 5 9l5 5q10 6 10 18l127 433q2 4 8.5 29.5t10.5 37.5v8q0 4 2 9 v6v6q-2 4 -11 4q-18 0 -40.5 -15.5t-36.5 -25.5q-6 -6 -19.5 -20.5t-17.5 -16.5q-2 -4 -9.5 -12t-15.5 -18.5t-15 -19.5t-9 -13q-6 -6 -19.5 -22.5t-28 -36t-27.5 -37t-18 -25.5q-2 -4 -11 -18.5t-21.5 -34t-23.5 -38t-17 -28.5q-4 -2 -16.5 -22.5t-14.5 -24.5q0 -2 -1 -2 t-1 -2l-2 -2l-27 -27q0 -2 -2 -4t-2 -4t-2 -2q-2 -2 -7 -11.5t-12 -20.5t-12.5 -20.5t-7.5 -11.5q-2 -4 -7 -11t-7 -7q-2 -2 -9 -11.5t-12 -13.5q-18 -14 -34 -14q-12 0 -21.5 6t-9.5 19q0 10 3 21t7 22l119 278q2 4 12 32l15 42q12 37 21 77t9 81v8q0 6 -10 6q-4 0 -8 -2 l-8 -4q-37 -23 -67 -54.5t-58 -66.5q-4 -4 -13.5 -17.5t-11.5 -17.5q-4 -8 -18.5 -29.5t-18.5 -25.5q-6 -10 -19 -32.5t-16 -27.5l-102 -225l-45 -119q0 -2 -6 -14t-10 -16q-8 -18 -23 -19q-20 0 -33 19v14z" />
<glyph unicode="n" horiz-adv-x="745" d="M68 -18q4 33 16 53l176 426q2 2 5 14t8.5 25.5t9.5 28t6 20.5q4 4 7 17.5t3 19.5q0 2 2 7t2 7v23q2 12 14.5 16t22.5 4q25 0 25 -31v-12v-4l-97 -234q-2 -4 -9 -27.5t-11 -33.5q0 -2 -2 -8t-4 -8v-2l6 4q6 8 19.5 26.5t29.5 40t30.5 41t20.5 27.5l8 9q9 9 18 20.5 t18 22.5t16 18q4 4 9 10t9 10l12 12t16.5 17.5t15.5 16.5l9 9q4 2 13.5 10.5t13.5 12.5q35 27 77 52.5t89 25.5q31 0 52 -18.5t26 -49.5q3 -5 3 -10l-1 -21q0 -41 -8.5 -79.5t-18.5 -77.5q-2 -10 -10 -32t-8 -26l-117 -270l-2 -4q0 -2 -1 -3t-1 -3v-4q-4 -16 -5 -31.5 t-18 -24.5l-4 -4q-2 -2 -4 -2h-8q-16 0 -27.5 10.5t-11.5 26.5q0 14 7 25.5t15 21.5l86 182q0 2 4.5 10.5t8.5 18.5t9 20.5t7 16.5q4 6 8 20.5t6 18.5q16 41 28.5 89t12.5 95q0 20 -7 35.5t-31 15.5q-16 0 -28.5 -5l-27.5 -11q-14 -4 -27.5 -12t-25.5 -19 q-27 -18 -49.5 -38.5t-44.5 -45.5q-4 -6 -16.5 -20t-26 -30.5t-24.5 -31t-17 -20.5q-4 -6 -14.5 -20.5t-21.5 -30t-21.5 -29.5t-14.5 -18q-4 -6 -13 -21.5t-21.5 -35t-24 -37t-15.5 -25.5q-4 -6 -17 -28.5t-17 -31.5q-4 -6 -13.5 -24.5t-20.5 -37.5t-20.5 -37.5t-11.5 -27.5 q-4 -10 -14.5 -17t-20.5 -7q-8 0 -17 9t-9 18v2z" />
<glyph unicode="o" horiz-adv-x="579" d="M39 53q0 39 15.5 79t31.5 75q61 117 150 217q2 4 10 13t15 18.5t14.5 17.5t9.5 12q4 2 13 12.5t20.5 20.5t20.5 20.5t13 14.5q2 2 18.5 14.5t22.5 18.5q16 14 38 27.5t50 13.5q6 0 27.5 1t28.5 1q2 0 4 1t4 1t5 1t5 1h2l2 -2q35 -23 62.5 -45.5t35.5 -69.5v-12v-25v-24 q0 -23 -6 -46.5t-14 -43.5q-23 -66 -59.5 -114t-88.5 -95q-4 -2 -12 -10.5t-12 -10.5q-86 -72 -193 -121q-23 -10 -47 -19t-49 -18q-16 -4 -29.5 -7t-29.5 -3q-78 0 -78 86zM86 53q0 -23 13.5 -26.5t31.5 -3.5q39 0 74 13t67 34q43 23 84 50t78 58q55 45 102.5 98.5 t63.5 122.5q10 27 10 45v27v18.5t-2 18.5q0 2 -1 8t-3 10q-6 23 -23.5 38.5t-39.5 15.5q-10 0 -31 -7.5t-27 -17.5q-4 -6 -7 -16.5t-6 -20.5t-8 -17t-16 -7q-6 0 -13 6t-9 12v23l-2 2h-2q-6 0 -10 -5q-4 -4 -14.5 -12t-14.5 -12q-4 -2 -10 -8t-6 -8q-4 -4 -17.5 -15.5 t-17.5 -15.5q-2 -4 -8.5 -11.5t-8.5 -9.5q-41 -41 -74.5 -87t-64.5 -95q-25 -37 -43 -78t-35 -86q-10 -16 -10 -41z" />
<glyph unicode="p" horiz-adv-x="735" d="M-41 -274q2 2 3 7t1 7l111 248q0 2 5 14t10 26.5t10 28t7 21.5q2 2 7.5 17.5t9.5 21.5v12q0 10 -3 19.5t-3 19.5q0 14 10 20q20 10 29.5 29t17.5 37q2 2 6 11t6 14q0 2 4.5 13t8.5 24.5t8 25.5l6 18q0 2 2 9.5t2 9.5q2 6 6 22.5t6 20.5l78 184q2 2 3 7t3 8q2 4 10.5 23.5 t10.5 23.5q4 4 7 10t9 8q2 0 6 1t6 1h5q10 0 16 -9t6 -17q0 -23 -12 -40.5t-25 -33.5q0 -4 -5 -11.5t-7 -9.5q-2 -4 -4 -10t-2 -10v-2q0 -2 2 -2q29 16 56.5 27.5t58.5 21.5q74 29 147 29q111 0 184 -76q16 -20 27 -47q10 -18 13 -39t5 -39v-12v-7l-2 -2v-10q0 -31 -11 -59 q-13 -33 -34 -62q-12 -14 -25.5 -26.5t-29.5 -26.5q-10 -14 -25.5 -24.5t-31.5 -22.5q-41 -27 -88.5 -44.5t-94.5 -29.5q-4 -2 -19 -4t-20 -2q-4 0 -27.5 -3t-35.5 -5h-18h-9h-19t-20 4q-4 0 -19 3t-32.5 7t-33 7t-19.5 5t-13.5 4.5t-13.5 2.5h-6h-8q-2 -4 -4 -7.5t-2 -7.5 l-105 -266q-2 -6 -7 -20.5t-10 -31t-10 -30.5t-7 -20q-4 -14 -13.5 -24.5t-25.5 -10.5h-8q-10 2 -15.5 11.5t-5.5 19.5zM199 174q0 -4 6 -7l10 -5q63 -35 139 -35q47 0 94.5 11.5t92.5 27.5q6 2 30.5 11t32.5 13q59 27 107 82q4 4 18 25.5t19 30.5q10 10 17 25.5t7 31.5 q0 2 1 11.5t1 13.5v12q0 76 -50 112.5t-120 36.5q-37 0 -73.5 -6t-69.5 -18q-23 -10 -45.5 -20.5t-44.5 -22.5q-12 -6 -26.5 -15.5t-25.5 -17.5q-8 -4 -16 -11t-12 -18q-4 -10 -15.5 -34.5t-13.5 -30.5q0 -2 -1 -2t-1 -2l-2 -2q0 -4 -7 -26.5t-9 -27.5q-2 -2 -5.5 -12 t-7.5 -10q0 -2 -1 -4t-1 -4q-10 -27 -16 -53.5t-12 -55.5v-4z" />
<glyph unicode="q" horiz-adv-x="716" d="M88 70q0 31 8 61.5t23 56.5q33 70 67.5 135.5t81.5 127.5q2 4 14.5 22.5t18.5 24.5q57 72 133 129q4 2 9.5 6t7.5 6q4 0 8 1t8 1q2 0 9 4t9 6q14 4 27.5 5t28.5 1h16q14 0 25 -6q4 0 10 -4t8 -6q6 0 6 -4q4 -2 9.5 -7t9.5 -9q2 0 2 -3q0 -4 2 -4q4 -6 7 -14t7 -12 q8 -18 10 -38t2 -38q0 -35 -10 -65.5t-10 -61.5v-10q2 -10 9 -21.5t7 -23.5q0 -2 -2 -6q0 -2 -4 -11q-2 -4 -2 -8l-227 -477q-2 -4 -8.5 -20.5t-15.5 -37t-17 -42t-13 -33.5q0 -2 -3 -10.5t-7 -19.5t-8 -21.5t-6 -16.5q0 -4 -4 -16t-6 -17q-2 -4 -2 -10q-2 -6 -2 -16 q0 -2 -1 -2t-1 -2v-4v-6q0 -6 4 -7q23 0 41 7q35 10 67.5 20t61.5 27q8 0 8 6q4 2 17.5 11t17.5 11q4 4 11 5t11 6q4 4 17.5 11t15.5 9q6 4 13 8t9 13v24q8 16 28 23.5t36 7.5t25.5 -12.5t9.5 -26.5t-13 -21q-23 -20 -47 -40.5t-47 -36.5q-2 0 -6 -2.5t-8 -4.5q-2 -2 -9 -5 t-10 -3q-2 -2 -10 -8t-18 -12t-18.5 -11.5t-10.5 -5.5q-2 -2 -8 -4t-6 -4q-4 0 -17.5 -7t-15.5 -9q-25 -14 -52.5 -23.5t-56.5 -17.5q-14 -4 -28.5 -6t-26.5 -2q-14 0 -36.5 5t-26.5 21v8v11q0 2 1 9t3 11q4 8 10 28.5t8 22.5l195 455q0 2 1 11.5t5 13.5q0 2 2 4v4h-4 q-4 -4 -12.5 -9.5t-12.5 -9.5q-2 0 -10 -8t-10 -8q-2 -4 -13.5 -12t-15.5 -13q-10 -10 -22.5 -16t-22.5 -10q-23 -10 -40 -16.5t-38 -14.5q-18 -8 -39.5 -13t-42.5 -5q-53 0 -75.5 40t-22.5 87zM137 59q0 -20 7.5 -35.5t29.5 -21.5h14q66 0 127.5 32t106.5 75 q35 33 63.5 68.5t51.5 76.5q4 6 9 18.5t7 12.5l47 121q16 45 16 90q0 35 -10 62.5t-47 37.5h-8q-4 0 -19.5 2t-19.5 2h-6h-2h-6q-33 -14 -52 -33q-27 -23 -51 -45t-47 -51q-96 -115 -168 -246q-12 -23 -19 -46t-11 -46q-4 -18 -8.5 -37t-4.5 -37z" />
<glyph unicode="r" horiz-adv-x="589" d="M33 -31q0 10 2 21.5t6 21.5q4 8 9 21.5t10.5 27t9.5 23.5t6 14l96 211q2 4 6 17.5t6 17.5q2 6 7.5 19.5t10.5 29t9 27.5t4 16t3 18.5t7 31t7.5 31.5t5.5 22q2 8 6 31.5t6 31.5q0 2 2 12.5t3 21.5t3 21.5t2 12.5t1 7t1 9q0 2 1 3t1 3q2 8 11.5 14.5t19.5 6.5q20 0 37 -21 q4 -4 3 -9t-1 -11v-8l-72 -248v-2v-2v-6l4 4q2 2 12.5 15t14.5 15q2 6 10 14.5t16.5 17.5t14.5 17.5t8 10.5t11 12t21.5 21.5t23 22.5t16.5 17q4 4 14 12.5t14 12.5q6 4 19.5 15.5t17.5 13.5q4 4 20.5 15t20.5 15q23 16 47.5 28.5t53.5 12.5t46 -21.5t23 -49.5q0 -4 3 -21.5 t3 -21.5q2 -2 8.5 -15.5t6.5 -15.5q3 -3 3 -8l-1 -13q0 -16 -7.5 -29.5t-27.5 -13.5q-35 0 -45 39q-2 8 -2 25q0 12 1 24.5t1 22.5v16q-4 16 -17 17q-6 0 -10 -2q-29 -8 -54.5 -24.5t-51.5 -33.5q-53 -39 -98.5 -87t-79.5 -101q-6 -10 -17.5 -28.5t-25 -38t-24.5 -36 t-13 -22.5q-4 -4 -11.5 -16.5t-15.5 -27.5t-16.5 -28.5t-10.5 -19.5q-55 -106 -92 -217q-8 -12 -26 -12q-12 0 -24.5 7t-12.5 23z" />
<glyph unicode="s" horiz-adv-x="806" d="M100 41v8q0 8 4 12q2 6 15 15q6 6 16 6q18 0 35.5 -14.5t34.5 -20.5q8 -4 15 -4t16 -2q25 -4 49 -6t51 -2q33 0 64.5 5t62.5 11q6 0 36.5 7t43.5 12q4 2 15 4t15 4q8 4 25.5 8t22.5 6q6 2 23.5 9t21.5 10q2 2 16 8t23 10q27 14 55 41t28 61q0 25 -23.5 44.5t-45.5 31.5 q-4 4 -17.5 10.5t-15.5 8.5q-4 2 -21.5 8t-21.5 8q-6 2 -16.5 6t-22.5 8t-21.5 7.5t-11.5 3.5l-270 65q-29 10 -54.5 28.5t-37.5 47.5q-2 2 -2 4q-2 2 -2 6v2q16 20 40.5 33.5t47.5 23.5q27 12 54.5 21.5t55.5 17.5q74 20 148 37q33 4 63.5 8.5t59.5 4.5q20 0 51 -2.5 t60.5 -10.5t50 -24.5t20.5 -44.5v-13q0 -2 -1 -3t-1 -3q-4 -12 -13.5 -25.5t-25.5 -13.5q-10 0 -15 7.5t-8.5 17.5t-7.5 20.5t-12 16.5q-23 12 -47.5 13t-50.5 1h-22.5t-22.5 -2q-66 -8 -131.5 -22.5t-130.5 -32.5q-8 -2 -19.5 -6.5t-19.5 -8.5l-17.5 -7t-13.5 -11v-4 q0 -4 3 -4t5 -2q2 0 6 -2t6 -2q2 -2 9 -2q2 0 6 -2l248 -68q6 -2 31.5 -10t35.5 -13q4 0 21.5 -7t25.5 -11q39 -16 72 -37q53 -31 74 -82q4 -8 4 -16v-17v-16q0 -14 -7.5 -29.5t-13.5 -25.5q-18 -25 -41 -47q-2 0 -7 -5.5t-9 -7.5q-51 -35 -107.5 -58.5t-115.5 -39.5 q-8 -4 -27.5 -7t-23.5 -5q-6 -2 -24.5 -5t-25.5 -5q-6 -2 -20 -3.5t-19 -1.5h-38h-39q-8 0 -31 2.5t-47.5 4.5t-47 4t-30.5 2q-4 0 -17.5 1t-17.5 1q-16 4 -25.5 19.5t-9.5 31.5z" />
<glyph unicode="t" horiz-adv-x="643" d="M139 590q0 23 22.5 29t39.5 6h22q23 0 43.5 -1t42.5 -1h42.5t41.5 2q2 0 21.5 1t29.5 3q16 2 22.5 6t10.5 18q4 8 4 15q2 8 8.5 24.5t12.5 34.5t11 33.5t7 21.5q2 10 6 24.5t4 29.5q0 10 -4 21t-4 22v8q0 2 1 4t1 4q8 14 34 36.5t42 22.5q20 0 21 -22q0 -18 -4.5 -36.5 t-10.5 -37.5q0 -4 -4 -14l-6 -15l-51 -127q-2 -4 -6 -17t-7 -19q0 -4 -1 -8.5t-1 -6.5v-4q0 -10 7 -12h24h26.5t28.5 2q2 0 12.5 1t23 3t23.5 3t13 1q29 2 55.5 3t55.5 1q16 0 32.5 -2t28.5 -16q2 -6 2 -21q0 -20 -12 -30q-6 -6 -21 -7h-10q-4 0 -7 2.5t-5 2.5 q-35 12 -70 12h-69v-2h-95q-2 0 -8 -1t-10 -1q-18 -4 -30.5 -9.5t-22.5 -23.5q-6 -16 -18.5 -45t-12.5 -31l-141 -397l-25 -100l-2 -3v-4q-6 -6 -6 -14q-2 -2 -5 -8t-3 -8q-4 -4 -7 -4h-8q-10 0 -17 3t-17 7q-2 2 -5.5 5t-7.5 3q-4 4 -4 10v13v6l115 270l94 268q0 2 4 11.5 t4 15.5q4 8 4 14v2l-12 3t-10 1h-12l-172 -12h-74q-6 0 -14 4q-10 14 -11 27z" />
<glyph unicode="u" horiz-adv-x="735" d="M113 -12q0 27 5 53.5t13 52.5q2 6 6 19.5t4 17.5l125 344l76 168q4 4 9 22.5t7 22.5q4 8 11.5 16.5t17.5 8.5q25 0 37 -23q2 -2 2 -14q0 -10 -2 -18.5t-6 -18.5q-4 -6 -10.5 -18.5t-8.5 -16.5l-77 -129l-95 -242q-2 -6 -11 -34.5t-13 -42.5q-10 -25 -15.5 -52.5 t-5.5 -54.5q0 -4 1 -11t5 -11h9q16 0 33.5 7t31.5 15q4 2 12.5 8t12.5 11q23 12 42 29.5t38 33.5q6 4 16 15.5t21.5 22.5t20.5 20.5t13 11.5q4 6 15.5 19t26 29.5t26.5 30t16 19.5q2 4 11.5 15.5t19.5 23.5t19.5 24.5t13.5 18.5q4 4 14 20.5t14 22.5q2 0 6.5 5t4.5 9 q4 10 19 42t20 42q16 35 20 70t23 70q6 10 19 24t26 16h8h10q8 -2 12 -10v-12q0 -23 -7 -42.5t-17 -37.5l-178 -563q0 -4 -4.5 -17.5t-6.5 -17.5q0 -4 -3 -16.5t-3 -14.5q-4 -16 -10 -36.5t-25 -24.5h-10q-18 0 -24.5 8.5t-6.5 24.5q0 29 12.5 51t22.5 49q2 4 7.5 17.5 t7.5 17.5q2 8 8 28.5t13 44t13.5 45t8.5 29.5q4 6 8 20.5t6 18.5q0 4 8 19.5t8 19.5q4 6 4 19q0 6 -2 14t-8 8q-8 -4 -12 -8q-2 -4 -7 -17.5t-10 -17.5q-6 -6 -6 -10l-151 -178q-2 -4 -21.5 -23.5t-29.5 -30.5q-41 -39 -92.5 -72.5t-110.5 -33.5q-14 0 -29.5 1t-19.5 17 l-2 4v2v11z" />
<glyph unicode="v" horiz-adv-x="600" d="M209 -8l82 598q4 12 6 22.5t14 18.5q6 2 11.5 4t9.5 2q10 0 17 -8t7 -19v-18v-23q0 -4 -2 -17t-4 -17l-51 -283q0 -2 -1 -12.5t-3 -24.5t-3 -28.5t-3 -22.5q0 -2 -1 -9.5t-1 -9.5v-28l4 -2h2l2 2l4 4q4 2 8 7t6 7l336 410q2 4 10.5 15t17.5 23.5t17 22.5t13 15 q12 16 24 29.5t35 13.5q16 0 20.5 -15.5t4.5 -27.5q0 -35 -31 -46q-14 -4 -25.5 -7t-21.5 -15l-234 -285q-2 -2 -18.5 -22.5t-24.5 -30.5q0 -2 -4 -8t-6 -8q-2 -4 -9 -13.5t-16.5 -20.5t-16.5 -21.5t-9 -14.5l-90 -131q-4 -4 -8.5 -9t-12.5 -5q-4 0 -7 1t-7 1h-2 q-8 -4 -13.5 -6.5t-11.5 -2.5q-14 0 -14 13v2z" />
<glyph unicode="w" horiz-adv-x="862" d="M98 -47q0 2 3 8t3 8l2 4q0 2 3 4q4 8 8 25l4 16l53 211l156 486q4 10 14 17t21 7q12 0 18 -11t6 -26v-6l-125 -340v-26l-82 -258v-4q0 -6 6 -7q4 0 5 2q23 12 40 30t33 38l254 340q4 4 11.5 9t11.5 12q2 4 9 13t11 15q4 4 12.5 16.5t10.5 16.5q2 2 7 13.5t9 15.5 q8 14 12 25t21 18q4 2 10 2q10 0 20.5 -8.5t10.5 -18.5v-8q0 -18 -8.5 -34.5t-12.5 -35.5l-69 -293l-15 -65v-6q0 -14 9 -23l22 23q4 6 14.5 21.5t14.5 19.5l237 358q2 4 9.5 16.5t15.5 25.5t15 25.5t12 16.5q8 16 20 31.5t33 15.5q16 0 21 -15.5t5 -29.5q0 -18 -6 -28.5 t-22 -18.5q-2 0 -11.5 -2t-9.5 -4l-6 -4q-2 -4 -6 -6t-4 -5l-221 -335l-105 -177q-2 -4 -12 -18t-14 -22q-8 -12 -16.5 -22.5t-18.5 -20.5q-8 -8 -25 -9q-27 0 -33 27v12q0 16 6.5 32.5t10.5 35.5l63 319q0 4 1 12.5t1 12.5v8v10q0 8 -8 9q-8 0 -12 -9l-262 -356l-123 -150 q-2 -2 -7 -8t-7 -8t-3.5 -2t-3.5 -2h-6h-8h-4q-2 0 -4 2q-4 2 -8 2t-9 2q-4 0 -6 4t-2 8v11v10z" />
<glyph unicode="x" horiz-adv-x="657" d="M76 59q0 16 11 19.5t22 7.5h4q2 0 4 2l18 21l187 231l2 2l2 2q0 6 -3.5 14.5t-5.5 12.5t-10 21.5t-16 38t-15.5 38.5t-9.5 23q-4 4 -11 25.5t-9 29.5q-10 31 -18.5 62.5t-8.5 64.5v18q4 12 17 17h12q10 0 20.5 -2t14.5 -17q2 -39 5 -74.5t13 -70.5q2 -4 6 -18.5t10.5 -30 t10.5 -28.5t6 -19q2 -4 3 -9.5t3 -5.5q2 -4 7 -11t5 -11l10 -15q4 4 9.5 7.5t9.5 7.5l188 180q4 2 18.5 14t22.5 21q14 10 35 24.5t43 14.5h6q6 0 11.5 -7.5t7.5 -11.5v-6q0 -8 -2 -12l-13 -13l-170 -143l-47 -47q-20 -23 -40.5 -44.5t-41.5 -45.5q-2 -2 -2 -4t-2 -2v-2 q2 -10 7.5 -19.5t9.5 -19.5q4 -6 13 -20.5t11 -18.5l99 -141q4 -2 20 -25t27 -35q6 -6 13 -14t15 -12q4 -2 12.5 -6.5t10.5 -6.5q14 -12 14 -30q0 -14 -7 -33t-19 -25q-4 -2 -11 -2h-8q-6 2 -11 11.5t-9 13.5q-4 10 -8.5 22.5t-10.5 22.5l-201 280l-4 4q-2 2 -2 5h-4 q-10 0 -12 -7l-160 -209q-2 -4 -8 -12t-10 -10q-2 -2 -9.5 -10t-11.5 -11q-6 -6 -14 -6q-16 0 -33.5 14.5t-17.5 30.5z" />
<glyph unicode="y" horiz-adv-x="696" d="M39 -326q0 20 10 31q4 4 14.5 15.5t14.5 15.5q4 6 7 12l7 14q10 16 22.5 32t22.5 32l4 4q2 2 2 3t2 3t8.5 9.5t14.5 15.5t14 15t8 11l187 246l4 4q2 2 2 3t2 3v4l-10 29l-207 430q-4 6 -7 13.5t-3 13.5q0 14 12 21.5t25 7.5q6 0 15 -11.5t13 -19.5q4 -4 10.5 -17.5 t8.5 -13.5l145 -307q2 -4 8 -15.5t11 -17.5q2 -2 5 -7t5 -9q6 -10 18 -19q4 -4 8 -4h4q8 0 9 6q47 72 100 138q4 4 9 10t11 10q2 4 10.5 14.5t17.5 20.5t16.5 20.5t11.5 14.5q8 10 13 21t13 22l189 245q2 0 7 5.5t7 7.5q8 6 19 6q25 0 36 -14v-5v-10v-13t-4 -11l-88 -93 l-211 -254l-200 -274q-6 -8 -16.5 -13t-18.5 -16q-2 -4 -7 -10t-5 -10q-4 -4 -13.5 -18.5t-21 -30t-20.5 -28.5t-11 -19l-125 -166q-2 -2 -12 -16.5t-15 -18.5q-2 -2 -2 -4q-2 -2 -2 -4q-6 -6 -6 -10t-7 -25t-9 -25q-4 -2 -7 -9t-5 -11q-6 -12 -15 -19q-4 -4 -9 -4h-9h-10 q-6 0 -7 4q-12 4 -16 15.5t-4 23.5z" />
<glyph unicode="z" horiz-adv-x="792" d="M111 29v10q0 12 4 18q6 6 10 6q4 2 15.5 9.5t23.5 14.5t24.5 13t16.5 11q6 4 21.5 14t30.5 20.5t29.5 19.5t18.5 13q6 4 21.5 16.5t33 24.5t33 23.5t21.5 15.5q18 12 37.5 23.5t35.5 25.5q4 2 21.5 16.5t21.5 16.5q2 2 10.5 9t18.5 14.5t20.5 14.5t14.5 11q4 2 11 7 t11 10q4 2 23.5 13t24.5 13q16 10 34.5 24.5t28.5 30.5q2 4 4 6.5t2 4.5q0 4 -8 4q-23 6 -49 6q-23 0 -46.5 -3t-45.5 -3q-4 0 -25.5 -1t-26.5 -1q-8 0 -32.5 -2t-32.5 -4t-29.5 -5.5t-46 -6.5t-47 -6t-31.5 -3q-4 0 -21.5 -1t-21.5 -1h-14h-12h-6q-14 14 -15 35q0 4 1 12 t9 8l121 17l291 16q20 4 39 4q10 0 20.5 -1t20.5 -1q6 -2 20.5 -4t31 -5t30.5 -5t18 -4q10 0 21 -15q2 -4 2 -16q0 -16 -9.5 -27.5t-21.5 -19.5q-4 -4 -15 -11.5t-22.5 -15.5t-20.5 -14t-11 -8q-18 -14 -39 -21.5t-39 -21.5l-254 -172q-12 -8 -20.5 -18.5t-20.5 -18.5 q-4 -4 -17.5 -10.5t-17.5 -8.5t-15.5 -8t-15.5 -10l-4 -4q-2 -2 -4 -2t-2 -2q-2 -2 -5 -6t-7 -4q-4 -8 -4 -11q0 -4 2 -6q6 -2 22.5 -4t32.5 -4t32.5 -4t22.5 -2q10 -2 37 -4t33 -2l352 -13q2 0 9.5 -1t9.5 -1q4 0 16 -2t16 -2q18 -4 31.5 -11t13.5 -30q0 -18 -18 -24 q-16 -4 -27 -4q-31 0 -57.5 9t-56.5 11l-449 19h-10q-33 0 -64.5 -10.5t-66.5 -10.5q-16 0 -31.5 5t-21.5 22z" />
<glyph unicode="{" horiz-adv-x="475" d="M109 -70q0 43 13 84t34 76q4 6 12 18.5t8 14.5l103 139q6 6 6 19q0 12 -10.5 18t-23.5 9t-26.5 3t-21.5 2q-6 2 -14.5 5.5t-12.5 9.5v2v45l6 2q6 0 22.5 2t35 5t35 5t22.5 2q29 4 57.5 14.5t53.5 26.5l6 6q39 35 63.5 81t24.5 99q0 29 -9.5 62t-23.5 59l-68 113 q-27 47 -26 94q0 23 5 43.5t19 36.5q49 66 108.5 116t133.5 89q4 0 12.5 5t12.5 5h2q10 0 19 -13.5t9 -21.5q0 -6 -4 -12q-8 -8 -16 -15.5t-17 -13.5q-4 -2 -13 -9t-13 -9q-2 0 -10.5 -5t-17.5 -11.5t-17 -11.5t-10 -5q-10 -8 -21.5 -14t-21.5 -15l-64 -67q-6 -6 -9 -13.5 t-7 -13.5q-10 -20 -11 -53q0 -33 17 -59q2 -6 10 -19.5t17.5 -29t16.5 -30t9 -20.5q23 -35 35 -73.5t12 -79.5q0 -45 -14.5 -82t-38.5 -78q-2 -4 -8 -10t-6 -11q-4 -8 -16.5 -22t-14.5 -18q-20 -23 -48 -35.5t-57 -26.5v-2v-2q6 -18 7 -35q0 -25 -10.5 -44t-24.5 -36 q-2 -2 -10.5 -12t-17.5 -20.5t-17.5 -20.5t-10.5 -12q0 -2 -6 -8q-4 -6 -12 -18.5t-18.5 -28t-18.5 -27.5t-12 -19q-18 -29 -30.5 -58.5t-12.5 -59.5q0 -18 5 -37t11 -37q4 -14 11.5 -26.5t17.5 -26.5t21.5 -25.5t23.5 -24.5q2 -2 6 -5t6 -5q41 -33 91.5 -53t103.5 -33 q16 -8 17 -18t1 -25v-16q0 -10 -10 -10h-14h-19h-6q-27 6 -48.5 20t-43.5 25q0 2 -9.5 4t-11.5 2q0 2 -6 5l-10 5q-2 0 -4 2q-2 0 -2 2q-4 4 -18.5 13.5t-18.5 13.5q-14 10 -29.5 19t-29.5 22q-43 41 -66.5 90t-23.5 108z" />
<glyph unicode="}" horiz-adv-x="563" d="M-111 -461q0 16 11.5 30.5t27.5 14.5h9q2 0 11 -3t13 -3q10 -2 19.5 -2h19.5q78 0 141 47q2 2 11.5 9.5t19.5 15.5t19.5 15t13.5 11q14 10 27.5 24.5t23.5 27.5q2 2 5 9t5 11q31 55 45.5 115.5t14.5 126.5q0 68 -17 139q0 4 -4 22.5t-6 26.5q-4 16 -9 29.5t-5 30.5 q0 53 41 87.5t84 57.5v2v2q-6 14 -18.5 25.5t-24 23.5t-20.5 24.5t-9 30.5q0 10 4 20.5t8 22.5q4 10 6 20.5t6 20.5q10 20 27 37t33 31l102 74q2 2 9.5 8t9.5 8q66 55 84 143q6 37 6 68q0 55 -17 117q-2 4 -6 18.5t-6 18.5q-2 2 -7 14t-7 18q-14 29 -36 51.5t-48 39.5 q-6 2 -19.5 10t-30 17t-30.5 16.5t-20 11.5q-4 2 -15.5 9t-15.5 11q-2 2 -2 6q0 10 12 25.5t21 15.5h2q59 -12 108 -41.5t90 -72.5q12 -16 22.5 -31.5t18.5 -34.5q2 -4 11.5 -20.5t9.5 -20.5q10 -18 16 -43q4 -6 4 -13t2 -17q0 -2 1 -12.5t1 -14.5q0 -6 2 -10v-6q0 -2 2 -5 l2 -4v-30v-31q-2 -16 -4 -30.5t-6 -31.5q-2 -6 -6 -30.5t-6 -28.5q-6 -27 -16.5 -53.5t-28.5 -48.5q-29 -35 -66 -56q-41 -27 -73.5 -50t-61.5 -62q-6 -8 -11 -17.5t-5 -19.5v-4q4 -23 24.5 -42.5t36.5 -29.5q2 -2 11.5 -8t18.5 -13.5t18 -12.5t12 -7q8 -4 15 -10t11 -14v-9 q0 -12 -2 -16l-10 -10q-2 0 -4 -1t-4 -1q-35 -4 -68 -11.5t-65 -25.5q-4 -2 -8.5 -4t-6.5 -4t-8 -9.5t-10 -9.5q-10 -12 -13.5 -27.5t-3.5 -29.5v-19q0 -4 2 -15t2 -15q2 -6 4.5 -21.5t5.5 -33t6 -33t3 -21.5q0 -4 1 -18.5t1 -18.5v-14v-16q-2 -45 -7 -91.5t-20 -89.5 q-4 -4 -10 -19t-6 -20q-35 -76 -102.5 -138t-145.5 -87q-29 -8 -54.5 -10t-51.5 -4q-12 -4 -23.5 -9.5t-25.5 -7.5h-11h-10q-6 0 -12 7q-15 10 -15 26z" />
<glyph unicode="~" horiz-adv-x="798" d="M358 799v18v21q0 10 7.5 26.5t17.5 22.5q4 2 12 2q4 0 11.5 -3t11.5 -7v-19q0 -16 -3 -32.5t-3 -32.5q0 -27 12 -37l6 -6q29 12 54.5 29.5t47.5 35.5q33 29 68 58.5t72 52.5q16 6 31.5 11t31.5 5q33 0 57.5 -17.5t38.5 -45.5q2 -4 12.5 -23.5t12.5 -23.5q0 -6 6 -13 q8 -10 18.5 -19t20.5 -20q4 -8 4 -14q0 -10 -8 -34.5t-23 -24.5q-6 0 -14 8q-2 2 -6 10l-6 12q-2 2 -8 13.5t-12.5 22.5t-11.5 21.5t-7 12.5q-12 18 -25.5 34.5t-31.5 30.5q-12 6 -23 7q-16 0 -31.5 -8.5t-29.5 -18.5l-162 -131q-2 -4 -6 -6t-6 -4t-5 -2q-25 -16 -57 -17 h-14q-10 2 -27 11q-18 18 -24 38q0 6 -3.5 22.5t-3.5 20.5t-1 7.5t-1 5.5z" />
<glyph unicode="&#xa0;" horiz-adv-x="0" d="M0 121v20v21q0 2 1 5t1 7q8 45 17.5 87t29.5 83q45 100 115 184q16 23 33.5 40.5t40.5 33.5q10 10 22 19.5t23 19.5q29 20 64.5 36.5t74.5 16.5q45 0 72 -35l8 -8q31 -53 30 -112q0 -18 -3 -38t-7 -40q0 -4 -4 -14.5t-4 -12.5q-4 -12 -20 -12q-25 0 -34 17.5t-9 39.5 q0 27 5 50.5t5 48.5q0 14 -2 27t-17 22q-6 6 -12 6h-6q-12 0 -22.5 -5t-22.5 -10q-14 -4 -26.5 -7t-24.5 -11l-2 -2q0 -2 -2 -2q-8 -4 -23.5 -14.5t-15.5 -12.5q-45 -37 -86 -81t-73 -95t-51.5 -106.5t-19.5 -116.5q0 -23 3 -49.5t24 -40.5q14 -16 32.5 -19.5t39.5 -3.5 q31 0 59.5 6.5t56.5 14.5q29 4 56.5 14t56.5 21q43 20 85 44.5t85 51.5q2 2 11 8t19.5 13.5t20.5 13.5t14 8t7.5 3t7.5 1q10 0 14 -2q23 -14 23 -37q0 -18 -19 -29l-223 -108q-2 -2 -13.5 -7t-25.5 -11.5t-27.5 -12.5t-19.5 -8q-4 -2 -22.5 -8t-24.5 -10q-29 -8 -59.5 -15.5 t-59.5 -7.5q-61 0 -113.5 29.5t-62.5 91.5z" />
<glyph unicode="&#xa2;" horiz-adv-x="581" d="M199 373q0 59 28 112q2 4 11.5 22.5t9.5 20.5v2q0 4 2 7q2 4 4 6q12 31 35 53q4 4 11 13t9 12q2 2 10.5 9t17.5 16t16 16.5t12 11.5q16 16 34.5 30.5t40.5 24.5q10 4 20.5 5t20.5 9l2 5q0 2 1 2t1 4q0 2 3.5 15t3.5 17q6 33 15 65t23 60q6 8 21 9q18 0 27 -19v-10 q0 -12 -3 -23q-14 -29 -24 -58.5t-10 -59.5q0 -2 -1 -4.5t1 -6.5q6 -6 8 -6t10 -4t10 -6q2 0 4 -2q4 -4 5 -6q10 -12 18 -29.5t8 -34.5q0 -29 -24 -28q-2 0 -5 2q-4 4 -7 8t-5 8l-12 25l-2 8q-6 12 -19.5 16t-27.5 4q-12 0 -25.5 -3t-23.5 -13q-2 0 -7.5 -6t-7.5 -8 q-4 -2 -20.5 -14.5t-20.5 -16.5l-10 -10q-6 -4 -19.5 -17.5t-17.5 -13.5q-2 -4 -10 -15.5t-10 -15.5q-20 -25 -37 -49.5t-29 -52.5q-10 -20 -15 -40t-5 -42q0 -63 59 -82q14 -4 25.5 -4h27.5h23q2 0 6 1t6 1q29 6 59.5 13t59.5 20q2 4 16.5 8t20.5 8h4q2 0 2 2l25 27 q2 0 4 2q2 0 2 1t2 1t4 2h10q29 0 39 -12q4 -4 4 -13q0 -10 -7 -15t-15 -11q-41 -27 -87.5 -43.5t-93.5 -30.5q-6 -2 -9 -7t-5 -7t-5 -8.5t-3 -8.5q-2 -4 -5 -13t-3 -13q-2 -6 -4.5 -17.5t-5.5 -25t-5 -24.5t-2 -15q-4 -16 -11 -34t-28 -18q-27 0 -30 23v14v15v6q6 27 17 48 t17 46q0 2 1 6t1 6v15h-43q-23 0 -38 8q-39 12 -59.5 48t-20.5 77z" />
<glyph unicode="&#xa3;" horiz-adv-x="849" d="M57 51v25l2 4q2 2 13 10q0 -2 10 4q4 0 8 2l8 4q33 10 64 22.5t65 20.5q14 4 26.5 5.5t25.5 3.5q12 6 18 20l63 160q0 2 4.5 12t8.5 23.5t8 26t6 18.5q2 8 9 35.5t12 37.5q2 10 6 28.5t4 21.5v8l-4 2q-2 0 -7.5 1t-7.5 1h-2q-16 0 -30.5 -2t-30.5 -2h-14h-7l-16 16 q-4 2 -3 5t1 5q0 18 10 25q8 4 23.5 7t25.5 5h17q8 0 26.5 1t24.5 1q6 2 11 8.5t9 10.5l50 186q20 66 54 118t87 93h4h2l4 -2q2 -2 4 -2h6q14 -8 15 -25q0 -20 -14.5 -27t-30.5 -18q-12 -8 -19.5 -18t-15.5 -25q-29 -47 -49.5 -98t-32.5 -104q-2 -4 -6 -23.5t-4 -28.5 q0 -2 -2 -12t-2 -14v-2q0 -4 6 -5.5t10 -3.5l12 -4t13 -2h53q16 -2 31.5 -5t29.5 -15q4 -4 4 -19q0 -8 -3 -12t-7 -12q-2 0 -8 -6t-8 -9q-4 -6 -17 -6h-8q-20 12 -42.5 21.5t-49.5 9.5q-8 0 -13 -1t-14 -3q-20 -6 -20 -23q0 -4 -3 -14t-3 -14q-2 -10 -9.5 -38t-15.5 -57.5 t-16 -57t-13 -38.5q-2 -8 -8 -28.5t-14 -43t-15.5 -44t-9.5 -29.5v-2q0 -2 2 -4l125 -41q31 -10 57.5 -25.5t51.5 -38.5h8q4 0 8 2t8 2t7.5 -2t7.5 -2q12 0 23.5 3t21.5 3q8 0 16 -2t13 -10q4 -6 4 -13v-11v-15q-4 -4 -15 -12q-16 -6 -31.5 -9t-31.5 -5q-4 0 -21.5 -1 t-23.5 -1h-2h-2q0 2 -2 2q-4 0 -5 2l-22 22q-35 27 -75 47.5t-83 26.5q-16 4 -31.5 4h-31.5h-21l-4 -2q-27 -37 -62.5 -51.5t-80.5 -14.5q-23 0 -41.5 2.5t-40.5 8.5q-2 0 -4 2q-2 0 -4 2h-2q-2 2 -6 10q-2 4 -7 6z" />
<glyph unicode="&#xa5;" horiz-adv-x="1015" d="M143 467v14l4 4l7 7q4 4 11 4h13h49h52q4 0 22 -1t39.5 -1t41 -1t24.5 -1h8q18 0 35.5 1t37.5 3q6 0 7 4v12l-168 489v5q0 16 11 21t23 5q8 0 13.5 -1t13.5 -5l2 -2q2 -6 6 -24.5t9.5 -39t9.5 -39t6 -24.5t7 -22.5t11 -35t11.5 -35l7.5 -22.5t10 -28.5t18.5 -48t18.5 -49 t10 -29.5q0 -4 8 -28t10 -28q0 -8 7 -14q2 -2 4 -8t4 -8q4 -4 4 -9.5t4 -5.5q23 6 42 19.5t36 25.5q4 4 11 10.5t7 8.5l408 399q4 4 16 4q25 0 37 -18q0 -2 1 -3t1 -3v-4q0 -14 -4 -17q-16 -10 -30.5 -18t-24.5 -21q-4 0 -12.5 -7t-12.5 -11q-2 -2 -16.5 -17.5t-16.5 -19.5 q-2 -2 -9 -8t-15 -13.5t-15.5 -13.5t-9.5 -6q-8 -10 -29.5 -31.5l-25.5 -25.5q-6 -6 -22.5 -23.5t-33 -37t-31.5 -37t-22 -23.5l-28 -29q-4 -2 -14.5 -11t-22.5 -19.5t-23.5 -20.5t-13.5 -12q-10 -10 -22.5 -21.5t-22.5 -25.5q2 -2 4 -2h4q4 0 18.5 -1t18.5 -1t21.5 -3.5 t23.5 -3.5q8 0 29.5 -1t46 -1t46 -1t30.5 -1q35 0 75 -10q4 0 6.5 -3t4.5 -3v-8q0 -16 -13.5 -37t-33.5 -21h-7q-2 12 -5 21.5t-15 13.5q-2 0 -9.5 2t-11.5 2q-2 0 -12 2t-14 2t-9.5 1t-7.5 1q-4 0 -20 1t-34.5 1t-35 1.5t-20.5 1.5q-12 0 -23.5 1t-21.5 3h-13q-4 0 -8 2h-8 q-8 0 -17.5 -1t-13.5 -10q0 -4 -3 -10t-3 -8q-2 -8 -6 -26.5t-4 -20.5v-4q2 -2 6 -2q4 -2 12 -2q4 -2 17.5 -4t15.5 -2q8 -2 30.5 -5.5t29.5 -3.5q8 0 30.5 -2t47 -5t47 -5t30.5 -2q4 -2 20.5 -4t20.5 -2q27 -4 27 -31q0 -14 -20.5 -22.5t-32.5 -12.5l-9 -2h-10h-12 q-4 4 -4 13.5t-6 13.5q-2 0 -4.5 2t-4.5 2q-10 0 -32.5 3t-47 5t-46 5t-29.5 3q-6 2 -35 3t-39 1h-18h-23q-4 -2 -8 -7t-8 -9l-47 -149q-2 -6 -9.5 -33t-9.5 -37q-6 -23 -10 -50.5t-8 -51.5q-2 -8 -8.5 -15.5t-10.5 -13.5q-8 -4 -28 -4q-33 0 -33 31q0 10 3 17t7 17l88 275 q0 4 3 10t3 12t-6 9.5t-12 3.5q-4 0 -10.5 -1t-12.5 -1q-8 0 -14 1t-12 1q-23 0 -44.5 -4.5t-43.5 -4.5q-12 0 -28.5 3.5t-16.5 21.5q0 12 9 21.5t21 9.5h25q23 0 47.5 -2t46.5 -2q12 0 27.5 1t29 6t23.5 15t10 27q0 14 -11 21t-26 7q-86 8 -166.5 7.5t-164.5 1.5 q-8 2 -9 14z" />
<glyph unicode="&#xa7;" horiz-adv-x="806" d="M63 39q0 10 6.5 18.5t14.5 14.5q8 4 12 4h2q14 -4 25.5 -12.5t23.5 -16.5q16 -10 32 -12l32 -4q6 -2 21.5 -2h19.5h41h39q4 0 19.5 1t23.5 3q8 0 33.5 5t33.5 7q4 2 24.5 5t29.5 7q4 2 18 6.5t18 6.5q8 2 28 8t24 6q6 2 24.5 9t24.5 9q4 4 14 7.5t15 7.5q29 16 60.5 43.5 t31.5 64.5q0 31 -28 52.5t-52 33.5q-8 0 -15 6h-4q-2 0 -4 2q-10 6 -25.5 5.5t-25.5 5.5q-2 0 -4 2q-2 0 -4 2q-6 4 -9 7t-8 5q-6 2 -18 5t-27.5 7t-28 7.5t-18.5 3.5q-8 2 -29.5 6t-45 9t-45 9t-29.5 6q-57 8 -94 52l-9 8q-2 2 -2 6t-2 6t-2 6v4l2 2q0 2 1 3t1 3 q31 33 68 57.5t78 45.5q35 20 73.5 35.5t79.5 25.5q-2 0 -3 1t-5 1l-178 47q-25 8 -46.5 22.5t-31.5 37.5q-6 6 -6 16q0 4 8 10q29 29 66 48q63 33 125.5 56t128.5 46q4 2 31.5 9t41.5 11q25 4 44.5 7.5t46.5 3.5h28h19q4 0 15 -2t15 -4q16 -4 30.5 -9.5t31.5 -13.5 q33 -16 33 -51v-10l-4 -9q0 -6 -7 -12q-2 -4 -8 -12t-10 -8h-8h-6q0 2 -2 2q-4 0 -5 2l-2 2q-6 10 -10 22.5t-10 22.5q-10 16 -33.5 21t-40.5 5q-4 0 -13 1.5t-13 1.5h-17q-29 0 -55 -9q-12 -2 -43 -10t-37 -10t-22.5 -8.5t-35 -12.5t-35 -12t-22.5 -8t-31.5 -12.5 t-33.5 -14.5q-2 -2 -18.5 -10t-24.5 -12t-21.5 -12.5t-13.5 -18.5q0 -6 8 -6q2 0 4 -1t4 -1l236 -74q4 0 22.5 -7t26.5 -11q4 -4 17.5 -9.5t17.5 -5.5q25 -12 49.5 -25.5t46.5 -33.5q43 -33 51 -82v-20v-23q-2 -2 -2 -4v-6q-6 -33 -17 -54.5t-34 -44.5q-8 -8 -19.5 -13 t-21.5 -9q6 -6 14.5 -10t14.5 -13q18 -20 30.5 -39.5t12.5 -46.5q0 -39 -17.5 -64.5t-44.5 -51.5q-12 -12 -29.5 -22.5t-33.5 -18.5q-53 -29 -107.5 -48.5t-113.5 -33.5q-29 -6 -61 -10.5t-66 -4.5h-15l-217 15l-4 2h-4q-2 0 -2 2q-23 18 -23 45zM307 471q0 -4 6 -7t11 -5 q2 -2 12 -4t12 -4q2 0 5 -1t5 -1l209 -50l70 -22h4q12 0 24.5 3t24.5 7q39 10 63.5 36t24.5 69q0 25 -18 47q-4 6 -10.5 13t-8.5 7h-39q-6 0 -13 9.5t-11 13.5q-2 0 -5 3t-5 3q-16 10 -39 11t-41 1h-21h-28q-12 -2 -25.5 -5t-24.5 -7q-2 0 -6 -3t-6 -3q-41 -16 -86 -39 t-78 -58q-6 -6 -6 -14z" />
<glyph unicode="&#xa8;" horiz-adv-x="673" d="M365 803v4v33v6q8 23 21 41t30 35l4 4h33q2 -2 4 -2t2 -1t2 -1q6 -4 13 -9.5t7 -13.5v-12v-8q-2 -4 -4 -7q-2 -2 -2 -4t-2 -2q-10 -31 -21.5 -57.5t-48.5 -26.5q-27 0 -38 21zM670 807q0 10 2 14q12 31 35 53l4 3l12 6l12 6t10.5 4t10.5 2t9 -3t9 -5l6 -2q6 -4 7 -13.5 t1 -15.5q0 -25 -14 -44t-29 -36q-14 -14 -28 -14q-4 0 -17.5 3t-17.5 7q-12 12 -12 35z" />
<glyph unicode="&#xa9;" horiz-adv-x="970" d="M211 406q0 39 13.5 74.5t35.5 70.5q41 59 93.5 112.5t111.5 96.5q25 18 52.5 34.5t55.5 30.5q53 29 117 29q25 0 48.5 -4t45.5 -16q18 -10 29.5 -23.5t22.5 -30.5q2 -2 8 -11t6 -11q8 -10 17.5 -14.5t23.5 -10.5q6 -4 13 -9t16 -9q39 -39 57 -89.5t18 -101.5 q0 -61 -30 -110q-10 -20 -22.5 -38t-24.5 -36q-35 -41 -81 -70.5t-98.5 -48t-108 -28t-108.5 -9.5q-49 0 -104.5 12.5t-101.5 39t-75.5 69t-29.5 101.5zM264 399q0 -18 10.5 -42.5t20.5 -37.5q4 -2 13 -10t14 -12l6 -6q43 -29 92 -40t98 -11q61 0 136 15t139.5 49t108.5 87 t44 131q0 23 -5 50.5t-21 48.5q-8 4 -13.5 10t-13.5 6q-2 0 -9 2t-12 2l-2 2q-2 2 -4 5t-4 3q-4 4 -7 11.5t-9 11.5t-12.5 4t-12.5 4t-12 10v27.5t-4 23.5q-10 29 -41 46.5t-59 17.5q-41 0 -82 -16.5t-74 -32.5q-61 -35 -117 -80q-35 -31 -67.5 -65.5t-59.5 -75.5 q-10 -18 -21.5 -39t-17.5 -43q-2 -4 -2 -10.5v-8.5v-18v-19zM444 442q0 43 20.5 82t53.5 66.5t74 44t82 16.5q47 0 67.5 -17.5t20.5 -64.5q0 -10 -3 -32.5t-20 -22.5q-18 0 -22 21v16q0 6 1 12t1 17q0 6 -2 8q-20 20 -53 20q-25 0 -55.5 -14t-57.5 -35.5t-45.5 -49.5 t-18.5 -52q0 -41 33 -52.5t68 -11.5q41 0 88 21q4 2 16.5 6t14.5 4q6 2 10 2t6 -2q10 -8 13 -16.5t3 -22.5v-14q-4 -4 -10 -7.5t-10 -5.5t-17.5 -4t-29 -5t-28.5 -5t-19 -2q-2 0 -7.5 -1t-7.5 -1h-28h-23q-8 0 -16 2t-19 4q-10 4 -23.5 9t-21.5 12q-2 4 -9 11t-11 9l-2 4 q-8 16 -10.5 25.5t-2.5 25.5z" />
<glyph unicode="&#xab;" horiz-adv-x="811" d="M170 246q0 20 14 37l13 12l372 297q4 2 9 2q16 0 25 -2t9 -19v-8t-4 -6l-246 -199q-4 -4 -15 -12t-15 -12q-2 -2 -9.5 -10.5t-15.5 -17.5t-17 -17t-14 -12q-8 -6 -15 -17.5t-7 -21.5q0 -2 2 -4q0 -2 2 -5q41 -61 92 -108t111 -88q4 -4 17.5 -12.5t17.5 -10.5l2 -4v-6 q0 -12 -4.5 -22.5t-18.5 -10.5q-16 0 -37 13q-127 74 -219 186q-2 4 -13 18.5t-20 22.5q-6 8 -11 17.5t-5 19.5zM391 285v8l2 2l135 104l62 41q4 4 27.5 17.5t31.5 17.5q2 2 14.5 7t16.5 10h6q2 0 4 2h2q6 0 10.5 -2.5t8.5 -2.5t11 -1t9 -1v-2q0 -10 -3 -21t-13 -15 l-123 -68q-68 -37 -121 -102q-4 -4 -6 -7.5t-2 -9.5q0 -10 12 -26q10 -16 22.5 -28.5t24.5 -25.5l135 -116q10 -8 15.5 -14.5t5.5 -20.5q0 -8 -2 -13q-2 -8 -14.5 -16t-22.5 -8q-6 0 -11 7t-10 11q-4 4 -14 14.5t-10 12.5l-100 84q-2 2 -12.5 11t-14.5 13t-10 12.5 t-14.5 17.5t-14.5 17.5t-8 12.5q-29 35 -29 78z" />
<glyph unicode="&#xad;" horiz-adv-x="649" d="M121 276v11v10q0 4 4 8q4 10 13 13.5t20 5.5q6 0 25.5 1t25.5 1l260 41q4 2 30.5 3t39.5 3q4 0 24.5 1t30.5 1h20h23q10 -4 17.5 -8.5t7.5 -16.5q0 -41 -41 -41q-12 0 -24.5 2t-27.5 2h-14q-12 -2 -39 -3t-31 -1l-211 -33q-8 -2 -36.5 -8t-36.5 -10q-10 -2 -22.5 -3 t-22.5 -1q-18 0 -29 14q-6 0 -6 8z" />
<glyph unicode="&#xae;" horiz-adv-x="882" d="M326 649.5v22.5q0 98 53 185t135 138q53 35 111.5 54.5t124.5 19.5h24q2 0 6 -1t6 -1q25 -4 50.5 -13.5t47 -22.5t35 -33.5t13.5 -47.5v-12q-4 -18 -21 -18q-2 0 -2 4q-4 4 -6 10t-6 10q-23 39 -59.5 59.5t-79.5 20.5q-23 0 -42.5 -4t-37.5 -8q-6 -2 -20.5 -4t-18.5 -4 t-12.5 -4.5t-12.5 -4.5q-4 0 -19 -8t-20 -12q-10 -4 -22 -7t-23 -14q-41 -29 -68.5 -68.5t-53.5 -82.5q-14 -27 -24.5 -56.5t-10.5 -60.5q0 -25 3 -48.5t17 -45.5q4 -6 11.5 -15.5t15.5 -9.5q2 0 2 2l4 4q2 2 2 5q4 10 11 28.5t7 22.5q4 8 11.5 31.5t9.5 31.5q10 31 10 53 v31q0 6 1 14.5t11 12.5q2 2 5.5 3t5.5 5q6 10 9 20.5t7 20.5q0 4 4 17.5t8 28.5t7.5 28.5t5.5 17.5q2 2 2 6q0 6 2 8l2 3h4q2 0 2 1t2 1h33h33q2 0 13 -1t15 -4q16 -2 38 -6t42.5 -12t36.5 -20.5t25 -30.5q2 -4 1 -7t-1 -8v-14q0 -2 -1.5 -7t-3.5 -7q-10 -25 -35.5 -42.5 t-48.5 -31.5q-18 -10 -32 -12q-23 -4 -45.5 -6t-42.5 -13l-2 -2q23 -29 46 -51t44 -49q4 -6 6 -10l4 -8t9 -16.5t9 -16.5q6 -10 16.5 -20.5t24.5 -10.5q16 0 37 16q6 4 18.5 13.5t16.5 13.5q37 35 62.5 82t25.5 98q0 82 -68 131q-4 4 -25.5 16.5t-25.5 16.5q-4 2 -5 7t-1 10 q0 10 3 17t14 9h12h12q4 0 13.5 -4t17.5 -8q10 -4 18 -14.5t17 -20.5q18 -16 32.5 -43t22.5 -51v-4q0 -2 1 -4t1 -4l2 -9v-73q-2 -2 -2 -4v-9q-8 -53 -34.5 -96t-63.5 -78t-82 -60.5t-92 -39.5q-51 -14 -109 -14h-23.5t-25.5 4q-68 14 -117 59t-63 113q-2 10 -2 22.5z M477 526q0 -2 10 -6q18 -10 35 -14t39 -4q25 0 49.5 2t46.5 12q4 4 9.5 7t5.5 7q0 10 -4 17.5t-9 11.5q-2 4 -9 14.5t-7 12.5q-4 4 -13 15t-14 15q-20 23 -41.5 46.5t-46.5 44.5l-2 2q-2 0 -2 2h-4q-6 0 -6 -2q-2 -2 -2 -4v-7q0 -4 -3 -15t-5 -15q0 -6 -2 -17.5t-5 -23 t-5.5 -20.5t-2.5 -11q-2 -6 -6 -32.5t-6 -35.5v-2zM551 801q2 -6 6 -6h21q61 0 120 26q6 2 13.5 6t11.5 9l14 14t6 16t-11 17.5t-19 11.5q-2 0 -11.5 3t-13.5 5l-8 2q-4 2 -13.5 3t-13.5 1t-13 2t-11 2h-8q-18 0 -27 -2q-8 -2 -12 -16q-2 0 -5.5 -6t-3.5 -10q-2 0 -4 -4.5 t-2 -8.5q-2 -2 -4 -8t-2 -8q-2 -2 -4 -8t-2 -8q-4 -12 -4 -21v-6v-6z" />
<glyph unicode="&#xb0;" horiz-adv-x="589" d="M205 582v12v4q0 2 1 4t1 4t2 5t2 5q20 49 57 84q4 6 19.5 20.5t19.5 18.5t16.5 14.5t16.5 14.5q10 8 21.5 11t21.5 7q4 2 15.5 5.5t13.5 3.5h8q4 0 5 1t3 1q4 0 23.5 3t23.5 3h8q47 0 72 -29t25 -72q0 -37 -16.5 -68.5t-45.5 -55.5q-6 -4 -23.5 -15.5t-21.5 -15.5 q-23 -16 -47.5 -28.5t-50.5 -20.5q-16 -4 -27.5 -5t-28.5 -1h-22q-59 6 -86 55q-4 10 -5 17t-1 18zM262 584q0 -10 2 -19.5t10 -13.5h9q14 0 28.5 2t30.5 6q27 6 58.5 16.5t58 26.5t45 42t18.5 61v8q-2 12 -17.5 22t-25.5 10q-16 0 -25.5 -13t-23.5 -13q-10 0 -15 4t-16 4 q-4 0 -8 -3t-8 -5q-4 -6 -18.5 -19.5t-18.5 -17.5q-2 -2 -5 -6t-5 -4q-4 -2 -13.5 -8.5t-11.5 -8.5q0 -2 -4 -2q-2 0 -2 -2q-14 -16 -28.5 -31.5t-14.5 -35.5z" />
<glyph unicode="&#xb1;" horiz-adv-x="780" d="M92 66v8q2 6 10.5 13t16.5 7l287 15h153q4 -2 8 -3h13q23 -2 22 -28q0 -16 -8 -32.5t-29 -16.5q-10 0 -18 8t-17 14l-2 2q-2 0 -8 1t-8 1h-6h-4q-4 0 -18.5 -1t-18.5 -3l-227 -4q-33 -2 -65 -7t-62 -5q-12 0 -15.5 9t-3.5 22zM199 475v2q4 8 8 12h2q2 0 2 1.5t2 1.5 q20 8 41.5 13t44.5 5h107h6q2 0 4 1t4 1q16 0 26 4q2 0 7 2l8 4q0 2 2 2l2 2t5 8.5t5 10.5q12 33 25.5 62.5t23.5 64.5q2 12 5 26.5t6 28.5q2 10 2 21.5t8 19.5q14 18 39 18q18 0 18 -24q0 -16 -6 -34.5t-10 -35.5q-4 -6 -10.5 -23.5t-14.5 -36t-15 -34.5t-9 -23l-2 -4 q-2 -4 -4.5 -15t-4.5 -15v-4v-5h9h32q35 0 67 2.5t62 2.5h27q16 0 36.5 -6.5t20.5 -22.5q0 -10 -4 -17.5t-8 -15.5q-4 -10 -11 -16t-14 -15q-4 -4 -14 -4t-13 9.5t-3 19.5q-4 6 -11.5 7t-11.5 3q-6 2 -21.5 3t-17.5 1h-8q-45 0 -88 -6q-4 0 -13.5 -1t-11.5 -5q-2 0 -8 -1 t-10 -3q-2 0 -2 -1t-2 -1h-2q-4 -2 -6 -9t-4 -12q-2 -4 -4.5 -7t-2.5 -5q-2 -6 -5 -19.5t-3 -15.5l-39 -192q-6 -20 -20 -29q-2 -2 -12 -2q-12 0 -23.5 8.5t-11.5 24.5q0 10 2 21.5t6 21.5l68 209v8h-27l-176 -16h-35l-2 2q-12 12 -12 22z" />
<glyph unicode="&#xb4;" horiz-adv-x="598" d="M369 848v12q0 10 6 14q4 0 10 3.5t10 5.5q8 4 28.5 13t25.5 11q6 2 30.5 10.5t34.5 10.5q2 0 13.5 3t23.5 6t22.5 7t14.5 4q29 8 54.5 20.5t53.5 20.5q4 2 13.5 4t11.5 2h2q2 0 3 1t3 1q4 0 8 2h23h22q20 -2 21 -26q0 -23 -9.5 -28t-31.5 -9l-246 -82q-2 0 -12 -5 t-23.5 -10t-27 -11.5t-21.5 -8.5q-2 -2 -15.5 -7t-15.5 -7q-6 -2 -16 -2q-8 0 -12 4q-2 10 -3 20.5t-1 20.5z" />
<glyph unicode="&#xb6;" horiz-adv-x="739" d="M268 -254q0 29 17.5 53.5t27.5 53.5l183 475l14 41v2l-2 2q-18 6 -33.5 10t-30.5 12q-59 25 -104 72t-45 115q0 31 6 65q2 4 6 27.5t4 34.5q6 25 23.5 49t36.5 43q35 39 78 70.5t90 60.5q72 47 155 82q4 0 19.5 6t19.5 8q23 8 46.5 14.5t45.5 6.5q53 0 73 -34t20 -79 q0 -43 -15.5 -76t-40.5 -67q0 -12 -4 -21l-104 -317h2l131 59h10q0 -12 -14 -22q-2 0 -9.5 -6.5t-11.5 -10.5q-31 -23 -61.5 -40t-65.5 -34l-4 -4q0 -2 -1 -2t-1 -2v-2q0 -4 -1 -14t-1 -12l-88 -224l-61 -190q-2 -4 -4.5 -15.5t-4.5 -15.5q0 -4 -3 -18.5t-6 -30.5t-6 -31.5 t-3 -17.5q-2 -16 -13.5 -23.5t-25.5 -7.5q-35 0 -35 37q0 8 2 14l96 299q0 2 4.5 11.5t4.5 13.5q8 16 18 30.5t16 30.5q2 4 4.5 13.5t4.5 13.5t7 26.5t5 26.5q4 6 12 32t13 32v2h-2q-2 0 -13.5 -3t-15.5 -3q-2 0 -9.5 -1t-9.5 -1h-61q-2 -4 -7 -14.5t-7 -14.5 q-4 -8 -8.5 -15.5t-6.5 -15.5v-16t-4 -19l-47 -106l-100 -301q-2 -4 -6.5 -15.5t-7.5 -26t-5 -26.5t-2 -16q-2 -4 -4 -12.5t-4 -12.5q-6 -12 -17.5 -27.5t-29.5 -15.5q-10 0 -17.5 7.5t-11.5 17.5v10z" />
<glyph unicode="&#xb7;" horiz-adv-x="378" d="M238 352q-4 25 2 42.5t34 23.5q29 4 49.5 -16.5t14.5 -49.5q-6 -16 -23.5 -22t-29.5 -6q-16 -6 -29.5 5t-17.5 23z" />
<glyph unicode="&#xb8;" horiz-adv-x="423" d="M-4 12q0 27 22 27q14 0 27.5 -1t28.5 -1h20q20 0 41 7t41 15q27 10 56.5 26.5t29.5 51.5v10l-2 7q-14 8 -30.5 12t-32.5 6q-35 4 -71 6t-71 21q-6 0 -6 4q-29 25 -29 61q0 23 9.5 41.5t23.5 34.5q2 2 11.5 12t18.5 20.5t18.5 20.5t11.5 13l12 16t16 8q8 0 10.5 -3 t10.5 -5q0 -2 2 -2h4l4 -2q4 -2 6 -12.5t2 -14.5q0 -16 -9 -28.5t-21 -22.5q-14 -12 -27.5 -23.5t-22.5 -27.5q-4 -8 -6 -12.5t-2 -8.5t6 -7t11 -5q14 -4 28.5 -6t30.5 -4q18 -2 40.5 -4t42 -7.5t37 -16.5t27.5 -34q12 -25 13 -53v-18q-2 0 -2 -2v-5q-10 -27 -30 -45 t-42 -34q-4 -6 -8 -7q-8 -4 -25.5 -12t-19.5 -10q-6 -4 -21.5 -10t-33 -14.5t-34 -14.5t-22.5 -8q-2 -2 -6 -1t-8 1q-14 0 -25 2q-4 2 -12 5t-12 5q-6 4 -10.5 9t-8.5 10q-12 12 -12 30z" />
<glyph unicode="&#xbb;" horiz-adv-x="913" d="M174 29v4q0 2 1 9t1 11v4q16 16 36.5 30.5t43.5 25.5q4 2 9 6t7 4l179 86q2 0 13 6t19 10l2 2q0 2 1 2t1 2q-53 53 -99 110.5t-79 127.5q-2 2 -8 16.5t-8 22.5l-2 4v4v10q0 29 31 29h6q4 0 8 -4q18 -41 36.5 -79t43.5 -73q6 -10 14 -20t16 -21q2 -2 7.5 -8t7.5 -8 q10 -12 18 -27.5t21 -25.5q12 -8 28 -13q16 -6 33 -17t17 -34q0 -4 1 -8t-4 -8q-23 -16 -45 -30.5t-47 -24.5l-149 -64q-29 -10 -53.5 -30.5t-51.5 -36.5q-4 -4 -13 -9.5t-15 -5.5q-10 0 -18.5 5t-8.5 16zM352 -59q0 20 8 26l283 176l62 41q2 2 9 8.5t16 13.5t17.5 14 t12.5 9q4 0 4 2v5q0 10 -9.5 15t-13.5 11q-2 2 -12 9.5t-20.5 14.5t-20.5 14t-12 9q-4 4 -23.5 20.5t-29.5 26.5q-4 2 -9.5 6.5t-5.5 8.5q-4 4 -13 12t-19.5 17.5t-18.5 17.5l-10 10q0 2 -8.5 11.5t-12.5 15.5q-10 8 -10 18q0 8 6 18.5t17 10.5q27 0 45 -13.5t37 -33.5 q6 -8 25.5 -33t25.5 -33q6 -6 6 -10q4 -4 16.5 -15.5t14.5 -13.5q0 -2 5 -6t7 -6l86 -55q16 -10 27.5 -21.5t21.5 -25.5l2 -7q0 -2 -1 -3t-1 -5v-6q0 -2 -4 -6q-4 0 -17.5 -10.5t-17.5 -14.5q-10 -6 -32.5 -20t-26.5 -19l-246 -143q-4 -4 -22.5 -15.5t-26.5 -17.5 q-2 -2 -7 -6l-10 -8q-2 -4 -13 -12.5t-13 -12.5q-6 -6 -18.5 -12t-20.5 -6t-16.5 3t-12.5 11v15z" />
<glyph unicode="&#xc0;" d="M27 -33q0 6 4 13.5t8 13.5q4 10 14 24.5t13 14.5l131 172q2 2 7 10t9 12q2 4 4 9.5t2 9.5v4q-12 16 -12 26q0 25 20.5 28t38.5 3q6 2 14.5 6t12.5 13l266 352q12 16 23.5 31.5t21.5 31.5q23 23 44.5 49.5t37.5 55.5q4 2 7 10t5 12q4 6 3 14.5t4 16.5q2 10 12 21q4 4 9 4 h11h11q16 -10 23 -33t11 -43q2 -2 4 -18.5t5 -22.5q2 -16 1 -32.5t-1 -31.5v-38q0 -12 -3.5 -43t-5.5 -39l-47 -271v-8v-8q0 -6 13 -6q2 -2 4 -2h6h10q4 0 6 1t4 1h6q16 0 29.5 -7.5t13.5 -25.5q0 -20 -13 -28.5t-30 -12.5q-4 -2 -9 -2h-7h-47q-2 0 -2 -2q-2 -2 -2 -4l-2 -2 l-66 -393q-4 -16 -6 -31t-14 -27q-6 -4 -21 -4q-16 0 -27.5 8t-11.5 25v8l25 76l51 203q0 4 4 27.5t6 33.5q2 16 4.5 34.5t2.5 37.5v12q-6 6 -19 6h-63q-8 0 -30 -2t-44.5 -3t-44 -2t-29.5 -1h-10t-18.5 -1t-19.5 -1h-11q-4 0 -21.5 -2t-23.5 -2q-20 -2 -34.5 -8.5 t-25.5 -22.5l-137 -199q0 -2 -13.5 -19t-21.5 -28q-14 -20 -28 -32q-4 -2 -11 -2q-12 0 -21 9t-9 21zM358 326q0 -14 12.5 -17.5t22.5 -3.5h10q4 0 16.5 2t16.5 4l226 13h6q2 0 4 2q4 0 8 4q2 2 4 6l49 299q2 4 3 25.5t1 27.5v43v39v10q-2 4 -4 11.5t-8 7.5q-2 0 -8 -6 q-2 -2 -4 -5.5t-4 -5.5l-349 -446q-2 -6 -2 -10zM643 1167q0 6 2 9q4 2 12.5 9t12.5 11q14 10 24 10q4 0 7.5 -2t5.5 -2q4 -4 16 -13t16 -13l13 -13l14 -14t20.5 -21.5t19.5 -20.5t13 -11q16 -16 29.5 -31.5t30.5 -30.5q4 -4 16 -14t16 -12q10 -10 16.5 -20.5t14.5 -24.5 q2 -6 4 -13.5t2 -11.5q0 -2 1 -4t-3 -6q-16 -12 -28 -13q-4 0 -7.5 -1t-7.5 4l-6 6t-6 4q-4 0 -4 6l-135 135q-4 4 -23.5 20.5t-30.5 24.5q-4 2 -22.5 16.5t-22.5 18.5l-5 5t-3 5q-2 2 -2 8z" />
<glyph unicode="&#xc1;" d="M27 109v4l4 8l6 12l2 2q0 2 1 2t1 2q4 8 15.5 23.5t13.5 15.5l131 172q2 2 4 6t4 9q4 4 7 11t5 11q-2 0 -2 2v4q-2 2 -6 9.5t-4 9.5v10q0 18 22 24q4 0 14.5 1.5t14.5 1.5q16 2 27.5 14t19.5 26l250 324q4 4 14.5 20.5t14.5 20.5q23 31 48 58.5t48 62.5q4 10 8 18t8 17 q0 2 1 3t1 3q0 4 2.5 14t2.5 12q2 6 5 10.5t5 8.5q6 4 22 4q23 0 32 -26.5t13 -43.5q6 -29 8.5 -53t2.5 -53v-25q0 -4 -2.5 -24.5t-2.5 -24.5q0 -8 -2 -21.5t-3 -26.5t-3 -24.5t-2 -13.5l-41 -223q-2 -8 -2 -21q0 -10 4 -12q0 -4 9 -4h49l6 -2q27 -6 26 -31q0 -27 -29.5 -34 t-49.5 -7h-13q-2 0 -6 1t-6 1h-2l-8 -8l-66 -389q0 -4 -2 -14.5t-2 -14.5q-2 -27 -27 -37q-4 -4 -12 -4q-14 0 -25.5 10.5t-11.5 24.5v6l25 76l49 197q0 4 4 28.5t6 36.5q4 20 7.5 42t3.5 44q0 4 -5.5 6t-9.5 2h-41h-41q-4 0 -21.5 -1t-38 -3t-36.5 -3t-20 -1h-17.5t-28 -1 t-27.5 -1h-18q-4 0 -19 -2t-22 -2q-31 -4 -47 -22l-153 -226q-4 -4 -15.5 -18t-15.5 -19q-4 -4 -11 -12t-9 -10t-13 -2q-29 0 -28 29zM358 465q0 -10 11.5 -14.5t21.5 -4.5q14 0 26.5 3.5t28.5 5.5l226 10l10 10l41 232q0 2 2 14t4 27.5t4 30t2 20.5t2 24.5t2 24.5v26v25.5 t-4 26.5q0 2 -2 8t-8 6h-4l-6 -6l-355 -459q-2 -4 -2 -10zM584 1139q0 16 4 21t16 11q6 2 15.5 6.5t13.5 4.5q10 4 29.5 12t21.5 8l133 41q4 2 16.5 6t26.5 9.5t26.5 10.5t18.5 7q29 14 70 14q8 0 24.5 -2t16.5 -16v-10q0 -23 -8.5 -27t-28.5 -8l-250 -84q-2 0 -12 -4 t-23.5 -10.5t-27 -11.5t-21.5 -9q-2 -2 -15.5 -6t-15.5 -6q-4 0 -7 -1t-7 -1q-10 0 -12 6q0 10 -2 19t-2 20z" />
<glyph unicode="&#xc2;" d="M27 109q0 6 4 13t8 15t14 22.5t13 16.5l131 168q2 4 7 12.5t9 12.5q2 4 4 9t2 11q0 8 -5 14.5t-5 18.5q0 23 20.5 26t36.5 3q8 2 15.5 7t11.5 9l268 352q10 16 20.5 32.5t22.5 31.5q2 2 10.5 11t16.5 18.5t15 18.5t9 11q14 16 23.5 32.5t19.5 35.5q4 6 4 15t3 15 q2 8 4 12.5t6 8.5q8 4 22 4h6q6 0 10.5 -5t8.5 -9q8 -12 12 -27q12 -33 14.5 -66.5t2.5 -68.5v-37q0 -4 -1.5 -20.5t-1.5 -22.5t-2 -19.5t-4 -26.5t-4 -23.5t-2 -12.5l-43 -242q0 -8 6 -12t13 -4h49q0 -2 2 -2h4q20 -10 20 -29q0 -14 -8 -22t-20.5 -13.5t-25.5 -6.5t-23 -1 q-6 0 -12.5 1t-12.5 1q-4 0 -8 -3t-4 -7l-64 -379q0 -4 -2 -21.5t-2 -21.5q-6 -33 -41 -33q-33 0 -33 35v6l23 72l49 203q2 4 5 25.5t5 31.5q4 23 6.5 42.5t2.5 41.5v10q-4 4 -11 4h-6q-2 0 -4 3h-27h-24q-8 0 -28.5 -2.5t-44 -3.5t-46 -3t-31.5 -2q-4 0 -16 -1t-26.5 -1 t-27 -1t-16.5 -1t-18 -1t-21 -1q-29 -4 -47 -29l-137 -200q-2 -4 -15.5 -21.5t-19.5 -25.5l-8 -9q-4 -4 -6 -7t-4 -5q-4 -12 -21 -12q-12 0 -21 6t-9 23zM358 467q0 -12 10.5 -16.5t20.5 -4.5q6 0 17 3q4 2 16 3t16 3l234 10l4 4l6 6v4l51 287q0 2 1 11t1 20.5t1 22.5t1 16 v38v35v11q-2 4 -4 12t-8 8q-4 0 -10 -6q-2 0 -3 -3t-3 -3l-351 -453v-8zM475 1100v10q2 8 7 12t12 8q10 4 23 7.5t24 7.5h2q2 0 4 2l4 4q10 4 27.5 13.5t21.5 11.5t20.5 11t36 20.5t36 20.5t20.5 11q2 2 14 8t27.5 13.5t31 15.5t25.5 12q14 6 27.5 10.5t29.5 4.5h16.5 t16.5 -5q12 -16 14 -24q6 -12 6.5 -30.5t4.5 -35.5q2 -12 5 -27.5t11 -27.5q0 -2 4 -7t6 -7q2 -4 13.5 -18.5t13.5 -16.5q6 -6 11 -14.5t5 -18.5q0 -12 -12 -16h-14q-14 0 -23 4q-4 2 -5 4t-3 2q-45 45 -61 98q0 2 -3.5 12.5t-6.5 20.5t-6 20.5t-3 12.5t-2 2h-2 q-47 -12 -88 -35l-162 -92q-4 -4 -15 -7t-16 -7q-8 -4 -30.5 -12.5t-26.5 -10.5q-6 -2 -14 -2q-16 0 -21.5 10t-5.5 25z" />
<glyph unicode="&#xc3;" d="M27 -29q0 2 5 9.5t5 11.5q2 4 10 17.5t10 15.5l138 178q2 2 7 10t7 12q4 4 7 10.5t3 10.5q0 6 -5 11t-7 11v8q0 25 19.5 27t35.5 4q16 4 27 17l260 342q6 8 20.5 30.5t18.5 26.5q2 2 13 14.5t23.5 26.5t22.5 25.5t12 15.5q12 16 20.5 31.5t18.5 31.5q4 8 3 16.5t4 16.5 q2 6 7 14.5t13 8.5h12h8q2 0 2.5 -2t2.5 -2q18 -16 25 -42t11 -51q4 -20 4.5 -40.5t0.5 -38.5v-31q0 -6 -1.5 -16.5t-2.5 -22.5t-2 -22.5t-1 -14.5q0 -6 -3 -22.5t-6 -35t-6 -35t-3 -22.5q-2 -10 -6 -36.5t-10.5 -55t-10.5 -54.5t-6 -34v-4q0 -10 8.5 -12t14.5 -2q2 0 10 1 t10 1h8q16 0 29.5 -7.5t13.5 -25.5q0 -20 -16 -29.5t-35 -13.5h-8h-18h-19h-8q-2 0 -6 -2t-4 -6l-64 -379q0 -4 -2 -20.5t-4 -20.5q-4 -35 -39 -35t-35 33v2v6l25 72l47 202q2 4 6 26t6 32q4 20 6.5 40.5t2.5 43.5v6q-6 8 -21 8h-61q-8 0 -30 -2t-45.5 -3t-44 -2t-28.5 -1 q-4 0 -16.5 -1t-26.5 -1t-27.5 -1t-15.5 -1q-4 0 -16.5 -2t-16.5 -2q-14 0 -28 -10q-2 -2 -8.5 -6.5t-6.5 -8.5l-145 -211q-29 -41 -57 -69q-2 -4 -13 -4q-12 0 -20 9t-8 21v4zM356 326q0 -10 7.5 -14.5t15.5 -6.5h10h10q6 0 19.5 2t17.5 4l223 13h9q2 0 4 2q2 0 5 4t3 6 l2 4l51 299q2 4 3 26.5t1 32.5v31v33v16q-2 4 -4 12.5t-8 8.5h-4q-12 -12 -14 -19l-349 -446q-2 -4 -2 -8zM549 1067q0 16 6 37.5t25 28.5h6q6 0 14 -2.5t8 -8.5v-14q0 -14 -2 -30.5t-2 -33.5q0 -23 10 -38l7 -7h4q33 12 57 35q6 6 23.5 19.5t38 29t38 28.5t23.5 19 q18 16 40.5 31t43.5 25q4 0 8 2t6 2h4q2 0 2 1t2 1h15h16q4 0 8 -2l8 -4q39 -14 62 -53q0 -2 5 -10.5t10 -17.5t10.5 -18.5t5.5 -11.5q4 -8 9 -12t13 -12q0 -2 3 -4.5t5 -6.5q2 -2 6.5 -6t4.5 -6q4 -4 4 -7v-7q0 -14 -8.5 -37t-24.5 -23q-10 0 -12 13l-54 94q-2 2 -6 8 t-6 10q-10 14 -28.5 31.5t-36.5 17.5q-10 0 -21.5 -5t-21.5 -11q-2 -2 -8.5 -7t-8.5 -5l-162 -131q-16 -14 -33.5 -21.5t-39.5 -7.5q-52 0 -66 49q-4 16 -7 37t-3 41z" />
<glyph unicode="&#xc4;" d="M27 6v6l4 8q4 8 6 11l2 4l4 4q6 10 20.5 29.5t14.5 21.5l121 156q0 2 5 7t7 9q4 6 6 11.5t2 11.5v4q0 4 -3 10l-5 10q-2 0 -2 2v4v2q0 10 7 18.5t17 10.5q4 0 15.5 1t13.5 1q20 2 31 21l262 340q2 6 17.5 26.5t19.5 24.5q23 29 48.5 57.5t45.5 61.5q4 10 9 19t7 20 q4 14 3.5 22t11.5 18q4 4 10 5.5t10 1.5q23 0 32 -23.5t13 -42.5q6 -27 8.5 -55.5t2.5 -57.5v-22q0 -8 -1 -32.5t-4 -31.5q0 -8 -2 -23t-4 -30.5t-4 -29t-2 -17.5l-39 -194q0 -4 -1 -10.5t-1 -10.5q0 -14 13 -14h47q10 0 20 -6.5t12 -16.5v-10q0 -4 1 -7t-1 -7 q-10 -18 -33.5 -23.5t-39.5 -5.5h-19h-10h-2l-6 -8l-68 -387q-4 -23 -6 -40.5t-25 -27.5h-10q-14 0 -25.5 9t-11.5 24v6l25 74l47 196q2 4 7 31t5 37q2 6 4.5 26.5t2.5 24.5v19v20h-3q-2 0 -4 2l-10 2h-70q-8 0 -29.5 -2t-45 -3t-45 -3t-29.5 -4h-10t-17.5 -1t-18.5 -1h-11 q-4 0 -20.5 -1t-24.5 -1q-23 -2 -35.5 -9.5t-24.5 -23.5l-137 -201q-2 -4 -13.5 -18.5t-15.5 -20.5q-2 -2 -8 -10t-8 -12q-14 -14 -25 -15q-31 0 -30 29zM358 367q0 -12 11.5 -16.5t21.5 -4.5q16 0 30.5 3t31.5 5l221 11l10 10l51 309q0 4 2 29.5t2 38.5v20v25q-2 4 -2 8v10 q0 4 -2 14.5t-8 10.5q-4 0 -10 -6l-357 -459q-2 -4 -2 -8zM565 1022v14q0 18 7.5 38t21.5 32q2 4 7 8t9 8q6 6 11 13h2h10q18 0 34.5 -6.5t16.5 -28.5q0 -8 -4 -14.5t-8 -16.5q0 -2 -3 -11t-3 -11q-4 -4 -7.5 -14.5t-7.5 -14.5l-6 -6t-8 -6q-8 -8 -16.5 -9.5t-18.5 -1.5 t-23.5 6.5t-13.5 20.5zM825 1020v2q2 16 13.5 34.5t23.5 28.5q12 6 23.5 12.5t27.5 6.5h7q2 -2 4 -2q2 -2 6 -2q2 -2 4 -2q2 -2 4 -2q6 -16 6 -27v-12q0 -6 -3 -12.5t-5 -10.5q-16 -29 -37 -49q-6 -8 -16 -10h-9q-20 0 -34 8l-2 2q-12 14 -13 35z" />
<glyph unicode="&#xc5;" d="M27 6v2q4 12 8 21l10 15t8 11l148 195l10 10q4 6 7 12.5t3 12.5q0 10 -5 16t-5 16q0 25 18.5 27t34.5 4q20 4 27 17l266 348l27 41q4 4 15 17t23.5 28.5t23.5 29t18 19.5q12 14 20 28.5t16 30.5q4 10 5 31q4 27 34 27q16 0 25.5 -17.5t13.5 -32.5q6 -20 9.5 -41.5 t5.5 -44.5v-43v-38q0 -6 -2.5 -28t-2.5 -30q-2 -8 -4 -24.5t-5 -34t-5 -32.5t-2 -19q-2 -10 -7 -37t-11 -56.5t-11.5 -55t-7.5 -36.5v-14q0 -10 13 -10h49q10 0 20 -7.5t12 -17.5v-8v-8q0 -6 -6 -13q-14 -16 -34.5 -19t-36.5 -3h-17h-8h-2q-4 0 -7 -4t-3 -6l-66 -381 q0 -4 -1 -14.5t-1 -14.5q-4 -16 -8 -25.5t-21 -17.5h-10q-16 0 -26.5 8t-10.5 25v8l23 68l53 217q0 4 4 28.5t8 38.5q2 14 3.5 27.5t1.5 30.5v14q-6 6 -17 6h-72q-8 0 -29.5 -2t-45 -3t-45 -3t-29.5 -4q-4 0 -28.5 -1t-30.5 -1q-4 0 -19.5 -1t-21.5 -1q-23 -2 -36.5 -10.5 t-25.5 -24.5l-145 -213q-4 -4 -14.5 -18.5t-14.5 -18.5t-11 -12t-9 -10q-4 -2 -13 -3q-12 0 -21 8.5t-9 20.5zM358 367q0 -12 11.5 -16.5t21.5 -4.5q16 0 30.5 3t31.5 5l221 11l10 10l47 276q0 2 2 13.5t3 23.5t2 23.5t1 17.5v41v39q0 2 -1 6t-1 6q-2 4 -3 11.5t-7 7.5h-4 l-8 -11l-355 -456q-2 0 -2 -2v-4zM580 1049v16v16q0 14 9 33t19 29q10 12 19.5 24.5t19.5 22.5q4 4 24.5 23.5t26.5 27.5q4 0 9.5 5t7.5 7q2 0 2 2l2 2q16 8 32.5 13.5t34.5 9.5q2 0 14.5 1t14.5 1q10 2 22.5 4t22.5 2q45 0 69.5 -28.5t24.5 -73.5q0 -39 -18 -69t-45 -56 q-6 -4 -26.5 -18.5t-26.5 -18.5q-31 -20 -68 -35.5t-78 -15.5q-59 0 -100 47q-12 16 -12 29zM639 1065q0 -8 2 -17.5t8 -13.5h10q18 0 37 3t37 7q25 6 53.5 17.5t53 29t41 41t16.5 56.5q0 14 -4 18q-18 23 -37 23q-16 0 -25.5 -12.5t-25.5 -16.5q-10 0 -15.5 6t-15.5 6h-2 q-2 -2 -4 -2q-2 -2 -4 -2q-14 -10 -26.5 -25.5t-28.5 -27.5q-6 -4 -15.5 -10t-13.5 -10q-16 -16 -28.5 -31.5t-12.5 -38.5z" />
<glyph unicode="&#xc6;" horiz-adv-x="1579" d="M23 70v14q2 2 2 4t2 4t4 6t6 8q2 4 8 10.5t8 8.5l162 180q2 4 15.5 19.5t19.5 25.5q2 4 4 6t2 6q0 6 -3 13.5t-3 13.5q0 27 21.5 31t41.5 4q10 4 18.5 10t16.5 15l307 335l41 52l90 90q10 10 21.5 23.5t17.5 29.5q12 20 16.5 40.5t35.5 20.5h6q4 0 6 -2t4 -2 q16 -16 18 -37.5t4 -42.5h3q4 2 10 5.5t12 3.5q10 0 20.5 -7.5t20.5 -7.5q8 0 14 1t15 1q16 0 30.5 -2t30.5 -2h16l316 27q6 0 36.5 2t43.5 2h80h77q10 0 19.5 -1t19.5 -5q16 -4 22.5 -19.5t6.5 -27.5t-4 -24.5t-21 -12.5q-10 0 -17 6t-15 10q-14 10 -31.5 13.5t-36.5 3.5 h-43h-37l-530 -33l-4 -2l-8.5 -8.5t-8.5 -10.5q-78 -156 -133 -315v-2q0 -4 4 -4h15q16 0 34.5 1t34.5 5q6 2 23.5 5t37 6t37 6t25.5 3l234 17h9t21.5 1t24.5 1h18h29h25q14 0 35.5 -6t29.5 -25q0 -2 1 -2t1 -2t2 -4v-21v-2q0 -2 -2 -4q0 -2 -14 -6t-25.5 -4h-23.5 q-33 0 -65 3t-66 3h-21q-10 0 -30.5 -1l-41 -2t-38 -2t-21.5 -1q-6 0 -22.5 -2t-35 -4t-36 -4t-25.5 -2q-6 -2 -35.5 -6t-42.5 -6q-4 0 -19 -4.5t-24 -6.5q-4 0 -25.5 -5t-27.5 -9q-2 0 -7 -1t-7 -3q-4 -2 -9 -4t-8 -6q-2 -2 4.5 -5.5t8.5 -3.5h51q4 0 8 -2l8 -4 q4 -4 6.5 -6t4.5 -6v-6q0 -23 -14.5 -33t-33.5 -16q-4 -2 -6 -2h-6l-8 -2h-51q-2 0 -2 -2q-2 -2 -2 -5q-2 0 -2 -2q-2 -2 -2 -4l-39 -137q-4 -29 -14.5 -55.5t-20.5 -52.5q-4 -10 -6 -18.5t-2 -16.5v-8q8 -8 16 -9h6l297 35l359 29q4 0 20 1t25 1h28q25 0 50.5 -5t25.5 -38 q0 -10 -4 -17q-6 -10 -30.5 -13t-37.5 -3q-14 0 -26.5 5t-30.5 5q-25 0 -48.5 -6t-49.5 -8l-332 -16q-59 -23 -120.5 -34t-123.5 -16q-6 0 -29.5 -1t-29.5 -1q-2 -2 -6 -8q-4 -12 -6 -29.5t-17 -21.5q-2 0 -7 -4t-7 -4q-6 -2 -12 -2q-14 0 -25.5 7t-11.5 21q0 6 2 13l35 76 q4 6 4 18q2 4 4 11t4 16l4 16l98 287v2l-4 2h-12h-53q-10 0 -31 -1t-44.5 -3t-45 -3t-29.5 -1q-4 0 -16.5 -1t-25.5 -1t-26.5 -1.5t-15.5 -1.5q-16 -2 -35.5 -4t-33.5 -14q-4 -2 -9.5 -8t-7.5 -6l-176 -211q-2 -2 -7 -7.5t-5 -7.5q-6 -4 -24.5 -21t-22.5 -24q-10 -8 -17 -8 q-18 0 -26 10q-2 0 -2 5q0 2 -2 4zM408 436q0 -10 9 -12t17 -2h6q2 0 5.5 1t7.5 1t18 2t18 4l228 10q0 4 -2 17.5t-4 17.5q0 2 -1 8t-1 9v2q0 14 13 15t21 9q14 14 17 31l59 178q2 4 8.5 30.5t10.5 39.5q2 8 4 22.5t4 28.5t4 24.5t2 12.5v24v2l-2 2h-2l-4 -2l-21 -20 l-405 -440l-10 -11v-4z" />
<glyph unicode="&#xc7;" horiz-adv-x="1167" d="M180 260v31v28q0 2 2 14.5t2 18.5v4q0 2 2 4q10 47 27.5 89.5t40.5 82.5q55 104 132 189.5t175 146.5q94 57 207 82q10 4 23.5 6t27.5 2q43 0 77 -27.5t50 -66.5q6 -16 10.5 -28.5t4.5 -28.5q0 -37 -25 -55q-2 -2 -12 -2t-13.5 1t-7.5 11q-4 6 -4 24v41v11q-4 10 -10 17 t-15 15q-16 16 -38.5 21.5t-42.5 5.5t-39 -5t-35 -11q-84 -31 -154 -80q-35 -25 -66.5 -53.5t-62.5 -59.5q-4 -4 -18.5 -21.5t-20.5 -25.5q-66 -78 -111.5 -173t-45.5 -204v-18q0 -23 8 -45.5t18 -40.5q12 -25 37 -45q51 -43 117.5 -55.5t132.5 -12.5q55 0 110.5 8t108.5 21 q8 2 31.5 7t49.5 11t48.5 12.5t32.5 8.5q45 14 88 30.5t82 42.5q2 2 12 8.5t14 10.5l7 6l45 41q18 18 43 18h6q10 -4 15 -13t5 -19q0 -27 -19.5 -42.5t-39.5 -25.5q-4 -2 -24.5 -10t-24.5 -10q-2 0 -5 -2.5t-5 -2.5q-4 -4 -23.5 -14t-24.5 -12q-35 -20 -72.5 -31.5 t-78.5 -21.5q-10 -4 -17.5 -9.5t-17.5 -9.5q-4 0 -15.5 -3t-24.5 -6t-24.5 -6t-15.5 -5q-25 -6 -49 -19q-23 -12 -44 -34.5t-21 -47.5q0 -14 8 -18t18 -8q2 -2 19.5 -4t19.5 -4q16 -4 31 -11q14 -12 26.5 -35.5t14.5 -42.5v-18v-20q0 -14 -5.5 -26.5t-9.5 -27.5q0 -2 -2 -4 t-2 -4q-4 -12 -9 -23.5t-15 -21.5q-16 -23 -35 -39t-41 -33q-4 -2 -15.5 -7t-23.5 -11t-22.5 -12.5t-14.5 -8.5q-2 -2 -8 -5t-8 -5q-4 -2 -19 -2q-16 0 -28.5 7.5t-12.5 23.5q0 12 7.5 27.5t19.5 19.5q45 16 82 33.5t68 52.5q16 16 23 35.5t11 38.5v6q0 14 -8 26 q-4 10 -16 19q-4 4 -11.5 5t-13.5 3q-4 0 -24.5 2t-24.5 2q-18 4 -35.5 11.5t-27.5 23.5q-4 4 -6.5 12.5t-2.5 12.5q0 18 9.5 36.5t17.5 34.5l2 4l4 4l2 5h-6q-4 0 -9 2t-7 2q-8 2 -23.5 3t-19.5 1t-22.5 1t-40 2t-40 2t-22.5 1q-25 2 -49.5 5t-47.5 13q-6 4 -31.5 14.5 t-33.5 14.5q-25 8 -43 31q-2 2 -4 6t-4 4q-12 18 -25.5 34.5t-17.5 39.5q0 4 -3 24.5t-8 24.5q-4 14 -6 27.5t-4 25.5z" />
<glyph unicode="&#xc8;" horiz-adv-x="1013" d="M104 49q0 10 2.5 18.5t4.5 16.5l120 358q2 2 4.5 9.5t2.5 9.5v4q0 14 -4.5 26.5t-4.5 28.5q0 12 11.5 13.5t19.5 5.5l4 2l6 6t4 6q10 14 15 37q2 2 4 11t2 13l96 263q2 6 4 15t2 17t-1 14.5t-1 12.5t2 8l19 19l4 4q2 2 4 3t4 3q6 4 14.5 9t18.5 5t17 -5t18 -7h51 q4 0 17.5 -1t17.5 -1h10h8l293 26q2 0 18.5 1t36 1t39 1.5t29.5 1.5h59h64q2 0 13 -1.5t19 -1.5q2 -2 7 -2h8q23 -2 32 -16t9 -35q0 -10 -7.5 -21.5t-17.5 -11.5t-17 6.5t-16 10.5q-14 6 -27.5 11t-29.5 5h-119l-436 -28h-65l-7 -5q-4 -4 -6 -4q-2 -2 -4 -2q0 -2 -2 -6 t-2 -6l-111 -246q-2 -2 -9 -19.5t-11 -25.5q0 -4 -2 -9t-2 -7v-8v-4q0 -2 2 -5l4 -4h14h13q6 0 21.5 2t17.5 2l145 23l248 14h121h8q4 0 6 -1t4 -1q16 -4 28.5 -13t12.5 -28q0 -6 -2 -10l-4 -4q-2 -2 -4 -2q-2 -2 -4 -2t-3 -1t-3 -1q-12 -4 -24.5 -4h-25.5h-24q-4 0 -14.5 1 t-21.5 3t-22.5 3t-13.5 1h-39h-43q-10 0 -30.5 -2t-44 -3t-43 -3t-27.5 -2q-6 0 -21.5 -2t-33 -5.5t-34 -5.5t-24.5 -2t-38.5 -6t-41.5 -8q-4 -2 -26.5 -8t-32.5 -8l-13.5 -4.5t-11.5 -6.5q-4 -2 -6 -6q-4 -4 -4 -6l-2 -2l-2 -2q-2 0 -2 -2q-18 -37 -28.5 -77t-20.5 -81 q-2 -4 -8.5 -20.5t-8.5 -20.5v-6q0 -2 -1 -5t-1 -7v-10q-2 -27 -12 -52.5t-20 -48.5q-10 -20 -11 -41l2 -8q2 -2 6.5 -5t6.5 -3h16l631 61h11t26.5 1t32 1h26.5h8q27 0 43.5 -6t20.5 -37l-13 -18q-16 -4 -27 -7t-28 -3q-12 0 -20 3t-19 7h-8h-12h-15q-6 0 -28.5 -4t-26.5 -6 h-14l-346 -21q-59 -23 -124 -33t-130 -14q-4 0 -16.5 -1t-16.5 -1h-20h-23q-12 4 -17.5 19.5t-5.5 25.5zM700 1309q0 6 2 8l3 4q4 0 10 5t8 9q16 12 27 13q10 0 14 -2q4 -4 16.5 -13.5t16.5 -13.5q4 -6 19 -20.5t18 -18.5l104 -104q4 -4 15.5 -12.5t15.5 -12.5 q10 -10 18 -22.5t14 -28.5q6 -4 7 -19q0 -10 -12.5 -17t-20.5 -7q-10 0 -18.5 7t-12.5 15l-139 133q-4 4 -22.5 21.5t-24.5 26.5q-4 2 -23.5 16t-23.5 14q-10 10 -11 19z" />
<glyph unicode="&#xc9;" horiz-adv-x="1013" d="M104 -33q4 8 9.5 28.5t7.5 22.5l108 322q0 4 2 9t2 7v11q0 12 -3 24t-3 25q0 12 8.5 14t18.5 6q12 4 18.5 13.5t10.5 21.5q2 8 11 38t13 38l80 225q2 2 4 8q2 4 2 8.5t2 8.5v6v4q0 8 -1 14t-1 13q0 14 15.5 26t27.5 19q4 4 10.5 7t12.5 3q10 0 16 -5t14 -10h56q2 0 14 -1 t16 -1h13h12l297 27q2 0 19.5 1t41 1t46 1t36.5 1h39h43q4 0 20.5 -1t22.5 -1h17.5t17.5 -4q14 -6 18.5 -19.5t4.5 -27.5v-12q-2 -8 -7.5 -15.5t-15.5 -7.5t-16 5t-15 9q-29 18 -63 19h-102l-443 -31h-72q0 -2 -2 -2t-4 -2q-6 -4 -6 -8l-123 -258q0 -4 -6 -18.5t-8 -20.5 q0 -2 -3 -9t-3 -10q-2 -4 -2 -10t8 -10h16h17q8 0 25.5 1t21.5 3l131 23l260 16h107h12q16 -4 33.5 -14.5t17.5 -32.5q0 -16 -14.5 -18.5t-26.5 -4.5h-29q-35 0 -67.5 3.5t-67.5 3.5h-33q-78 -4 -155.5 -10.5t-155.5 -18.5q-4 -2 -22.5 -5t-22.5 -5t-26.5 -7.5t-30.5 -7.5 q-29 -10 -45 -47q-4 -10 -7.5 -21.5t-7.5 -21.5q-2 -4 -6 -18.5t-9 -30.5t-9 -31.5t-4 -17.5q-4 -10 -8.5 -21.5t-6.5 -21.5q0 -2 -2 -16.5t-2 -18.5q0 -18 -10 -39q0 -4 -10 -26.5t-10 -26.5q-4 -10 -7.5 -18.5t-3.5 -18.5q0 -8 4 -10l7 -6q2 -2 4 -7h2l651 66q4 0 14 1 t15 1h49h47q35 -4 35 -41q0 -12 -2 -16q-6 -10 -30 -13.5t-34 -3.5t-19.5 3t-21.5 8h-4h-14h-13q-8 0 -28.5 -4.5t-28.5 -6.5h-8l-350 -20q-57 -18 -113.5 -28.5t-116.5 -14.5q-6 0 -26.5 -2t-24.5 -2h-26h-25q-12 4 -16.5 17t-4.5 28v18zM651 999v11v10q6 10 11 14q2 0 9 4 t11 6q4 0 21.5 8.5t27.5 12.5q2 0 6 2t6 2q6 2 16.5 5t21 7t18.5 7.5t10 3.5t11 2t18.5 4t18.5 5t11 3q47 14 89 34.5t90 20.5h8q18 -2 26.5 -6t8.5 -22q0 -14 -3.5 -21.5t-17.5 -11.5q-4 -2 -9 -2t-9 -2l-258 -86q-2 0 -10.5 -3t-19.5 -8.5t-22.5 -9.5t-17.5 -6 q-4 -4 -21.5 -10t-21.5 -8h-14l-2 2q-2 0 -5 2l-4 6q0 4 -1 7t-1 7q-2 4 -2 10z" />
<glyph unicode="&#xca;" horiz-adv-x="1013" d="M104 49v12l2 9q2 6 5.5 17t5.5 13l114 344l5 13v8q0 14 -3.5 25.5t-3.5 27.5v8q2 8 13.5 9.5t17.5 3.5q14 6 20.5 23.5t10.5 29.5q2 2 3 11t3 13l94 263q2 2 2 6q0 8 2 10v4v6q0 2 2 4q-2 4 -2 9v10v6v6v4q8 10 31 26.5t35 16.5q10 0 17 -5t18 -7h53q2 0 15.5 -1t17.5 -1 h6h10l295 26q2 0 18.5 1t36 1t39 1.5t29.5 1.5h57h68q2 0 12 -1.5t16 -1.5q12 -2 25.5 -3t22.5 -13q8 -16 8 -37v-10l-2 -4q-4 -6 -8.5 -12.5t-14.5 -6.5t-19.5 7.5t-19.5 11.5q-8 6 -23.5 10t-25.5 4h-119l-436 -28h-68l-4 -5q-8 -8 -10 -12l-117 -252q-2 -4 -8 -20.5 t-10 -26.5q-6 -12 -6 -22q0 -6 6 -13h14q23 0 43.5 2t42.5 7q6 2 21.5 4t33 5t34 5t22.5 4l252 14h121h8q16 -4 33.5 -14t17.5 -29q0 -16 -15.5 -18t-27.5 -6h-27h-26q-4 0 -14.5 1t-22.5 3t-22.5 3t-12.5 1h-41h-39q-86 -4 -168 -12.5t-166 -26.5q-4 0 -23.5 -4t-27.5 -8 q-4 -2 -14 -4t-12 -2q-16 -6 -23.5 -21.5t-15.5 -32.5q-2 -2 -2 -4q-2 -2 -2 -4q-2 -6 -7.5 -18.5t-5.5 -14.5q-2 -4 -5 -16t-7 -27.5t-7 -28t-5 -14.5q-4 -10 -8.5 -22t-6.5 -23q-4 -14 -3 -27.5t-3 -29.5q-4 -2 -6 -10t-4 -13q0 -4 -7 -22.5t-7 -22.5q-12 -18 -13 -43 q0 -2 -1 -5t3 -7q0 2 7 -4q2 -2 4 -2h16l629 61h12t27.5 1t32 1h26.5h10q23 0 41.5 -6t18.5 -37q0 -14 -7.5 -16t-21.5 -6q-18 -6 -39 -6q-10 0 -19.5 3t-19.5 7h-6h-12h-15q-8 0 -28.5 -4t-28.5 -6h-10l-348 -21q-57 -20 -114.5 -30.5t-117.5 -14.5q-6 0 -26.5 -2t-28.5 -2 h-23h-18l-4 2q-12 8 -16.5 19.5t-4.5 23.5zM627 1135q0 23 26.5 29.5t42.5 15.5q14 4 19 8q4 2 15 6t15 8q8 6 27 16.5t40.5 21.5t39.5 21.5t27 14.5q6 4 19 11t28.5 14.5t29 13.5t17.5 8q12 4 23.5 8t25.5 4q10 0 18.5 -1t16.5 -5q6 -6 12 -23.5t6 -27.5q4 -20 5 -40.5 t12 -41.5q6 -16 18 -30.5t23 -28.5q6 -8 12 -17.5t6 -19.5q0 -4 -4 -6q0 -6 -10 -7h-11h-13t-13 5l-4 4q-4 2 -12.5 9t-10.5 9t-4 5t-4 5q-23 31 -34 66t-21 72v2h-2q-25 -8 -50.5 -19.5t-48.5 -21.5q-4 -4 -22.5 -15.5t-41 -24t-42 -23.5t-25.5 -13q-2 -2 -19.5 -10.5 t-25.5 -12.5q0 -2 -6 -3t-8 -5q-4 -2 -20.5 -8t-20.5 -8q-6 0 -10 -1t-13 -1q-29 0 -28 37z" />
<glyph unicode="&#xcb;" horiz-adv-x="1013" d="M104 49v14q2 8 6.5 20.5t4.5 14.5l114 344q2 2 4.5 9.5t2.5 9.5v4q0 12 -3.5 24.5t-3.5 26.5v10q8 10 27 11q10 4 16.5 13t10.5 19q0 2 2 9.5t4 11.5q2 2 4 11t4 13l92 263q2 6 4 15t2 17v25v8l4 4l17 17l4 4l6 6q8 4 15.5 9t17.5 5t17 -5t18 -7h53q4 0 17.5 -1t15.5 -1 h10h8l295 26q2 0 17.5 1t36 1t40 1.5t29.5 1.5h57h66q4 0 14 -1.5t16 -1.5q2 0 7.5 -1t9.5 -1q23 -2 31 -16t8 -35q0 -10 -6.5 -21.5t-16.5 -11.5q-12 0 -18 6.5t-17 10.5q-12 6 -26.5 11t-28.5 5h-121l-434 -28h-68q0 -2 -2 -2q-2 -2 -4 -3q-2 -4 -5 -6t-3 -4q-2 0 -3 -5 t-3 -9l-119 -258q0 -2 -5 -12.5t-5 -14.5q-2 -4 -4 -9t-2 -7v-8v-4l6 -9h14h13q8 0 22 2t17 2l145 23l250 14h121h6q4 0 6 -1t4 -1q16 -4 28.5 -13t12.5 -28v-10l-4 -4q-2 -2 -4 -2q-2 -2 -4 -2t-2 -1t-2 -1h-2q-14 -4 -25.5 -4h-26.5h-24q-2 0 -12.5 1t-22.5 3t-22.5 3 t-14.5 1h-39h-41q-10 0 -30.5 -2t-44 -3t-44 -3t-28.5 -2q-4 0 -20.5 -3t-36 -5.5t-38 -4.5t-24.5 -2q-8 -2 -36 -7t-38 -7q-4 -2 -26.5 -8t-32.5 -8q-16 -4 -23 -11q-2 -2 -6 -7t-6 -7t-2 -4t-2 -2q-20 -37 -29.5 -76t-21.5 -80q-4 -10 -9.5 -22.5t-7.5 -24.5v-24 q-4 -27 -12 -48q-10 -20 -19.5 -43.5t-9.5 -48.5v-8l13 -10l645 63h12t27.5 1t31 1h25.5h10q23 0 41.5 -6t18.5 -35v-16q-4 -4 -16.5 -6t-16.5 -4q-8 -2 -15.5 -3t-17.5 -1t-19.5 3t-19.5 7h-6h-14h-15q-4 0 -26.5 -4t-28.5 -6h-10l-348 -21q-61 -23 -126 -33t-130 -14 q-4 0 -16.5 -1t-16.5 -1h-21h-18q-14 4 -19.5 19.5t-5.5 25.5zM647 1135v16v14q2 10 6 20.5t9 16.5q6 12 14 21.5t18 19.5l6 6q2 2 5 2h36q2 0 5.5 -2t7.5 -2q2 -2 5 -6t5 -4q6 -6 6 -20q0 -10 -4 -17.5t-8 -17.5q-8 -20 -13.5 -33.5t-21.5 -28.5q-8 -6 -16.5 -7t-18.5 -1 q-12 0 -19 2t-18 14q-2 0 -2 5q0 2 -2 2zM956 1137q0 10 2 14q0 2 4.5 9t6.5 11q0 2 2 5l4 4v2q0 2 1 2t1 2t2 4l12 12q2 2 13.5 6t15.5 9l8 4t6 2h6q8 0 14.5 -3t14.5 -8q6 -12 6 -26q0 -20 -9 -35.5t-19 -30.5q-8 -8 -14.5 -15t-16.5 -11h-12q-10 0 -15.5 1t-13.5 3 q-6 2 -9 7t-5 9q-5 9 -5 23z" />
<glyph unicode="&#xcc;" horiz-adv-x="638" d="M-10 80q0 6 4 14t14 10h96q2 0 17.5 1t19.5 1t10.5 1.5t10.5 1.5t12 1t10 1t6.5 1t8.5 1l8 4t6 6l391 788q0 2 6 17.5t11 21.5q0 2 1 5t1 6v2q0 4 -3.5 4t-5.5 2q-4 0 -20 1t-21 1h-79q-14 2 -23.5 4t-19.5 12q-4 4 -5 19q0 20 21 28h6h16q29 0 55.5 -4t55.5 -4h10 l140 10h88q2 -2 4 -2h6q23 -4 41 -13t18 -36q0 -10 -6 -23.5t-18 -13.5h-11q-2 2 -11 7.5t-9 7.5q-16 10 -33.5 12t-38.5 2q-16 0 -31.5 -1t-31.5 -3l-10 -4q-4 0 -9 -4q-10 -4 -14 -17l-211 -397q-6 -14 -10 -29.5t-8 -29.5q0 -2 -1 -2.5t-1 -2.5l-2 -2q-2 -4 -8.5 -15 t-13.5 -24.5t-13 -24.5t-8 -15q-8 -6 -15 -27q0 -4 -6 -23.5t-8 -23.5q0 -2 -2 -5t-2 -5t-4 -4.5t-6 -4.5q-2 -4 -4.5 -4t-2.5 -4q-20 -41 -37.5 -84t-31.5 -90l4 -2q16 -4 32.5 -5t32.5 -1q23 0 44.5 1t43.5 1h31q2 0 7 -1t10 -1q2 0 10 -1t10 -1q16 -4 32.5 -10.5 t16.5 -26.5q0 -35 -39 -35q-18 0 -34.5 6t-32.5 8h-66h-49h-37l-231 -16h-68q-2 0 -4 2l-6 6q-6 7 -6 25zM571 1337q0 6 2 9q2 2 11.5 9t11.5 11q6 4 13 7t12 3q10 0 12 -4q16 -12 32.5 -24.5t30.5 -28.5l111 -113q0 -4 2 -6q4 -4 6 -4q16 -12 30.5 -24.5t22.5 -32.5 q2 -2 4 -8.5t5 -10.5q2 -6 2 -14t-11 -12q-6 -8 -22 -9q-12 0 -17.5 4.5t-13.5 10.5l-143 147q-2 2 -20.5 16.5t-26.5 22.5q-4 2 -22.5 16.5t-22.5 18.5q-8 6 -9 16z" />
<glyph unicode="&#xcd;" horiz-adv-x="638" d="M-8 69.5v14.5q2 2 2 6q0 8 2 8l8 4l4 2h98q4 0 17.5 2.5t19.5 2.5h19q4 0 13 1t11 1t5.5 1t7.5 1q4 2 9 4t7 6l393 788q4 12 9.5 24.5t9.5 25.5v2q0 4 -3 4t-8 2q-4 0 -20 1t-21 1h-79q-18 2 -32.5 7t-14.5 28q0 20 20 28h6h14q29 0 57.5 -4t57.5 -4h8l140 10h86 q16 0 37.5 -7t29.5 -23q6 -6 6 -19q0 -23 -16 -37q-4 -2 -10 -2h-13q-2 2 -10 7.5t-8 7.5q-18 10 -35.5 12t-34.5 2q-43 0 -77 -8q-2 0 -7 -4q-10 -4 -14 -17l-215 -405q0 -4 -5 -21.5t-7 -23.5q0 -8 -8 -17q0 -4 -6.5 -14t-13.5 -22.5t-13 -23.5t-8 -15q-6 -10 -13 -27 q-8 -16 -14 -38t-23 -34q-4 -6 -11 -24.5t-15 -38t-16.5 -38t-10.5 -26.5q-2 -4 -8 -23.5t-8 -25.5l4 -2q31 -6 65 -6q23 0 44.5 1t44.5 1h28q2 0 8.5 -1t10.5 -1q16 -2 35.5 -6t31.5 -19q4 -6 4 -14q0 -16 -12 -25.5t-29 -9.5q-18 0 -33.5 6t-31.5 8h-68h-51h-35l-229 -16 h-70q-4 2 -6 4l-6 6q-4 4 -4 12.5zM544 1159q-1 4 3 6l6 6q2 4 10 7.5t12 5.5q6 4 20.5 9t18.5 9q8 2 30 9.5t28 11.5q2 0 16 4l31.5 9t31 9t17.5 4q43 12 82 30.5t86 18.5q20 0 31.5 -2t11.5 -24q0 -20 -8 -25.5t-29 -9.5l-266 -90l-103 -45q-4 -2 -8 -2q-12 0 -14 10 q-6 21 -6 41q0 4 -1 8z" />
<glyph unicode="&#xce;" horiz-adv-x="638" d="M-10 78q0 8 4 16t16 10h94q4 0 19.5 1t19.5 1q2 0 9.5 1.5t11.5 1.5t11 1t11 1h7q2 0 3 1t3 1l8 4t8 6l389 788q12 25 19 50v2q0 2 -9 6q-4 0 -20 1t-21 1h-79q-16 2 -32 7t-16 28q0 20 21 28h6h16q29 0 55.5 -4t57.5 -4h8l140 10h88q2 -2 4 -2h8q23 -4 40 -13t17 -36 q0 -10 -5 -23.5t-19 -13.5h-13q0 2 -8 7.5t-10 7.5q-16 10 -33.5 12t-38.5 2q-43 0 -73 -8q-6 0 -7 -4q-10 -4 -16 -17l-207 -395q-10 -16 -13 -30.5t-9 -30.5q-12 -27 -27.5 -49.5t-26.5 -47.5q-6 -6 -6 -16q-8 -16 -13 -38t-22 -34q-20 -43 -38.5 -86t-30.5 -90l2 -2 q33 -6 67 -6q20 0 42 1t44 1h31q2 0 8.5 -1t8.5 -1t5 -1t7 -1h8q16 -4 32.5 -10.5t16.5 -26.5q0 -35 -39 -35q-16 0 -32.5 6t-34.5 8h-66h-49h-37l-231 -16h-66q-2 0 -4 2t-4 3t-4 3q-6 7 -6 23zM528 1149q0 23 20.5 28t37.5 13q63 29 120.5 63.5t120.5 63.5q10 4 18.5 6 t18.5 2h11.5t13.5 -4q6 -6 9 -18.5t5 -22.5q0 -4 2 -20.5t2 -20.5q2 -25 19 -49q8 -16 24.5 -34.5t16.5 -35.5q0 -10 -11 -14h-10q-16 0 -22 4q-20 16 -32.5 38.5t-21.5 47.5q-2 6 -9 31.5t-11 34.5h-10q-4 -2 -12.5 -6.5t-12.5 -4.5q-4 -4 -13 -8t-11 -6l-146 -84 q-20 -12 -42.5 -21.5t-45.5 -17.5h-4q-16 0 -20.5 9.5t-4.5 25.5z" />
<glyph unicode="&#xcf;" horiz-adv-x="638" d="M-10 80q0 6 4 14t16 10h94q4 0 19.5 1t19.5 1q2 0 9.5 1.5t11.5 1.5t11 1t11 1h7q2 0 3 1t3 1l8 4t8 6l389 788q12 25 19 50v2q0 2 -9 6q-4 0 -20 1t-21 1h-79q-16 2 -32 7t-16 28q0 20 21 28h6h16q29 0 55.5 -4t57.5 -4h8l140 10h88q2 -2 4 -2h8q23 -4 40 -13t17 -36 q0 -10 -6 -23.5t-18 -13.5h-13q0 2 -8 7.5t-10 7.5q-16 10 -33.5 12t-38.5 2q-43 0 -73 -8q-6 0 -7 -4q-10 -4 -16 -17l-207 -395q-10 -16 -13 -30.5t-9 -30.5q-12 -27 -27.5 -49.5t-26.5 -47.5q-6 -6 -6 -16q-8 -16 -13 -38t-22 -34q-20 -43 -38.5 -86t-30.5 -90l2 -2 q33 -6 67 -6q20 0 42 1t44 1h31q2 0 8.5 -1t8.5 -1t5 -1t7 -1h8q16 -4 32.5 -10.5t16.5 -26.5q0 -35 -39 -35q-16 0 -32.5 6t-34.5 8h-66h-49h-37l-231 -16h-66q-2 0 -4 2t-4 3t-4 3q-6 7 -6 25zM518 1151v2v12v15v4q0 2 2 2q6 25 21.5 45t33.5 35h13h22q27 -6 27 -35 q0 -10 -8 -27q-12 -31 -22.5 -54.5t-51.5 -23.5q-10 0 -21.5 4.5t-13.5 16.5zM825 1151v12q0 2 5.5 10.5t7.5 12.5q4 8 10 18t16 15q10 6 20.5 11t22.5 5h8q2 0 4.5 -2t4.5 -2t5 -1t5 -1q8 -2 9 -12.5t1 -18.5q0 -20 -9 -33.5t-22 -29.5q-4 -2 -9 -9.5t-9 -11.5 q-8 -10 -21 -10q-14 0 -32 6q-10 4 -13.5 17.5t-3.5 23.5z" />
<glyph unicode="&#xd1;" horiz-adv-x="854" d="M125 6v16.5t4 16.5v2q0 2 2 4q0 2 2 4l35 35q2 0 2 2t2 4l268 678q0 4 3 10t3 15v41q4 23 17.5 28.5t32.5 5.5q10 0 20 -2t19 -12q2 -4 1 -5t-1 -5q0 -16 -7.5 -28.5t-7.5 -24.5v-5l76 -501l29 -135q0 -2 3 -16.5t7 -20.5q2 -2 2 -4q0 -6 2 -9l2 4l201 709q2 6 8 23.5 t12 36t12.5 36t8.5 23.5q2 4 7 24.5t7 28.5q12 12 31 12q27 0 26 -32q0 -8 -1 -15.5t-5 -15.5l-59 -146q0 -2 -5 -19t-12.5 -40.5t-13.5 -48.5t-10 -41q-6 -23 -10 -43.5t-9 -42.5q-2 -4 -5 -13.5t-5 -13.5q0 -4 -5 -16t-10 -26.5t-9 -27t-7 -16.5q-8 -25 -10 -51.5 t-12 -52.5q-2 -6 -7 -20.5t-11.5 -30t-10.5 -29.5t-6 -20q0 -2 -3 -12.5t-6 -23t-6 -22.5t-3 -12q-2 -4 -10.5 -29.5t-10.5 -30.5q-4 -10 -3 -18t-1 -18q-2 -8 -3 -29t-3 -27q-4 -20 -11 -43.5t-32 -23.5q-12 0 -20.5 10t-14.5 18q-10 14 -16 27.5t-13 30.5q-4 4 -4 12 l-10 127l-86 510q0 8 -2 12l-6 -6l-18 -35l-60 -121l-156 -405q-4 -8 -10 -28.5t-10 -28.5t-7 -17.5t-5 -19.5q0 -4 -3 -20.5t-3 -20.5q-2 -10 -7.5 -23.5t-17.5 -17.5h-6h-12h-5q-4 2 -14 12q-6 10 -7 21.5t-1 21.5zM530 1063v22v19q2 14 10.5 31.5t24.5 17.5t27 -12v-15 q0 -16 -3 -32.5t-3 -32.5q0 -10 2 -19q4 -16 14 -26h2q10 4 18.5 10t18.5 10q6 4 17.5 11.5t13.5 9.5l116 96q2 2 11.5 8t13.5 10q20 14 43 26.5t49 12.5q31 0 55.5 -16t38.5 -41q2 -2 6.5 -11t9.5 -18.5t9 -17.5t4 -10t2 -4q4 -4 4 -5q0 -2 2 -2l2 -2q0 -2 5.5 -7t9.5 -9 q8 -6 17 -13t9 -20q0 -37 -28 -59q-2 -2 -7 -2q-8 0 -16 12l-49 96q-20 35 -53 56q-8 6 -13.5 7t-11.5 1q-16 0 -32.5 -8.5t-28.5 -16.5l-168 -135q-27 -27 -66 -27h-14q-45 10 -51 52q-4 10 -7.5 30.5t-3.5 22.5z" />
<glyph unicode="&#xd2;" horiz-adv-x="956" d="M100 184q0 31 6.5 56.5t20.5 54.5q2 6 9 21.5t14.5 32t14.5 31.5t11 21q4 8 18.5 35t22.5 37q2 4 8 14.5t12.5 21.5t12.5 20.5t8 13.5q55 86 118.5 167t137.5 152q4 4 21.5 19.5t25.5 23.5q27 23 56.5 43.5t62.5 36.5q35 18 73 30.5t74 12.5q25 0 40.5 -9t33.5 -26 q2 -4 15.5 -19.5t17.5 -19.5t14 -15t22.5 -23.5t24 -22.5t15.5 -14q27 -31 37 -68t10 -72q0 -66 -20.5 -125t-55.5 -112t-79 -100.5t-93 -86.5q-4 -4 -13.5 -11t-20.5 -15t-20.5 -14.5t-11.5 -8.5q-6 -4 -20 -13t-31.5 -20.5t-33 -21.5t-21.5 -14q-4 -4 -14.5 -10.5 t-22.5 -12.5t-22.5 -12t-16.5 -8q-68 -39 -145.5 -66t-157.5 -27q-39 0 -73.5 9.5t-61.5 38.5q-6 4 -9 12t-8 16q-4 10 -5 23.5t-1 23.5zM156 184q0 -25 10 -38t25.5 -20t35 -8t39.5 -1q39 0 75 8t75 20q59 23 116.5 51.5t112.5 61.5q2 2 9.5 8t16.5 12.5t17 12.5t12 8 q61 47 119 98.5t103 114.5q31 41 51 84t28 94v6q0 2 3 6v27q0 41 -15 84q-4 18 -18 33q-25 27 -51 45q-8 4 -32 19.5t-32 19.5q-10 6 -20 6t-17.5 -2t-15.5 -2q-14 0 -21.5 10t-17.5 10t-22.5 -6t-18.5 -8q-4 -4 -13.5 -8t-11.5 -4q-6 -4 -17 -10.5t-15 -10.5 q-8 -6 -35 -24.5t-37 -26.5q-8 -6 -13.5 -14.5t-15.5 -16.5q-4 -2 -6 -4l-6 -6q-2 0 -17.5 -16.5t-17.5 -18.5q-4 -4 -15 -12t-14 -12q-2 0 -9 -8.5t-9 -12.5q-57 -57 -109 -131q-4 -4 -12 -16.5t-18 -26.5t-19.5 -27.5t-11.5 -17.5q-37 -57 -69.5 -115.5t-55.5 -122.5 q-8 -20 -14 -44.5t-6 -47.5zM729 1311q0 2 4 10q4 2 13.5 9t11.5 11q12 6 20 7q10 0 15 -2q4 -4 15 -13.5t13 -11.5q6 -4 18.5 -17.5t16.5 -13.5l109 -112q4 -4 14 -12.5t14 -12.5q4 -2 10.5 -9t10.5 -9q0 -4 2 -6.5t2 -4.5q2 0 5 -6t5 -8q4 -8 6 -14t2 -15q0 -10 -12 -17 t-23 -7q-10 0 -16 7t-10 11l-144 142q-4 4 -14 12t-14 12q-6 8 -30.5 26.5t-31.5 22.5q-12 8 -12 21z" />
<glyph unicode="&#xd3;" horiz-adv-x="956" d="M100 184q0 29 7.5 53.5t19.5 51.5q2 8 10 26.5t17.5 39t17.5 39t12 24.5q4 4 13.5 19.5t19.5 32.5t19.5 33.5t15.5 22.5q4 6 13 20.5t19.5 31t20.5 32t14 21.5q2 4 12.5 17.5t20.5 26.5t20.5 26.5t14.5 17.5q2 2 10.5 11t18.5 21.5t20 23.5t17 18q2 4 8 11t8 9 q8 8 28.5 29.5t24.5 25.5q47 45 107 84q45 31 96 53.5t104 22.5q39 0 68 -29q4 -4 17.5 -19t17.5 -19t15 -15.5t23.5 -24t24 -23.5t15.5 -17q43 -47 47 -113v-29v-34.5t-4 -32.5q-6 -37 -19.5 -69t-29.5 -64q-16 -33 -38 -63t-46 -56q-33 -35 -68 -65.5t-70 -59.5 q-8 -6 -31.5 -23.5t-31.5 -21.5q-4 -4 -18.5 -13.5t-33 -21.5t-37 -23.5t-26.5 -15.5q-4 -4 -22.5 -13t-24.5 -13q-68 -37 -142.5 -63t-152.5 -26q-63 0 -112.5 25.5t-49.5 97.5zM158 168q0 -2 2 -4q6 -25 29.5 -36t46.5 -11h30q23 0 43.5 3t42.5 7q57 14 109.5 35.5 t105.5 50.5q35 20 68 39.5t63 42.5q43 31 83 64.5t75 70.5q4 6 15.5 18.5t15.5 16.5q47 55 83 119.5t36 142.5q0 45 -11.5 78t-46.5 65q-2 4 -9 9.5t-9 5.5q-10 8 -38 25.5t-38 21.5q-8 4 -18 4q-8 0 -14.5 -2t-14.5 -2q-16 0 -23.5 10t-17.5 10q-12 0 -25 -8q-4 0 -13 -4 t-9 -6q-6 -4 -21.5 -12.5t-19.5 -12.5q-6 -2 -17.5 -9t-23.5 -16.5t-23.5 -17.5t-15.5 -10q-10 -10 -19.5 -21.5t-21.5 -19.5q-27 -27 -55.5 -51.5t-50.5 -54.5q-66 -72 -118 -149t-100 -161q-4 -6 -16 -30.5t-16 -32.5q-2 -4 -9.5 -23.5t-11.5 -25.5q-10 -25 -16 -49.5 t-6 -51.5v-14v-4zM621 1102v4v4v14v11q0 6 8 10l4 6q35 16 69.5 28.5t71.5 24.5q2 0 11.5 3t19.5 6.5t19.5 6.5t13.5 3q2 2 10 4t12 2q2 2 13.5 6t23.5 10t23.5 10.5t15.5 6.5q20 4 37.5 8t40.5 4q16 0 29.5 -2t13.5 -23q0 -20 -9.5 -26t-29.5 -11l-258 -88q-4 0 -28.5 -10 t-37.5 -14q-4 -2 -22.5 -10.5t-22.5 -10.5q-2 -2 -10 -2q-10 0 -12 8.5t-4 14.5q-2 0 -2 2z" />
<glyph unicode="&#xd4;" horiz-adv-x="956" d="M100 184q0 27 6.5 51.5t16.5 47.5q2 8 11 26.5t18.5 40t17.5 40t12 24.5q2 4 11.5 18t18.5 29.5t17.5 31t12.5 21.5q4 4 13 18.5t19.5 32t20.5 32.5t16 21q2 4 10.5 14.5t17.5 23t16 23.5t12 15q39 49 78.5 93t82.5 90q4 2 22.5 18t27.5 20q53 41 117.5 77t131.5 36 q16 0 30.5 -4t25.5 -14q4 -4 12 -10.5t10 -10.5t16.5 -20.5t18.5 -20.5q16 -16 32.5 -30.5t31.5 -32.5q29 -31 41 -68t12 -78q0 -115 -58.5 -209t-138.5 -170q-4 -4 -22.5 -20t-22.5 -21q-6 -4 -16.5 -12t-22.5 -17t-21.5 -16.5t-11.5 -9.5q-6 -4 -20 -12t-30.5 -19.5 t-32 -20.5t-21.5 -13q-8 -4 -34.5 -21.5t-35.5 -21.5q-72 -41 -149.5 -68t-159.5 -27q-66 0 -113 25.5t-47 97.5zM156 184q0 -47 35.5 -57t72.5 -10h29q2 0 7 1t7 1q63 12 123 33q2 2 12.5 4t14.5 4q82 37 156.5 82t146.5 102q8 4 25.5 19.5t21.5 21.5q4 2 12 10t18.5 17.5 t19.5 18.5l13 13q2 4 13.5 17.5t15.5 19.5q41 53 74 113.5t33 132.5q0 47 -16.5 88t-57.5 70q-4 2 -14.5 8t-21.5 13t-21.5 13.5t-14.5 8.5q-10 8 -24 8q-8 0 -14.5 -2t-14.5 -2q-16 0 -23.5 10t-17.5 10q-6 0 -12 -2t-11 -4q-41 -18 -75.5 -42.5t-73.5 -49.5 q-8 -8 -13.5 -16.5t-15.5 -14.5q-2 -2 -7 -6t-7 -4q-2 -4 -17.5 -19.5l-19.5 -19.5q-20 -18 -40.5 -38.5t-41.5 -43.5q-4 -6 -14 -18t-20.5 -25.5t-18.5 -25t-10 -13.5q-4 -6 -14.5 -20.5t-20.5 -29.5t-20.5 -28.5t-12.5 -19.5q-4 -6 -12 -20.5t-17.5 -30t-18.5 -29.5 t-13 -20q-2 -2 -6.5 -11.5t-10.5 -21.5t-12 -23.5t-8 -17.5q-2 -2 -6 -13.5t-7 -15.5q-4 -4 -8 -17t-6 -18q-8 -20 -14 -43.5t-6 -46.5zM659 1124v11q4 8 9.5 12t9.5 8q4 0 18.5 4t18.5 6q2 0 17.5 6.5t21.5 10.5q4 2 11 6t11 6l133 74l6 4q2 0 8.5 3t8.5 3q2 2 16.5 8 t16.5 8q10 4 21 9.5t24 5.5h14t16 -4q10 -10 13.5 -21.5t5.5 -21.5q4 -23 5 -42.5t7 -37.5q6 -12 14 -21q2 -4 13.5 -19.5t13.5 -17.5q4 -8 8 -14t4 -12q0 -10 -7 -11.5t-17 -1.5q-14 0 -21 2q-14 8 -22 23q-16 18 -25.5 41t-17.5 45q-2 4 -7.5 21.5t-5.5 21.5l-2 6 q-25 -8 -48 -19.5t-46 -23.5q-49 -29 -94 -54.5t-98 -47.5q-8 -2 -14.5 -4t-16.5 -2q-16 0 -19.5 7t-3.5 23z" />
<glyph unicode="&#xd5;" horiz-adv-x="956" d="M100 43q0 29 6.5 53.5t18.5 53.5q2 6 10 23t16.5 36.5t16.5 37t12 23.5t12.5 20.5t17.5 31t17.5 31t12.5 20.5t14 21.5t20.5 31.5t19.5 30.5t13 20.5t15.5 20.5t24.5 32t25.5 34t16.5 24.5q33 37 66.5 72.5t68.5 70.5q4 4 23.5 19.5t27.5 21.5q41 35 85.5 61.5t95.5 43.5 q18 4 35.5 6t33.5 2h21q29 -4 46 -25.5t38 -42.5l15 -15l23.5 -23.5l24 -24l15.5 -15.5q49 -57 49 -143q0 -117 -59.5 -210t-141.5 -169q-6 -6 -26.5 -24.5t-26.5 -22.5q-4 -4 -15.5 -12t-25.5 -18.5t-26.5 -19.5t-16.5 -11q-6 -4 -23.5 -15.5t-38 -24t-38 -23.5t-23.5 -15 q-29 -16 -60.5 -31.5t-60.5 -30.5q-51 -23 -105.5 -36t-107.5 -13q-41 0 -83 10.5t-64 46.5q-10 16 -12.5 32t-2.5 34zM156 43q0 -23 9 -36t24.5 -19t35 -8.5t37.5 -2.5q35 0 69 6.5t66 16.5q4 2 14.5 5t14.5 5q145 55 279 150q61 45 115 96t100 111q31 41 52 86t29 94v12 v29v25.5t-4 27.5q-6 35 -26.5 61.5t-48.5 47.5q-8 4 -33 18t-33 18q-12 8 -22 9q-8 0 -15.5 -2t-15.5 -2h-6q-10 2 -17.5 11t-17.5 9t-21.5 -6t-19.5 -10t-25.5 -13.5t-21.5 -13.5q-2 -2 -11.5 -8t-20.5 -13.5t-21.5 -14.5l-16.5 -11q-4 -2 -9 -5t-9 -7q0 -4 -4 -9.5 t-7 -7.5q-8 -6 -15 -11t-13 -13q-2 -4 -17.5 -18.5t-17.5 -18.5q-2 0 -7 -5t-7 -5l-39 -39q-4 -6 -23.5 -28t-23.5 -28t-12.5 -16t-17.5 -22.5t-16.5 -22.5t-9.5 -12q-45 -61 -82.5 -125t-72.5 -129q-2 -4 -3 -9.5t-3 -9.5q-14 -33 -26.5 -67.5t-12.5 -69.5zM612 1030 q0 12 2 26.5t13 24.5q2 2 5 5.5t3 5.5q2 2 6 2h4q12 0 19 -9v-14q0 -16 -2.5 -28.5t-2.5 -28.5v-15q2 -16 15 -26h2q25 12 45 26.5t43 30.5q2 2 14.5 12.5t25.5 21.5t24.5 21.5t13.5 12.5q4 0 9 3t9 7l37.5 22.5t40.5 10.5q57 0 84 -51q4 -4 14.5 -27t14.5 -27q0 -2 1 -2 t1 -2t2 -4t9 -8t9 -8l12 -13q4 -4 3 -7t-1 -7v-10q0 -8 -9 -23.5t-19 -15.5q-4 0 -15 10q-4 10 -19 38t-21 36q-16 31 -41 51q-8 14 -29 14q-20 0 -39 -14q-2 0 -4 -2t-6 -4l-8 -4l-136 -113q-14 -10 -29.5 -17t-37.5 -7q-8 0 -16.5 3t-12.5 7q-8 4 -15 11t-9 18 q-4 16 -6.5 33.5t-2.5 33.5z" />
<glyph unicode="&#xd6;" horiz-adv-x="956" d="M100 84q0 51 27 111q2 6 9 21t15.5 32.5t15.5 32t9 20.5t10.5 20.5t16.5 30t16 28.5t12 19t14.5 22.5t23 35t23.5 34t15 21.5q2 6 13.5 20.5t23.5 31t23.5 31.5t17.5 21q0 2 8 11.5t18.5 20.5t20.5 23.5t17 18.5q2 2 7 9.5t7 9.5q6 6 16 15t20.5 19.5l17.5 17.5l9 9 q4 4 22.5 20.5t24.5 22.5q4 2 14.5 10t14.5 11q49 37 106.5 65.5t120.5 28.5q16 0 30.5 -4t25.5 -15q2 -4 9 -10t9 -10q2 -2 16.5 -18.5t16.5 -18.5q4 -6 15.5 -16.5t22.5 -22.5t22.5 -23.5l15.5 -15.5q10 -10 16 -21.5t14 -23.5q10 -23 12.5 -46.5t2.5 -45.5 q0 -117 -58.5 -210t-142.5 -171q-4 -4 -21.5 -18.5t-21.5 -18.5t-15.5 -13t-23.5 -18.5t-23.5 -18.5t-15.5 -11t-18.5 -11.5t-30.5 -20.5t-30.5 -20.5t-20.5 -13.5q-4 -2 -15.5 -8t-23.5 -13.5t-23.5 -13.5t-15.5 -8q-66 -37 -142.5 -63.5t-154.5 -26.5q-66 0 -113 26.5 t-47 98.5zM156 84q0 -35 22.5 -48t52.5 -18h33h31q2 0 7 1t7 1q20 4 41 7.5t43 11.5q59 16 109 41q106 49 199.5 116.5t170.5 151.5q2 4 9.5 12.5t11.5 10.5q18 25 35.5 47t32.5 51q18 35 31.5 75t13.5 81q0 53 -17.5 93t-62.5 68q-10 4 -36 21.5t-34 21.5q-10 6 -20 7 q-8 0 -15.5 -2.5t-15.5 -2.5q-14 0 -21.5 10.5t-21.5 10.5q-6 0 -23 -8q-4 0 -11 -4t-9 -6q-4 -2 -15.5 -9.5t-15.5 -7.5q-4 -2 -14 -8t-20.5 -14.5t-20.5 -15.5t-15 -9q-2 -2 -12 -8t-14 -10l-2 -2q-2 0 -2 -2q-2 -2 -6 -7.5t-7 -7.5q-6 -8 -13 -12t-13 -12 q-4 -2 -18.5 -17.5t-18.5 -19.5q-16 -16 -33.5 -32.5t-32.5 -35.5q-6 -6 -15 -16t-18.5 -20.5t-16.5 -19.5t-9 -11l-72 -101q-4 -6 -12 -20.5t-18.5 -30.5t-19.5 -31.5t-13 -21.5q-2 -4 -8 -16.5t-14.5 -26t-15.5 -25.5t-9 -18q-4 -4 -10.5 -23.5t-10.5 -27.5 q-2 -4 -7 -16.5t-7 -16.5q-4 -20 -9 -40t-5 -38zM649 1028q0 35 23 68q2 0 3 2t3 2l13 13t14 11q2 0 2 2l2 2h10q16 0 22 -2q27 -6 27 -30q0 -8 -2 -15l-4 -8q-2 -2 -2 -6v-2q-2 -2 -7 -16.5t-8 -18.5q-14 -41 -57 -41h-12q-4 0 -8 3t-6 3q-10 6 -11.5 14.5t-1.5 18.5z M956 999v27q2 0 2 2t3 4q8 14 14 25.5t16 21.5l29 15h2q2 0 2 1t2 1t6 2h10h5q2 0 6 -2t6 -2l4 -2h4l2 -2q8 -16 8 -27q0 -14 -5 -26.5t-13 -22.5q-4 -4 -14.5 -17.5t-14.5 -17.5q-8 -8 -16 -10h-10h-11h-6q-2 2 -8 4t-8 2q-8 6 -10 16q-2 0 -3 4q0 2 -2 4z" />
<glyph unicode="&#xd8;" horiz-adv-x="1064" d="M37 -204q0 1 4 5l147 183v18q-4 4 -13 13.5t-13 13.5q-2 2 -2 4t-1 2t-1 2q-10 12 -16.5 29.5t-6.5 33.5v27v27v12q0 4 2 17.5t4 17.5q18 70 43 135t54 129q2 6 7 17.5t11 24.5t11 25.5t9 16.5q2 4 9.5 16.5t14.5 25.5t14.5 25.5t11.5 18.5q2 2 8 12t13 22.5t14.5 22.5 t11.5 17q4 8 20.5 27.5t20.5 23.5q0 2 8 12t18.5 22.5t20.5 24.5t16 19q2 4 7 10t10 8l63 64q35 35 77 61.5t91 26.5q18 0 34.5 -3.5t33.5 -13.5q16 -10 29.5 -18t33.5 -8q14 0 21 4l9 9l9 9q33 51 67.5 99.5t81.5 89.5q8 10 19 10q23 0 29 -17q6 -10 6 -14q0 -29 -10.5 -46 t-30.5 -36q-8 -6 -17.5 -10t-17.5 -12q-2 0 -8 -7l-4 -4q-2 -2 -4 -7t-5 -7q0 -2 -2 -4t-2 -4q-4 -4 -18 -22.5t-18 -22.5t-9.5 -14.5t-5.5 -18.5v-2q16 -8 31.5 -17.5t30.5 -21.5q49 -41 71.5 -96t22.5 -117q0 -33 -6 -64.5t-17 -60.5q-35 -92 -93 -159.5t-130 -131.5 q-76 -66 -159 -119t-173 -94q-29 -12 -58.5 -24.5t-57.5 -20.5q-4 -2 -12.5 -4t-12.5 -2q-6 -2 -20.5 -5t-30 -6t-28.5 -6t-19 -5q-29 -6 -49.5 -31t-34.5 -47q0 -2 -5.5 -12.5t-11.5 -21.5t-11 -22.5t-5 -13.5q-23 -39 -53 -69q-2 -2 -4 -3q-2 0 -2 -1t-3 -1h-2l-16 -8 t-16 -4q-6 0 -13.5 2t-11.5 8q-2 0 -4 7.5t-4 11.5t-2 12v5zM188 127q2 -8 5.5 -14.5t5.5 -12.5v-6q0 -2 2 -6q0 -6 6 -13t10 -12q0 -2 4 -2q2 0 4 -2l6 7q2 4 13.5 16t25 26.5t24.5 29t17 22.5q8 8 23.5 27.5l31 39t28 36t14.5 22.5l307 456l4 4q0 2 2 3q2 0 4 2t6 4 q8 6 14.5 13t6.5 17q0 4 -4 13q-4 -4 -9.5 -7.5t-9.5 -3.5h-8l-8 5q-4 2 -8.5 2t-6.5 2q-4 0 -10 6q-29 12 -53.5 27.5t-50.5 27.5l-2 2q-6 0 -15.5 -5t-13.5 -9l-16.5 -16.5l-14.5 -14.5q-4 -4 -8 -11t-8 -9q-6 -10 -19.5 -26.5t-15.5 -16.5l-123 -183q-2 -4 -13 -23.5 t-16 -27.5q-2 -4 -8 -15.5t-12 -24.5t-11 -25.5t-7 -14.5q-14 -23 -28.5 -48.5t-25.5 -51.5q0 -6 -4 -17.5t-8 -24.5t-8 -24.5t-6 -15.5q0 -4 -1 -12.5t-3 -12.5q0 -4 -2 -10t-2 -8t-1.5 -11.5t-1.5 -11.5t-1 -12t-1 -12v-19v-18zM313 55q0 -4 2 -4h13l20 4t18.5 3t14.5 3 q4 2 16.5 4.5t16.5 4.5q31 8 62.5 17t62.5 24q94 47 176 108.5t159 132.5q72 66 127.5 152t55.5 188q0 137 -119 205q-2 2 -8 2q-14 0 -19 -2q-18 -16 -35.5 -35.5t-31.5 -42.5q-2 -4 -9.5 -16t-16.5 -24.5t-17 -24t-10 -15.5l-476 -678q-2 -2 -2 -6zM653 897q0 -6 3 -10 t8 -8q10 -10 20 -18.5t23 -16.5q16 -8 29.5 -15.5t29.5 -15.5l4 4q2 0 5 7t7 10q2 2 15.5 18t17.5 18q8 10 14.5 21.5t6.5 23.5v11q-4 2 -17 2h-41q-29 0 -61.5 -2t-57.5 -23q-2 -2 -4 -2t-2 -2v-2z" />
<glyph unicode="&#xd9;" horiz-adv-x="911" d="M143 2v18q0 63 17 130q4 8 8 25.5t6 19.5l297 817q6 16 14 30q14 29 21 48q2 2 4 6t6 4h27l4 -2h4q14 -8 14 -29v-4q0 -2 -2 -7t-4 -9l-67 -140l-95 -237q-2 -6 -8 -20.5t-12 -32t-11.5 -32t-7.5 -20.5q0 -4 -4 -17t-8 -18q-2 -4 -8 -18t-13.5 -30.5t-13.5 -32t-8 -19.5 q-4 -6 -11 -24.5t-9 -22.5l-60 -197q0 -2 -1 -9t-3 -11q-2 -6 -4 -16.5t-2 -14.5q0 -6 -1 -20.5t-3 -30.5t-3 -30.5t-3 -20.5v-2q0 -8 9 -11.5t13 -3.5q12 0 22.5 6.5t20.5 10.5q86 57 154 135q8 8 29.5 32.5t29.5 33.5q6 6 17.5 22t25 32.5t23.5 32t14 19.5q6 6 17.5 23.5 t24.5 36t24.5 35t15.5 24.5q4 6 12.5 21.5t17.5 31.5t17 31.5t12 21.5q2 6 8.5 18.5t14.5 28t14 27.5t11 18q16 37 30.5 75t28.5 79q2 8 9 32.5t14.5 51.5t13.5 50.5t8 33.5q2 6 7 24.5t7 24.5q8 18 19.5 36.5t34.5 18.5q29 0 28 -28q0 -53 -24.5 -98.5t-42.5 -92.5 q0 -8 -4 -20q0 -4 -3.5 -21.5t-5.5 -21.5t-2 -9.5t-4 -9.5l-6 -6q-2 -2 -4 -6q-4 -4 -8 -17.5t-6 -19.5q-2 -8 -10.5 -35.5t-10.5 -37.5q-2 -8 -7 -30t-11 -46.5t-11.5 -46t-7.5 -29.5t-7 -27.5t-11 -41t-11 -40t-8 -26.5q-4 -18 -7 -38t-7 -38q-2 -4 -6 -22.5t-4 -22.5 q-2 -2 -2 -6q-2 -2 -2 -6v-2q-2 -4 -2 -11v-14q0 -2 -4 -10t-4 -10q-4 -20 -7.5 -39t-3.5 -41q0 -23 5.5 -44.5t5.5 -43.5q0 -10 -2 -13q-18 -23 -46 -22q-23 0 -28.5 17.5t-5.5 37.5v12q0 2 1 8.5t1 10.5v10t2 12l4 17l84 364l-133 -192l-88 -115l-134 -145 q-10 -10 -20 -19.5t-23 -19.5q-49 -39 -108 -39q-23 0 -43.5 11t-24.5 40zM618 1384q0 4 5 9l12 12t12 8q10 10 21 10q10 0 14 -4q6 -4 18.5 -15t16.5 -15q2 0 6 -5.5t6 -5.5q4 -4 13.5 -13t19.5 -19.5t18 -18.5t11 -10q4 -4 18 -20.5t18 -20.5t15.5 -14.5t15.5 -14.5 q2 -2 13.5 -11t13.5 -11q20 -18 33 -49q6 -10 6 -21q0 -12 -11.5 -18.5t-21.5 -6.5q-20 0 -31 23l-151 145l-78 66q-12 12 -13 20z" />
<glyph unicode="&#xda;" horiz-adv-x="911" d="M143 39q0 33 5.5 66.5t13.5 68.5q2 6 5 20.5t5 18.5l305 831q4 4 11.5 22.5t11.5 29.5q2 2 5 8t5 8q2 8 18 8q37 0 37 -28q0 -16 -10 -31l-68 -137l-98 -252l-31 -86q-4 -6 -11 -23.5t-14 -36t-15.5 -36t-10.5 -25.5q-4 -8 -13 -30.5t-9 -26.5l-58 -191q-2 -2 -3 -8 t-1 -10q-2 -6 -5 -18.5t-3 -16.5q0 -10 -2 -26.5t-4 -32t-3 -27.5t-1 -15v-14l4 -2q2 -6 10 -6h6q20 0 37 10t31 21q4 4 13 10t13 8q6 6 22.5 20.5t18.5 18.5l13.5 13.5l19.5 19.5t19.5 18t13.5 10q2 6 12.5 17.5t21.5 24t21.5 23.5t14.5 15q4 6 15 21.5t23.5 33t23.5 33 t17 21.5q2 6 12.5 19.5t20.5 28.5t19.5 29.5t13.5 20.5t14.5 23.5t20.5 37t20.5 38t14.5 24.5q2 4 7 16.5t12 25.5t13.5 26.5t10.5 19.5q16 35 29.5 70t25.5 71q2 10 8 34t14.5 51.5t14.5 51t6 33.5q4 6 10 27t8 25q4 18 16.5 34.5t35.5 16.5q29 0 28 -29q0 -25 -6 -48.5 t-16 -45.5q-2 -4 -7.5 -15.5t-12.5 -25.5t-12 -26.5t-7 -14.5q-10 -23 -13.5 -44.5t-7.5 -43.5l-9 -9t-7 -12q-2 -4 -3 -9t-3 -9q-2 -6 -6 -10q0 -8 -7.5 -30.5t-9.5 -31.5q-4 -10 -10 -35.5t-12 -53t-12.5 -53.5l-8.5 -34t-6 -25.5t-10 -37t-11 -36.5t-8 -24q-2 -4 -3 -19 t-3 -20q0 -4 -3 -15t-3 -15q-2 0 -2 -2v-4q-4 -18 -8 -35t-6 -35l-2 -14q0 -2 -1 -4.5t-1 -4.5q-2 -4 -2 -6q-8 -25 -10.5 -46t-2.5 -46v-20q0 -4 4.5 -25.5t4.5 -26.5v-12v-12l-2 -4q-18 -20 -46 -21q-16 0 -23 10.5t-11 26.5v21v18q0 2 1 8t1 8q2 10 5 26.5t3 21.5l80 342 v6l-140 -203l-79 -102l-131 -142q-29 -35 -69 -59.5t-87 -24.5q-29 0 -47.5 17.5t-18.5 52.5zM643 1137v8q0 14 4 19t15 12q8 2 18 7t10 7q10 4 30.5 11t22.5 9l134 41q6 2 18 6.5t27.5 10.5t28 10t18.5 6q16 4 32.5 8t32.5 4q10 0 23.5 -2t17.5 -14v-12q0 -23 -9 -28 t-30 -9l-260 -86q-18 -6 -35 -15q-14 -6 -28.5 -12t-22.5 -10q-16 -8 -28 -8q-11 0 -13 4t-4 16.5t-2 16.5z" />
<glyph unicode="&#xdb;" horiz-adv-x="911" d="M143 18v25q0 27 3.5 50.5t7.5 49.5q4 10 8 30t6 24l305 843q2 4 10.5 20.5t12.5 26.5q2 4 7 13.5t7 13.5q4 6 18 6q35 0 35 -30q0 -8 -4 -21l-65 -131l-91 -223q-2 -6 -8 -24.5t-14 -39t-14.5 -39t-8.5 -24.5q-2 -4 -6 -16.5t-6 -16.5t-8 -19.5t-13.5 -32t-13.5 -31.5 t-8 -17q-4 -6 -11 -22.5t-9 -20.5l-58 -197q-2 -2 -3 -8t-1 -8q-8 -37 -11 -72t-7 -70v-4q0 -8 8 -10t14 -2q12 0 25.5 5t23.5 13q82 55 156 140q4 4 13.5 14t18.5 20.5t17 19.5t10 13q59 76 112.5 155t98.5 167q18 29 34 62.5t32 68.5q12 27 21.5 53.5t17.5 54.5q2 10 9 35 t15.5 51.5t14.5 51t8 34.5q4 4 9 23.5t7 28.5q6 16 17.5 33.5t34.5 17.5q10 0 17 -2t11 -13v-14q0 -29 -7 -52.5t-17 -47.5q-2 -4 -8.5 -15.5t-12.5 -24.5t-11 -24.5t-7 -17.5q-4 -10 -8 -31q0 -4 -3.5 -21.5t-5.5 -21.5q-2 -10 -8 -16t-10 -17q-2 -4 -5 -13t-3 -11 q-4 -6 -11.5 -30.5t-9.5 -33.5q-2 -10 -8 -34.5t-13 -53t-12.5 -53.5t-7.5 -35q-2 -6 -7 -22.5t-10 -36t-10 -36.5t-8 -22q-4 -23 -8 -41t-8 -40q0 -2 -2 -10.5t-3 -16.5t-3 -15.5t-2 -9.5q-4 -10 -3 -17t-1 -13q0 -4 -5 -14.5t-5 -14.5q-4 -18 -6.5 -37.5t-2.5 -38.5 q0 -25 4.5 -46t4.5 -46q0 -16 -16.5 -23.5t-29.5 -7.5q-27 0 -30.5 18.5t-3.5 39.5v14v20.5t4 18.5l26 127l60 252l-135 -199l-82 -104l-125 -136q-29 -37 -71 -65.5t-93 -28.5q-23 0 -42.5 12.5t-23.5 36.5zM594 1217q0 18 22 26q4 2 13.5 5t13.5 5q2 2 8 5.5t8 3.5 q6 2 22.5 12t35 21.5t36 21.5t23.5 14q2 2 11.5 7t20.5 11.5t21.5 10.5t14.5 6q16 8 28 8h11.5t11.5 -4q6 -4 9 -10t5 -12q4 -20 4 -42t9 -40l2 -2q2 -2 2 -3t2 -4q2 -4 4 -6q2 -4 11 -17t9 -17q12 -12 13 -25q0 -6 -6.5 -8t-10.5 -2h-9t-9 4q-18 16 -29.5 35.5t-19.5 44.5 q-2 2 -6.5 19.5t-6.5 21.5q0 2 -1 5t-1 5l-2 2q-63 -25 -119.5 -66t-119.5 -63h-9q-23 0 -22 27z" />
<glyph unicode="&#xdc;" horiz-adv-x="911" d="M143 -61q0 66 15 124q2 6 5 18.5t5 16.5l307 842q2 4 10.5 22.5t12.5 26.5q2 4 5 12.5t5 10.5q4 6 9 7t9 1q16 0 27.5 -8t11.5 -25q0 -14 -12 -31l-66 -135l-104 -260l-27 -80q-4 -8 -11 -25.5t-16.5 -38t-16.5 -38t-9 -23.5q-4 -10 -13 -33.5t-11 -27.5l-58 -189v-6 q-2 -8 -4 -18t-2 -12l-12 -115v-4q0 -8 8 -11t14 -3q20 0 35.5 11t32.5 21q61 47 119 111q4 2 14 12l20.5 20.5t18.5 20.5t10 14q6 6 15.5 18.5t20.5 27t19.5 26.5t12.5 17q4 6 16 22t24.5 35.5t25 37t16.5 23.5q2 2 10 15.5t17.5 29t18.5 29.5t13 23q2 4 12.5 23.5 t14.5 27.5q2 6 8 18t13 25.5t12.5 25t7.5 15.5q4 4 13 26.5t11 30.5q4 8 11.5 28.5t9.5 24.5l57 211q2 2 6 15.5t6 19.5q8 20 19.5 39.5t34.5 19.5t28 -16v-16q0 -35 -16 -74q-2 -6 -8 -20.5t-14.5 -31t-14.5 -30.5t-8 -20q-8 -16 -10.5 -33t-6.5 -37q-2 -4 -3 -10t-5 -11 q-2 -2 -5 -6t-3 -6l-2 -2q-27 -66 -40 -130t-30 -130q-2 -8 -8 -27.5t-12 -42t-12.5 -43t-8.5 -28.5q0 -10 -5 -35t-5 -33q-2 -4 -6 -22.5t-6 -22.5q-4 -12 -4 -27l-2 -14q0 -2 -4 -10q-2 -4 -2 -10q-4 -20 -8.5 -40t-4.5 -40q0 -23 5.5 -46.5t5.5 -45.5q0 -16 -15.5 -23.5 t-30.5 -7.5q-25 0 -30.5 17.5t-5.5 37.5v17q0 4 2 18t4 18l86 381l-140 -200q-2 -6 -13 -20.5t-25.5 -33t-27.5 -35t-20 -24.5q-6 -6 -21 -23.5t-32.5 -37t-34 -38t-22.5 -24.5q-35 -35 -76 -65.5t-94 -30.5q-23 0 -43.5 12t-22.5 37v23zM565 1120q0 29 15.5 53.5t35.5 43.5 q2 0 9 6h12q14 0 23.5 -3t19.5 -14q6 -6 6 -20v-10q-2 -4 -4 -7q-2 -2 -2 -4v-2q-2 -4 -9 -22.5t-9 -22.5q-16 -37 -56 -37q-41 0 -41 39zM872 1104q0 10 2 16q4 12 12.5 25.5t20.5 23.5l4 2q10 6 22.5 12.5t24.5 6.5q8 0 13.5 -2t15.5 -6q4 -8 5 -13.5t1 -15.5 q0 -23 -14 -42t-29 -36q-2 0 -6 -5t-6 -5q-4 -4 -8 -4h-8q-10 0 -16.5 1t-14.5 5q-10 4 -14.5 16.5t-4.5 20.5z" />
<glyph unicode="&#xdf;" horiz-adv-x="974" d="M150 74q0 37 6 78q2 6 5 22t7 34.5t7 35t5 22.5q0 6 5 23.5t9.5 37t9.5 36t5 22.5q4 12 12 35.5t16.5 47.5t15.5 42t9 22l74 170q0 2 4 12.5t10 23t12.5 24.5t10.5 20q14 27 28.5 50.5t30.5 46.5t33.5 40t36.5 35q72 68 172 68q53 0 114 -23q39 -16 72 -41.5t64 -54.5 q23 -23 37 -53.5t14 -63.5q0 -41 -26.5 -77.5t-57.5 -61.5q-4 -4 -14.5 -12t-12.5 -8l-184 -123q-2 -2 -10 -8.5t-19.5 -14.5t-20.5 -15t-16 -11q-4 -2 -26.5 -19.5t-32.5 -27.5q-4 -2 -9 -6.5t-5 -6.5q-4 -4 -10.5 -9t-8.5 -7q0 -2 -2 -6t-2 -6v-2v-5q4 -4 19.5 -21 t19.5 -24q51 -53 105.5 -99t113.5 -93q35 -31 47 -84q0 -4 2 -10t4 -13q2 -8 5 -14v-8q-14 -16 -27 -31q-10 -12 -21.5 -24.5t-19.5 -22.5q-29 -33 -61.5 -62.5t-71.5 -54.5q-2 -2 -9.5 -5t-11.5 -5q-14 -8 -24 -8q-16 0 -26.5 7.5t-10.5 23.5q0 33 22 45l2 2q2 0 2.5 1 t2.5 1q29 12 55.5 26.5t48.5 32.5q10 12 18 27q2 4 9.5 23.5t9.5 23.5q4 8 8 14t4 17q0 16 -14 34q-8 8 -21.5 23.5t-13.5 17.5l-258 246v4q0 4 2 8t4 9q6 16 19 28q4 8 25.5 27.5t27.5 28.5q4 4 21.5 19t23.5 22q6 4 16 11t21.5 15t20.5 15.5t11 9.5l236 151q2 0 5 4t5 9 q16 16 30.5 33.5t14.5 39.5q0 20 -6 40t-16 38q-8 16 -19.5 27.5t-21.5 23.5q-4 2 -6 4q-4 2 -9 7q-35 23 -76.5 37t-82.5 14q-16 0 -36 -2t-36 -11q-23 -10 -43 -26.5t-39 -32.5q-16 -16 -32.5 -34.5t-30.5 -41.5q-4 -6 -14.5 -20.5t-21.5 -30.5t-20.5 -30.5t-13.5 -20.5 q-2 -2 -2 -4q0 -4 1 -9.5t1 -11.5v-2l-27 -57l-63 -162q-4 -10 -6 -18t-4 -19q-27 -74 -51.5 -149.5t-24.5 -155.5q0 -16 2 -32.5t4 -30.5q0 -4 2 -10.5t2 -8.5t5 -15t5 -18q2 -6 2 -16q0 -16 -12 -27.5t-31 -11.5q-10 0 -13 5t-11 16l-4 4q-2 2 -2 4q-2 2 -2 6 q-2 18 -4 37.5t-2 38.5z" />
<glyph unicode="&#xe0;" horiz-adv-x="774" d="M68 -2v8q0 2 3 14.5t3 18.5q0 2 2 6t2 6v2q16 25 29.5 48.5t29.5 45.5q68 84 154 145.5t188 92.5q4 0 12.5 3t12.5 3q16 4 37.5 8t40.5 4q27 0 47 -13t39 -34l6 -6l2 -4q2 -4 11 -21.5t11 -21.5q0 -2 2 -4q0 -2 2 -4l3 -2h2q14 14 18 33q20 59 29 112q4 16 6 32.5t2 35.5 q0 27 -13.5 45t-34 28.5t-45 15.5t-46.5 5q-74 0 -150 -33q-47 -23 -89 -53.5t-83 -67.5q-2 -2 -12 -2q-23 0 -23 29q0 27 23.5 48.5t44.5 33.5q35 25 73.5 40t79.5 32q35 12 68 21t68 9q76 0 133 -41t57 -120q0 -49 -16 -99q-2 -10 -8.5 -34.5t-10.5 -30.5q-2 -6 -7 -19.5 t-11 -29t-11.5 -28.5t-7.5 -17q-4 -8 -12 -28t-19.5 -43.5t-20.5 -44t-13 -28.5t-16.5 -31.5t-24.5 -49t-24.5 -50t-16.5 -33.5q-4 -8 -5 -20t-4 -22.5t-9.5 -18.5t-20.5 -8q-39 0 -39 39q0 10 2 19t8 18q2 4 12.5 13t12.5 11q0 2 4 7t6 9q23 41 44.5 81t37.5 85 q20 41 21 78q0 29 -9 45q-8 31 -28.5 56.5t-55.5 25.5q-20 0 -41.5 -6t-42.5 -12q-84 -31 -155.5 -80t-132.5 -113q-2 -2 -9.5 -12t-11.5 -14q-12 -16 -22.5 -32t-18.5 -32q-4 -10 -6 -19.5t-2 -19.5v-10q0 -4 2 -7t4 -7q14 -16 34.5 -19.5t39.5 -3.5h20q2 0 19.5 2t25.5 4 q2 0 5.5 1t5.5 1q10 2 32.5 8.5t26.5 8.5q4 0 17.5 5t29 10t30.5 10t23 9q4 2 14.5 6.5t14.5 6.5q4 0 10 4l9 6q14 8 22 23.5t25 21.5h10h12q12 -2 20.5 -13.5t8.5 -25.5q0 -10 -6 -16t-15 -13q-6 -6 -14 -11t-16 -9q-37 -20 -75 -34.5t-79 -28.5q-6 -2 -37 -9.5t-45 -11.5 q-37 -12 -80 -12q-33 0 -63.5 7t-57.5 23q-14 10 -24 26.5t-10 37.5zM526 999v7q4 4 13.5 11t11.5 9q14 12 27 12q4 0 7 -2t7 -4q4 -4 17.5 -15t17.5 -13q29 -25 53.5 -52.5t52.5 -54.5q4 -6 17.5 -19.5l17.5 -17.5q4 -2 15.5 -11t13.5 -11q16 -16 28 -45q2 -4 4 -10.5 t2 -14.5v-6q-8 -6 -15 -11.5t-17 -5.5h-6t-7 5q-2 2 -5 6t-7 4q0 2 -6 8l-147 145l-7 7q-8 6 -17 13t-19.5 15t-16.5 15q-2 2 -13 10t-13 10q-8 6 -9 16z" />
<glyph unicode="&#xe1;" horiz-adv-x="774" d="M68 -2v8q0 2 2 14.5t4 18.5q0 2 1 6t1 6q63 121 168.5 208t234.5 126q4 0 12.5 3t10.5 3q18 4 38.5 8t39.5 4q27 0 48 -13t40 -34l6 -6l2 -4q2 -4 11 -21.5t11 -21.5q0 -8 4 -8l3 -2q2 0 4 4t4 6q12 23 19 47.5t13 50.5q2 6 6.5 31t6.5 35q0 4 1 14.5t1 14.5v8 q0 27 -13.5 46t-34 29.5t-45 15.5t-46.5 5q-66 0 -128.5 -25.5t-115.5 -64.5q-20 -14 -39 -30.5t-37 -33.5q-2 -2 -12 -2q-23 0 -23 29q0 25 21.5 46.5t40.5 33.5q37 23 77.5 40t81.5 34q35 12 67 21t67 9q76 0 134 -41t58 -120q0 -27 -5 -51.5t-11 -47.5 q-8 -31 -17.5 -60.5t-21.5 -57.5q-4 -10 -15.5 -36t-24.5 -55.5t-24.5 -55.5t-15.5 -34q-6 -10 -17.5 -33.5t-24.5 -50t-24.5 -51t-17.5 -33.5q-4 -8 -6 -20t-5 -22.5t-9.5 -18.5t-20.5 -8q-39 0 -39 41q0 27 15.5 40t29.5 35q25 41 45.5 82t38.5 84q8 18 14.5 38t6.5 40 q0 14 -2.5 24.5t-6.5 20.5q-10 31 -29.5 56.5t-54.5 25.5q-23 0 -44 -6t-40 -12q-59 -23 -115.5 -54.5t-105.5 -72.5q-18 -14 -34.5 -31.5t-32.5 -34.5q-4 -4 -11.5 -13t-11.5 -13q-2 -2 -9 -13.5t-11 -15.5t-4 -8q-10 -16 -16.5 -31.5t-6.5 -34.5v-10q0 -4 2 -7t4 -7 q14 -16 34.5 -19.5t39.5 -3.5q27 0 53.5 3t48.5 13q6 2 21.5 6.5t32 9.5t31 9t18.5 6q6 4 27.5 12.5t29.5 12.5q4 0 11 4t10 6q14 8 22 23.5t25 21.5h10h10q16 -2 22.5 -13.5t6.5 -25.5t-19 -29q-8 -6 -15 -11t-15 -9q-39 -20 -77 -34.5t-79 -28.5q-2 0 -12.5 -3.5 t-22.5 -6.5t-25.5 -6t-19.5 -5q-41 -12 -80 -12q-33 0 -64.5 7t-58.5 23q-14 10 -23 26.5t-9 37.5zM463 793q0 18 8 24q35 20 73 32.5t74 24.5q2 0 11.5 3.5t19.5 6.5t18.5 6t10.5 3q45 12 88 31.5t90 19.5h10q16 0 24.5 -4t8.5 -20q0 -23 -9 -29t-32 -10l-254 -88 q-4 0 -23.5 -7.5t-25.5 -9.5q-8 -4 -32.5 -13t-30.5 -13h-17q-6 0 -6 6q-2 10 -4 18.5t-2 18.5z" />
<glyph unicode="&#xe2;" horiz-adv-x="774" d="M68 39v10l6 31q0 12 10 29q59 104 152.5 185t209.5 122q25 6 51.5 12t53.5 10h6q2 0 4 2h17h14q10 0 18 -3t15 -7q16 -8 29.5 -19.5t21.5 -27.5q4 -6 12 -24.5t12 -22.5l2 -2q6 4 9.5 11t7.5 13q0 2 2 4.5t2 4.5q23 66 31 131q6 25 6 49q0 33 -22.5 54.5t-53.5 29.5 q-33 8 -68 8q-92 0 -171.5 -46t-147.5 -108q-2 0 -3 -1t-5 -1q-16 0 -25 19v12v10q0 4 3 9.5t7 9.5q6 12 15.5 20t19.5 19q45 27 97 51q4 2 14 6t12 6q6 2 16.5 6t21.5 9.5t20.5 8.5t13.5 5q29 10 58.5 17t58.5 7q74 0 131 -42t57 -119q0 -35 -7 -70t-18 -66 q-4 -14 -13 -42.5t-11 -32.5l-66 -150l-100 -203q-4 -8 -6 -20t-5 -23.5t-10.5 -19.5t-21.5 -8q-37 0 -37 37q0 10 2 21t10 22q2 2 11.5 10t11.5 12q4 4 4 6q23 39 44 78t38 80q6 16 11 28.5t9 28.5q6 20 7 35q0 29 -11.5 59.5t-34.5 51.5q-18 16 -49 16q-20 0 -41.5 -6 t-44.5 -14q-25 -10 -48 -20.5t-48 -22.5q-35 -18 -63.5 -39t-57.5 -43q-4 -2 -12 -9.5t-10 -11.5q-31 -29 -58.5 -60.5t-46.5 -72.5q-4 -8 -7 -18.5t-3 -20.5v-10v-2q0 -2 2 -4q10 -23 34.5 -26t47.5 -3q53 0 102 14l22.5 7.5t34 10.5t34 10t22.5 7q4 2 15.5 6t15.5 9l20 8 t17 8l6 4q0 4 9 14.5t11 14.5q6 8 12.5 9t14.5 1q39 0 39 -39q0 -14 -16.5 -26.5t-26.5 -18.5q-2 0 -11 -4q-4 -2 -6 -4q-53 -27 -106 -44.5t-111 -33.5q-2 -2 -18.5 -4t-24.5 -6q-12 -4 -24.5 -4h-22.5q-37 0 -75 9t-62 40q-14 20 -14 47zM446 797v10v4l3 2q10 10 19 12 t19 6q10 2 17.5 5.5t13.5 7.5l174 94q23 8 45.5 20.5t46.5 12.5h16.5t16.5 -6q8 -10 10 -20.5t4 -20.5q2 -20 3.5 -39t9.5 -39q8 -16 20.5 -29.5t22.5 -30.5q2 -4 5 -8t3 -10q0 -8 -7 -9t-16 -1h-10t-12 2q-23 14 -36 39.5t-21 48.5q-4 8 -9.5 30.5t-7.5 30.5h-2 q-23 -4 -45 -14t-41 -21q-6 -4 -23.5 -14t-37 -21.5t-37 -21.5t-23.5 -14q-6 -2 -21.5 -9.5t-19.5 -9.5t-20.5 -7t-20.5 -7l-4 -4q-2 -2 -4 -2h-2h-8q-16 0 -18.5 9t-2.5 24z" />
<glyph unicode="&#xe3;" horiz-adv-x="774" d="M68 37v12q0 4 3 18.5t5 18.5q2 2 5 10t5 13q61 106 154.5 186t208.5 121q20 4 42.5 9t45.5 9q4 2 14 4t12 2h15h14q23 -2 48.5 -18t35.5 -33l26 -53l3 -2q10 8 17 24.5t9 32.5q0 4 5 21.5t7 21.5t4.5 21.5t4.5 23.5q4 16 6 33.5t2 34.5q0 37 -24.5 57.5t-59.5 30.5 q-14 4 -27.5 4h-27.5q-59 0 -113.5 -21.5t-108.5 -50.5q0 -2 -9 -8t-13 -10t-16.5 -13.5t-16.5 -11.5q-4 -4 -18.5 -16t-16.5 -14q-4 -4 -8 -7.5t-10 -3.5q-20 0 -25 19v12v10q4 14 13 23q16 23 40.5 38t47.5 27q33 18 68.5 32.5t70.5 29.5q6 4 29.5 9t29.5 9q31 6 58 6 q74 0 132 -42t58 -119q0 -35 -8 -72t-21 -70q0 -4 -4 -15t-9 -23.5l-9 -22.5l-6 -15q-4 -10 -14.5 -35.5t-22.5 -53t-23.5 -53t-15.5 -34.5q-4 -10 -16.5 -34.5t-25.5 -51t-25.5 -51t-18.5 -33.5q-4 -6 -4 -18q-4 -18 -8 -35.5t-27 -17.5q-8 0 -14 1t-13 7q-12 8 -12 31 q0 10 4 20t8 21q2 2 12.5 10t10.5 12l6 6q47 80 88 174q6 16 12.5 37t6.5 39q0 27 -7 45q-8 23 -21 44.5t-38 31.5q-8 6 -31 6t-50.5 -7t-49.5 -18q-43 -16 -84 -39.5t-78 -52.5q-51 -33 -102 -92q-2 0 -5 -4t-8 -6q-2 -4 -9 -14.5t-11 -12.5q-10 -14 -17.5 -26.5 t-11.5 -26.5q-12 -16 -12 -39v-10v-2q0 -2 2 -4q10 -23 34.5 -26t47.5 -3q57 0 119 19q2 0 15 5t28.5 10t30 9t22.5 6q12 6 28.5 12.5t30.5 14.5q8 4 13 8q8 0 8 8q2 2 8 10.5t8 10.5q4 8 10.5 9t16.5 1q14 0 26.5 -10.5t12.5 -28.5q0 -14 -16.5 -25.5t-28.5 -19.5 q-66 -33 -127 -53q-4 -2 -18.5 -6t-31 -9.5t-33 -10.5t-24.5 -7q-45 -14 -88 -14q-37 0 -81 11t-64 48q-10 16 -10 35zM444 895q0 10 3.5 22.5t13.5 22.5q0 2 2 4l4 4q4 2 5 1t5 -1q14 0 16.5 -5t2.5 -15q0 -12 -2 -24.5t-2 -24.5q0 -10 1 -17.5t5 -15.5q4 -4 8 -4h2 q27 8 49 28l102 82q2 2 13.5 9.5t15.5 11.5q16 10 31.5 16t34.5 6q25 0 44 -13t29 -36q4 -4 12.5 -20.5t12.5 -20.5q6 -14 16 -22q8 -6 15.5 -12.5t7.5 -16.5t-7 -29.5t-20 -19.5q-8 0 -10 4t-6 8q-2 4 -7 15.5t-12.5 23.5t-13.5 23.5t-8 15.5q-2 0 -5 5t-5 9l-6 6 q-10 10 -19.5 18.5t-23.5 8.5q-12 0 -23.5 -5t-22.5 -11l-151 -121q-10 -8 -21.5 -10t-23.5 -2q-16 0 -30.5 9t-20.5 25v7q-4 16 -7.5 30.5t-3.5 30.5z" />
<glyph unicode="&#xe4;" horiz-adv-x="774" d="M68 39v10l6 31q0 12 10 29q59 104 152.5 185t209.5 122q23 4 43.5 9t42.5 9q6 2 16.5 4t12.5 2h17h14q18 -2 45 -18t35 -33l28 -53l2 -2q6 4 9.5 11t7.5 13q0 2 2 4.5t2 4.5q10 29 17.5 56.5t11.5 55.5q2 16 5 33.5t3 34.5q0 33 -22.5 54.5t-53.5 29.5q-33 8 -68 8 q-92 0 -171.5 -46t-147.5 -108q-2 0 -3 -1t-5 -1q-16 0 -25 19v12v10q4 14 12 23q16 23 41 38t48 27q35 18 68.5 32.5t70.5 29.5q29 10 58.5 17t58.5 7q76 0 132 -42t56 -121q0 -33 -7 -68t-18 -66q-4 -14 -13 -42.5t-11 -32.5l-66 -150l-100 -203q-4 -8 -6 -20t-5 -23.5 t-10.5 -19.5t-21.5 -8q-6 0 -12.5 1t-12.5 7q-12 9 -12 29q0 10 2 21t10 22q2 2 11.5 10t11.5 12q4 4 4 6q27 45 50.5 89t41.5 91q6 16 11.5 35t5.5 35q0 29 -11.5 59.5t-34.5 51.5q-18 16 -49 16q-20 0 -41.5 -6t-44.5 -14q-47 -16 -92 -41t-86 -56q-51 -33 -102 -92 q-2 0 -6.5 -4t-6.5 -6q-2 -4 -10 -14.5t-10 -12.5q-10 -14 -17.5 -26.5t-13.5 -26.5q-4 -8 -7 -18.5t-3 -20.5v-10v-2q0 -2 2 -4q10 -23 34.5 -26t47.5 -3q33 0 60.5 4t56.5 15q4 0 17 5t28.5 10t31 9t21.5 6q4 2 15.5 6t15.5 9l20 8t17 8l6 4q0 4 9 14.5t11 14.5 q6 8 12.5 9t14.5 1q39 0 39 -39q0 -14 -16.5 -26.5t-26.5 -18.5q-37 -20 -76 -34.5t-78 -26.5q-6 -2 -35.5 -11.5t-44.5 -13.5q-2 -2 -14 -4t-16 -2q-25 -8 -60 -8q-37 0 -75 9t-62 40q-14 20 -14 47zM485 782v4v17v14q0 14 10.5 31.5t20.5 28.5q2 4 14 16l13 12h35l4 -2 q23 -12 22 -35v-10l-8 -14q0 -4 -5 -18.5t-7 -18.5q-4 -12 -15.5 -26.5t-27.5 -16.5h-15q-14 0 -21 2t-18 14q-2 0 -2 2zM748 786v17q4 8 10 18t14 21l12 12q4 2 11 6q8 4 12 8l12 4t12 2h7l4 -4q2 -2 6 -2h4l6 -2q0 -2 2 -4q6 -6 4 -6q4 -8 4 -20q0 -16 -10 -32t-20 -30 q-10 -10 -19.5 -20.5t-25.5 -10.5q-4 0 -7.5 1t-9.5 4q-2 2 -7 2t-7 2q-10 6 -12 16t-2 18z" />
<glyph unicode="&#xe5;" horiz-adv-x="714" d="M63 72v2q2 10 4.5 20t6.5 21v8q10 20 22.5 40.5t22.5 41.5q66 86 156 153.5t196 98.5q4 2 20.5 5t22.5 5q12 4 28.5 7t32.5 3q29 0 50.5 -13t38.5 -34l4 -4q0 -2 2 -2l2 -2l28 -53q6 0 11.5 14t9.5 18q10 29 17 58.5t12 58.5q2 4 4 20.5t4 20.5v23q0 12 -6 28 q-16 39 -56.5 52.5t-79.5 13.5q-53 0 -107 -19.5t-99 -50.5q-4 -4 -21.5 -13t-23.5 -13q-2 -2 -13.5 -10.5t-15.5 -12.5q-2 -4 -17.5 -17.5t-19.5 -13.5q-6 -6 -14 -6q-23 0 -23 27q0 20 11.5 34.5t23.5 24.5q16 10 31.5 21.5t31.5 19.5q6 4 23.5 12.5t22.5 10.5 q31 14 60.5 25.5t61.5 23.5q2 0 20.5 4t26.5 6q10 4 21.5 4h21.5q47 0 96.5 -18.5t71.5 -63.5q12 -23 16.5 -40t4.5 -40v-24q-2 -4 -2 -6v-9q-4 -31 -11.5 -60.5t-17.5 -57.5q-2 -6 -7 -21.5t-11 -32t-12.5 -30t-8.5 -17.5q-2 -8 -10 -26.5t-18.5 -40t-19.5 -40t-11 -26.5 q-4 -10 -16.5 -34.5t-25.5 -51t-25.5 -50.5t-18.5 -32q-6 -12 -6 -20q-4 -16 -8.5 -37t-26.5 -21q-14 0 -25.5 8.5t-13.5 20.5v12q0 20 8 37q4 2 12.5 10.5l10.5 10.5q4 4 6 9t6 7q2 6 8 15.5t11.5 19.5t10.5 18.5t7 8.5q33 63 53 122q4 14 10.5 30t6.5 32t-7 35 q-8 33 -27.5 62.5t-58.5 29.5q-25 0 -51 -6t-49 -17q-35 -12 -67.5 -29.5t-67.5 -39.5q-57 -39 -111.5 -89.5t-87.5 -115.5q-4 -10 -8 -20.5t-4 -20.5q0 -31 29.5 -38t52.5 -7h18q2 0 19.5 2t25.5 2h6q2 0 5 2l6 2q6 0 18 4t24.5 7t21.5 7.5t11 4.5q4 0 36 10t48 16 q12 4 28.5 11.5t27.5 19.5l8 8q4 4 5 7t3 5l10 11l4 4q2 0 2 2h25l4 -2q23 -10 23 -37v-8q0 -6 -8.5 -14.5t-14.5 -12.5q-27 -16 -56.5 -29.5t-58.5 -23.5q-4 -2 -14 -5t-22.5 -7.5t-23.5 -7.5t-17 -5q-4 -4 -25.5 -10t-32.5 -10q-23 -4 -44 -9.5t-48 -5.5q-37 0 -78 10.5 t-63 45.5q-14 18 -15 39zM547 905q0 29 16.5 55.5t34.5 49.5l6 6t6 4q35 41 72 76q10 4 24.5 9t24.5 7q4 2 13.5 5t11.5 3q6 0 28.5 2t32.5 4h10q43 0 70 -28.5t27 -71.5q0 -35 -16.5 -66.5t-43.5 -54.5q-2 0 -8 -6q-39 -27 -76 -50.5t-80 -33.5q-2 -2 -10 -2h-8h-20h-21 q-16 0 -25 6q-27 10 -48 32.5t-21 53.5zM608 907q0 -10 2 -19t6 -14h9h8q4 0 17.5 2.5t17.5 2.5q35 6 71.5 18t65.5 31q2 0 6 3t6 5q23 20 36 41.5t13 52.5v6q0 8 -6 8q-14 25 -37 25q-16 0 -25.5 -14.5t-23.5 -14.5q-10 0 -15 5.5t-16 5.5q-4 0 -9 -3.5t-9 -7.5l-47 -43 q-4 -6 -10 -9t-13 -7q-18 -12 -32.5 -31.5t-14.5 -42.5z" />
<glyph unicode="&#xe6;" horiz-adv-x="1226" d="M39 -35q0 2 1 11.5t3 13.5q4 18 12 33.5t15 29.5q100 154 258 242q39 18 75.5 32.5t77.5 24.5q4 0 19.5 3t21.5 5q4 0 7 1t6 1h14h18q2 0 2 -1t2 -1q37 -12 68 -45q12 -12 19.5 -30.5t17.5 -30.5q6 4 10 11t8 16q10 35 19.5 68.5t13.5 68.5q4 10 4 22.5v22.5 q0 41 -24.5 63.5t-61.5 30.5q-12 2 -24.5 2h-26.5h-27h-12q-98 -18 -182 -74q-4 0 -12.5 -7t-12.5 -11t-17.5 -13.5t-17.5 -11.5q-2 -4 -17 -15t-17 -15q-2 0 -4.5 -3t-4.5 -3q-4 -2 -6 -1t-6 1q-12 0 -17 8t-5 16q0 23 15 41t32 29q35 25 71.5 43t75.5 35q6 2 30.5 10 t33.5 10q51 18 100 18q53 0 103.5 -22.5t72.5 -73.5q16 -41 12 -78l2 2q35 47 74 85t92 63q12 4 24.5 8t29.5 4h14q4 0 11 -3t11 -5q10 -6 25 -23q8 -10 13 -22t12 -25q10 -18 15 -37.5t9 -39.5l8 -36t6 -38q0 -4 2.5 -14.5t2.5 -12.5v-12v-12q-2 -12 -13 -15l-67 -14 q-2 0 -28 -7t-59.5 -17.5t-68.5 -20.5t-55 -17q-8 -4 -33 -11t-35 -11q-4 -2 -18.5 -7t-18.5 -9q-4 -2 -12 -5.5t-10 -11.5q-6 -31 -12.5 -60.5t-6.5 -58.5q0 -37 13.5 -74.5t50.5 -54.5q18 -8 37.5 -9t38.5 -1h30q2 0 7.5 2t9.5 4q2 0 13 5.5l15 7.5q2 2 13.5 5t15.5 3 q39 16 71.5 34.5t61.5 49.5q0 2 2 5t2 5l6 6t4 6q2 2 9.5 13.5t9.5 13.5q2 4 16 4h11h2q2 0 2 -1t2 -1q18 -14 18 -37q0 -14 -14 -29q-20 -18 -39 -35.5t-41 -33.5q-51 -35 -110.5 -54.5t-121.5 -19.5q-45 0 -80.5 11.5t-66.5 41.5q-14 16 -19.5 39t-9.5 39q-2 14 -3 29.5 t-1 29.5h-2l-84 -174q-4 -8 -6 -19t-5 -22.5t-9 -18.5t-21 -7q-39 0 -39 39q0 25 15 41q2 2 11 10t11 12q2 2 7.5 11.5t9.5 13.5q2 4 7 13t10 18.5t9 17.5t4 10q16 31 30.5 61.5t25.5 65.5q2 4 4 11.5t2 11.5v6q0 4 -2 7t-4 7q-10 12 -11 33v12q2 2 5.5 4t5.5 4v2 q0 4 -3.5 8.5t-5.5 8.5q-6 14 -14 23.5t-18 21.5q-16 10 -43 10q-16 0 -34 -3t-34 -7q-2 -4 -11 -6t-13 -4q-78 -29 -149 -75t-128 -112q0 -2 -9 -11l-13 -13q-27 -33 -44 -72q-2 -4 -5 -12t-3 -10v-11v-12q0 -4 3 -7t3 -5q14 -16 36 -19.5t42 -3.5q57 0 119 19q4 2 17.5 6 t28.5 9t29.5 10t22.5 7q2 2 13.5 6.5t17.5 6.5q10 4 19.5 9t17.5 9q10 10 18.5 24.5t22.5 20.5h12q25 0 39 -26v-13q0 -16 -16.5 -28.5t-28.5 -20.5q-35 -16 -70.5 -30.5t-72.5 -26.5q-4 0 -17.5 -4t-28 -8.5t-28.5 -8.5l-21 -6q-41 -14 -83 -14q-16 0 -37 3t-41.5 9 t-38 17.5t-25.5 27.5q-12 14 -12 35v10zM739 260q0 -2 7.5 -4t9.5 -2q10 0 18 5t17 9l30 13q4 2 19.5 5t19.5 5q12 4 26.5 9t24.5 9l131 45l31 13l2 2v14v12q0 45 -20 97q0 2 -1 4t-1 4q-8 16 -17.5 31.5t-29.5 15.5q-16 0 -37 -10q-43 -23 -76 -57t-68 -68q-2 -4 -6 -8.5 t-6 -6.5t-7 -6t-7 -6h-4q0 -2 -2 -5t-2 -5q0 -4 -5.5 -8.5t-5.5 -6.5q-12 -25 -22.5 -49t-18.5 -51z" />
<glyph unicode="&#xe7;" horiz-adv-x="849" d="M160 219v10v21v20v15q6 45 35 86q33 41 70.5 79.5t84.5 67.5q82 55 189 78q31 6 67 6q31 0 56.5 -9t44.5 -32q20 -20 20 -45v-10q0 -2 -4 -6q-2 -2 -2 -4q-4 -8 -11.5 -14.5t-15.5 -6.5h-8l-4 2q0 2 -3 9.5t-5 9.5q-8 20 -29 36l-9 4.5t-9 2.5t-14.5 2t-14.5 2h-20 q-88 0 -161 -42t-132 -104q-23 -23 -43 -53q-16 -23 -21.5 -49.5t-5.5 -48.5q0 -27 11.5 -46.5t29.5 -32.5t40.5 -23.5t43.5 -16.5q20 -4 40.5 -9t41.5 -7q8 -2 25.5 -3.5t21.5 -1.5h41h41q4 0 17.5 1.5t17.5 1.5q66 8 126 25.5t119 39.5h15q18 0 29.5 -7t11.5 -30t-23 -28 q-4 0 -18.5 -5.5t-16.5 -7.5q-8 -4 -15 -8t-15 -4h-13h-45q-10 0 -20 -2t-21 -6q-2 0 -5 -1t-5 -1t-19.5 -1t-19.5 -1q-8 -2 -14 -3t-14 -3q-4 0 -22.5 -1.5t-22.5 -1.5t-9.5 -2t-9.5 -2q-4 -2 -13 -6t-14 -6q-2 -2 -10 -5t-10 -5q-8 -4 -22.5 -15.5t-14.5 -19.5q0 -4 1 -8 t5 -6q31 0 60.5 -6.5t58.5 -24.5q41 -23 54.5 -60.5t13.5 -82.5q0 -96 -86 -160q-2 -4 -7 -6q-4 -4 -6 -5t-4 -3q-4 -4 -16 -9h-10q-20 0 -35 10.5t-15 30.5v11l3 2q8 10 18 15t22 9q4 2 9.5 2t9.5 4q29 16 44 45t15 62q0 35 -18 65q-16 23 -38 28t-44 5q-8 0 -32.5 1 t-31.5 1q-35 6 -49 37q-4 8 -4 25q0 10 1 15t5 15q0 2 2 5.5t5 7.5q2 4 5 8t3 8q0 6 -15 10q-2 0 -11 2t-13 2q-41 10 -80 26.5t-74 37.5q-23 14 -36 35.5t-21 48.5q-2 0 -2 8q0 4 -2 6z" />
<glyph unicode="&#xe8;" horiz-adv-x="634" d="M119 109v18q0 49 12 93t29 87v2l-2 2q-23 2 -28 11.5t-5 31.5v13q2 10 16 10q10 0 17.5 -1t17.5 -1q16 0 25 12q6 8 24.5 28.5t24.5 28.5q0 4 5 8.5t7 6.5q4 4 12.5 12t17.5 17.5t16 17.5t11 10q2 4 9.5 10t11.5 11q51 41 109.5 70.5t123.5 29.5q20 0 27 -4 q39 -12 54.5 -51t19.5 -74q2 -4 3 -14.5t1 -12.5v-32v-27q-4 -14 -6 -29q-2 -12 -4 -24.5t-2 -20.5q-2 -4 -2 -9t-2 -9h-19q-23 0 -40 1t-40 1h-35q-12 0 -45.5 -1t-72.5 -2t-73 -2t-46 -1q-4 0 -17.5 -3.5t-17.5 -3.5q-4 -2 -8 -2h-10q-2 0 -2 -1t-3 -1h-4q-6 0 -10 -4 q-2 -2 -3 -6t-3 -6q-18 -35 -31.5 -72t-13.5 -77q0 -49 25.5 -77t72.5 -40q4 -2 21 -6q8 -2 14 -4h10h15h8q2 0 6 2q16 2 31.5 2t34.5 4q31 8 61.5 17t58.5 24q76 27 131 82h7q14 0 19 -10.5t5 -24.5q0 -8 -2 -18.5t-14 -16.5q-6 -4 -33 -17.5l-35 -17.5q-6 -2 -33.5 -14 t-38.5 -17q-45 -20 -93 -31.5t-95 -11.5q-33 0 -68.5 5.5t-67.5 18.5t-55.5 36.5t-31.5 60.5q0 2 -1 6t-1 7zM264 377l4 -4q8 -6 25 -6h8q4 0 16.5 2t16.5 4q8 0 34.5 1t37.5 1q2 0 19 3t21 3q8 0 29 1t42.5 2t41 2t27.5 1l22 4q4 0 6 4q0 4 2 8.5t2 6.5t2.5 6t2.5 6t1 7 t1 7q0 4 1 10.5t1 8.5v14q0 12 -1 29.5t-5.5 36t-13.5 32t-23 17.5h-15q-31 0 -57.5 -10.5t-54.5 -24.5q0 -2 -5.5 -3t-5.5 -3q-4 -4 -15 -10.5t-23.5 -14.5t-22.5 -15t-14 -9q-6 -2 -13.5 -5.5t-11.5 -7.5q-16 -16 -28.5 -29.5t-26.5 -29.5q0 -4 -10.5 -18.5t-14.5 -20.5 l-2 -2v-4zM428 963q0 6 4 8q4 4 12.5 11t12.5 7q10 10 20 10h8h2q2 0 2 -1t3 -1q2 -4 9 -9t11 -9q8 -6 24.5 -20.5t18.5 -18.5l109 -113q0 -2 2 -4q4 -4 6 -4q2 -2 11 -8t9 -8q14 -12 23.5 -23.5t13.5 -27.5q0 -2 1 -3t1 -4q0 -2 2 -6v-6q0 -10 -10 -17t-21 -7q-10 0 -18 6 t-12 14l-142 139q-4 2 -15 12.5t-13 14.5q-6 6 -32 24.5t-32 24.5q-10 6 -10 19z" />
<glyph unicode="&#xe9;" horiz-adv-x="634" d="M119 125q0 49 13 95t30 89v2h-8q-2 0 -4 2q-16 2 -18.5 15.5t-2.5 23.5v15q0 6 6 8t10 2q8 0 16.5 -1t18.5 -1q14 0 23 10q6 8 23.5 27.5t21.5 27.5q29 35 65.5 70t79.5 63.5t89 46t93 17.5h17q8 0 15 -3t16 -7l4 -6q2 0 8 -7.5t8 -9.5q10 -14 19 -33q12 -29 15 -59.5 t3 -62.5q0 -25 -3 -48.5t-7 -48.5q-2 -6 -3 -12t-5 -10h-17q-18 0 -37.5 1t-42.5 1h-35q-12 0 -41.5 -1t-64.5 -2t-64.5 -2t-42.5 -1q-6 0 -27.5 -2t-29.5 -5h-8t-10 -2t-9.5 -2t-9.5 -2q-4 -6 -11 -22.5t-9 -20.5q-31 -55 -31 -120v-19q0 -6 2 -15.5t4 -15.5q14 -29 38 -43 t54 -24q4 -2 15.5 -4t13.5 -4l6 -2h12h11q4 0 9 1t7 1q16 2 27.5 2t27.5 2q49 10 92.5 27.5t90.5 37.5q14 10 28.5 18.5t26.5 18.5q0 2 5 6t7 6q8 0 8 9q4 2 9 2q16 0 20 -10.5t4 -22.5q0 -14 -2 -22.5t-14 -14.5q-35 -20 -73 -37.5t-77 -32.5q-88 -39 -176 -39 q-37 0 -78 6.5t-74.5 24t-55 46t-21.5 73.5zM266 377l2 -2q10 -8 27 -8h10q4 0 16.5 2t16.5 4q8 0 34.5 1t35.5 1q4 0 21 3t22 3q8 0 27.5 1t41 2t42 2t28.5 1l22 4q4 0 4 6q4 2 5.5 7.5t1.5 7.5l4 10q0 2 1 9t1 9v31v31q0 2 -1 6t-1 8q-2 18 -10.5 41t-30.5 27h-13 q-33 0 -60.5 -10.5t-53.5 -26.5q-4 0 -13.5 -6t-13.5 -9q-8 -4 -29.5 -19t-27.5 -19l-13.5 -4.5t-13.5 -8.5q-10 -8 -19.5 -19t-19.5 -24q-2 -4 -8 -10t-6 -8q-4 -4 -13.5 -18.5t-13.5 -20.5zM395 770v10q0 4 1 11.5t10 11.5q0 2 10 6t14 4q6 4 28.5 13.5t26.5 11.5 q2 2 11.5 5t19.5 6t20.5 6t14.5 5q2 0 11 3t19.5 6t19.5 6.5t11 3.5q43 12 86 31.5t90 19.5h13q16 -2 22 -5t6 -20q0 -23 -8 -29t-30 -10l-259 -86q-2 -2 -27.5 -12t-39.5 -14q-4 -4 -20.5 -10.5t-20.5 -10.5h-16l-5 8q0 4 -2 9q-4 8 -4 12z" />
<glyph unicode="&#xea;" horiz-adv-x="634" d="M119 105.5v21.5q0 39 9 74t22 69q0 4 4 17.5t6 15.5t2 6v2h-8q-2 0 -4 2q-16 2 -18.5 16.5t-2.5 24.5t2 16.5t14 6.5q8 0 16.5 -1t18.5 -1h6t9 2q2 4 5 7l5 5q6 8 24.5 29.5t24.5 30.5q2 2 8 7t6 7q8 10 25.5 27.5l21.5 21.5q16 16 36 30.5t36 24.5q41 29 88 49.5 t100 20.5q14 0 23 -2q27 -6 42 -28.5t24.5 -51.5t12.5 -58.5t3 -52.5v-10q0 -4 -1 -14t-1 -14q-2 -4 -5 -28t-5 -34q-2 -4 -2 -7t-4 -7h-17q-23 0 -40 1t-40 1h-35q-12 0 -45.5 -1t-71.5 -2t-72 -2t-46 -1q-6 0 -24.5 -3.5t-22.5 -3.5t-17 -4q-8 0 -8 -4 q-20 -37 -36.5 -76.5t-16.5 -84.5q0 -16 4 -37t16 -33q31 -33 74 -47q4 0 20.5 -4t20.5 -6h12h11q4 0 9 1t7 1q4 0 14.5 1t14.5 1q29 2 58.5 9t57.5 17q45 18 89.5 41t78.5 58q2 2 9 2q20 0 24 -23v-12q0 -12 -1 -18.5t-11 -14.5l-29 -14q-72 -37 -146.5 -67t-156.5 -30 q-31 0 -64.5 4.5t-65.5 15.5t-57.5 32.5t-35.5 56.5q-4 10 -4 21.5zM266 377l4 -4q8 -6 25 -6h10q4 0 15.5 2t15.5 4q8 0 35.5 1t36.5 1q4 0 20 1t21 5l122 4l41 6h2q0 4 1 5t1 3q8 16 10.5 34t2.5 38v23q0 23 -7.5 51t-29.5 37q-4 4 -9 3t-12 -1q-39 0 -74.5 -16.5 t-66.5 -37.5q-8 -4 -30.5 -18t-28.5 -18q-12 -4 -25 -13q-8 -10 -16 -18t-17 -19q-4 -6 -14 -17t-12 -15t-10.5 -15.5t-10.5 -15.5v-4zM391 768v10q2 4 7 8.5t10 6.5q10 4 21 6t22 8q4 2 15 7t15 7t19.5 11.5t33 19.5t33 18.5t19.5 10.5q8 6 35.5 18t35.5 16q12 6 29 7h13.5 t13.5 -7q14 -25 14 -50t10 -48q2 -4 4 -9t7 -11q4 -2 13 -15.5t11 -15.5q10 -10 10 -18q0 -6 -2 -9q-2 0 -3 -1t-3 -1h-12h-10q-4 0 -7.5 2t-7.5 4q-37 35 -49 91q-2 2 -5 11t-3 13q0 8 -4 8q-41 -14 -70 -30q-8 -4 -25.5 -13.5t-36 -19.5t-34.5 -20.5t-23 -14.5 q-4 -2 -17 -7t-17 -7q-6 -2 -18.5 -6.5t-14.5 -4.5h-14h-5q-8 4 -9 11.5t-1 13.5z" />
<glyph unicode="&#xeb;" horiz-adv-x="634" d="M119 127q0 53 18 109q2 4 6 17t4 17q0 2 5.5 15.5t7.5 17.5q2 2 2 6v2h-8q-4 0 -7 2q-14 2 -16 15.5t-2 23.5v15q0 10 14 10q10 0 18.5 -1t16.5 -1q16 0 25 10q4 4 19.5 22.5t17.5 22.5q29 35 66.5 72t80.5 66.5t91 49t97 19.5q14 0 23 -2q14 -4 23.5 -11.5t19.5 -17.5 q0 -2 2 -4t4 -2q4 -6 6 -13t6 -16q4 -4 5 -12q10 -27 13 -54.5t3 -53.5v-25q0 -8 -5 -37t-5 -37q-4 -16 -11 -22h-14q-18 0 -38.5 1t-41.5 1h-37q-12 0 -41.5 -1t-63.5 -2t-63.5 -2t-42.5 -1q-6 0 -27.5 -2t-29.5 -5q-2 0 -10 -1t-10 -1t-3 -1t-4 -1h-6l-4 -2 q-20 -41 -35.5 -78.5t-15.5 -84.5q0 -88 86 -115q6 -2 23.5 -6t21.5 -6h14h11q4 0 9 1t7 1q14 2 26.5 2t28.5 2q96 23 181 65q16 10 30.5 18.5t24.5 18.5q2 2 7 6t9 6l4 9q4 2 11 2q14 0 19 -10.5t5 -24.5q0 -8 -2 -18.5t-10 -14.5q-4 -2 -13.5 -5t-9.5 -5 q-53 -29 -109.5 -53.5t-115.5 -38.5q-39 -8 -86 -9q-37 0 -77 7.5t-72.5 24t-54 46t-21.5 74.5zM266 377l2 -2q8 -8 27 -8h8q4 0 16.5 2t16.5 4q10 0 36.5 1t35.5 1q4 0 20 3t21 3q8 0 28.5 1t42 2t42 2t28.5 1l22 4q4 0 7.5 10.5t3.5 14.5v8q0 2 2 6q0 4 1 7t1 5v33v25 q0 4 -1 13t-1 13q-4 16 -12.5 35t-26.5 23h-13q-41 0 -75.5 -15.5t-67.5 -36.5q-6 -4 -27.5 -19t-29.5 -19q-4 -2 -8.5 -3.5t-8.5 -5.5q-12 -6 -28 -24t-31.5 -38t-28.5 -42zM389 775v11q0 43 31 74q4 4 13 12.5t11 12.5l5 4h14q14 0 22 -2q23 -14 23 -35q0 -6 -2 -12l-4 -9 l-4 -8q0 -4 -5.5 -17t-5.5 -18q-10 -23 -21 -30.5t-36 -7.5h-14t-13 4q-2 2 -6 5t-4 5q-4 4 -4 11zM696 772v10l2 4q8 16 15.5 28.5t19.5 23.5q4 0 14.5 5t14.5 7q2 2 7 3t7 1h6h6q4 0 11.5 -3t9.5 -3l4 -2q4 -16 4 -27q0 -12 -3 -24.5t-13 -22.5q-4 -4 -14.5 -16.5 t-14.5 -16.5q-10 -10 -16 -12h-11q-16 0 -30 6q-10 4 -14.5 16.5t-4.5 22.5z" />
<glyph unicode="&#xec;" horiz-adv-x="1845" d="M70 -18q0 6 3 17t7 17l184 476l5 16t12.5 38.5t15.5 45t12 35.5q0 2 3 12t3 12v2q0 2 1 2t1 2q2 2 6.5 11.5t6.5 11.5q2 4 7 11t13 7q16 -6 24.5 -10t8.5 -24q0 -16 -6 -29.5t-12 -28.5q0 -2 -4.5 -7t-4.5 -7q2 0 -4 -6q-2 -2 -2 -4l-168 -449q-4 -8 -4 -14t-2 -13 q-2 -12 -7 -22t-7 -23q0 -2 -2 -10t-4 -17t-4 -16.5t-2 -9.5q0 -4 -1.5 -5t-1.5 -3q-4 -18 -13 -37.5t-34 -19.5q-14 0 -22 11.5t-8 27.5zM330 950q0 4 4 6q8 6 16 14.5t21 8.5h4q0 -2 2 -2t4 -2q4 -2 12 -9.5t10 -9.5q4 -2 8.5 -6t4.5 -6l100 -98q23 -16 43 -41q0 -2 2 -2 h6q12 4 20.5 10t18.5 14q6 6 19.5 17.5t29 24t28.5 22.5t19 14l3 2q2 0 4 2l8 6q2 0 14 8.5t14 10.5q12 8 23 8q2 0 4 -1t4 -1h4q10 -2 13.5 -16.5t3.5 -24.5l2 -20q0 -2 2 -4.5t2 -4.5q14 25 33 41l6 7q2 2 4 2h33h6q25 -10 24 -35q0 -10 -5 -18.5t-9 -18.5 q-6 -18 -10 -31.5t-21 -28.5q-8 -6 -17 -7t-18 -3q4 -8 7.5 -14t3.5 -16q0 -14 -15 -15q-8 0 -12 4q-12 10 -20.5 28.5t-12.5 35.5q-6 20 -10 37.5t-8 40.5l-2 6q-16 -8 -31.5 -20.5t-30.5 -22.5q-4 -4 -15 -13.5t-23.5 -20.5t-23.5 -20.5t-15 -11.5q-20 -18 -54 -33h-6 q-6 0 -12 2l-12 5l-123 124q-2 2 -16.5 14.5t-18.5 16.5q-4 2 -19.5 12.5t-17.5 12.5l-8 8t-4 12zM373 -18q0 10 3 18t7 18l195 504l40 131q4 10 11.5 22.5t17.5 20.5l4 2h2l4 -2q10 -4 17.5 -6t11.5 -16v-10q0 -29 -13.5 -44.5t-19.5 -37.5l-168 -449q-4 -8 -4 -15t-2 -14 q-4 -10 -8 -19t-6 -19q-2 -4 -6 -27t-4 -27q-6 -33 -21 -55l-4 -4q-2 -2 -4 -2t-2 -2q-4 -6 -18 -6q-10 0 -15 4q-4 0 -7 4t-3 6q-8 9 -8 25zM676 -18q0 8 3 18t7 16l186 478l50 157q4 8 13 27.5t19 19.5h2q10 -4 18.5 -7t12.5 -13v-14v-15q-2 -2 -2 -4v-4q-4 -18 -14 -33.5 t-17 -32.5l-166 -440q-4 -8 -4 -14t-2 -12q-2 0 -2 -3v-4q-4 -10 -8 -21t-6 -26q-2 -4 -4 -19.5t-2 -19.5q-6 -29 -19 -55q-14 -18 -32 -18q-16 0 -24.5 11.5t-8.5 27.5zM969 -20q0 6 4 10q2 6 5 19.5t5 13.5l180 434q2 4 13.5 33.5t15.5 46.5q4 12 7 25t5 26q2 10 2 20 t11 17q6 6 24 6q16 0 20.5 -8.5t4.5 -22.5q0 -8 -2 -12l-97 -238q-2 -4 -9 -25.5t-9 -29.5q-2 -4 -4 -13.5t-2 -11.5l2 2l117 152q2 2 9 11t17 20.5t19.5 22.5t13.5 16l65 65q2 2 18.5 15.5t20.5 17.5q37 27 80 49q31 14 70 14q20 0 31.5 -6t27.5 -22q0 -2 2 -2l2 -2 q4 -10 8.5 -20.5t4.5 -20.5v-25q0 -39 -6.5 -73.5t-16.5 -69.5q-2 -6 -8 -25.5t-6 -23.5q-4 -16 -16.5 -49t-16.5 -42l-88 -194q-6 -12 -8 -23.5t-4 -27.5q-2 -2 -2 -4q-2 -2 -2 -9q-2 -6 -11.5 -12t-17.5 -6q-14 0 -26.5 9t-12.5 26q0 16 7 26.5t18 20.5l84 182q2 2 7 13.5 t11 25.5t11 27.5t7 21.5q4 6 12.5 31t10.5 31q10 35 17.5 68.5t7.5 70.5q0 20 -6.5 34.5t-30.5 14.5q-31 0 -63 -15.5t-54 -31.5q-20 -16 -38.5 -32.5t-37.5 -35.5q-2 -4 -7 -9t-7 -5l-105 -135q-4 -4 -15 -20.5t-25.5 -36t-28 -39t-19.5 -29.5q-4 -6 -13 -21.5t-19.5 -32 t-18.5 -29.5t-10 -17l-74 -146q-10 -23 -35 -22q-8 0 -12 4q-2 0 -6 4t-4 6q-4 4 -4 14v9zM1098 805v12q0 2 2 8t4 9q4 10 11 21t18 17q2 2 10 5.5t12 5.5q6 2 13.5 4t13.5 2t14 -4h6l4 -2q6 -4 8.5 -14.5t2.5 -14.5q0 -20 -9.5 -35.5t-21.5 -30.5q0 -2 -8.5 -9t-12.5 -11 q-4 -8 -20 -8q-17 0 -35 6q-10 8 -11 18.5t-1 20.5zM1311 838v16v20q0 8 3 16.5t7 14.5q6 10 18 10q6 0 12.5 -2t8.5 -8v-16q0 -12 -1 -25.5t-1 -25.5t2 -21.5t12 -17.5l6 2q33 12 58 35q4 4 17 15t28.5 24.5t29 24.5t19.5 15q20 16 47 33t53 17q27 0 48.5 -16.5t33.5 -39.5 q8 -14 16.5 -29.5t16.5 -29.5q8 -10 19.5 -15.5t11.5 -21.5q0 -31 -21 -51h-8q-4 0 -6 3t-6 7q-2 2 -8.5 14.5t-14.5 25.5t-14 24.5t-8 13.5q-4 8 -11 14q0 4 -4 9.5t-6 5.5q-8 8 -19.5 19t-25.5 11t-26.5 -7t-22.5 -17q-8 -6 -26.5 -19.5t-38 -30t-37 -30.5t-23.5 -21 q-4 -4 -15.5 -12t-15.5 -10q-18 -12 -47 -12q-18 0 -34.5 10t-20.5 33q0 6 -4 26q-2 8 -2 19z" />
<glyph unicode="&#xed;" horiz-adv-x="303" d="M76 -18q0 18 8 34l197 504l38 131q4 6 14.5 26.5t20.5 20.5h2q8 -4 17.5 -7t13.5 -13v-14v-15q-2 -14 -9 -26.5t-13 -24.5q-2 -4 -6.5 -10t-4.5 -10l-166 -443q-4 -8 -4 -14t-2 -12q-2 0 -2 -3v-4q-4 -10 -8 -21t-6 -26q-2 -4 -5 -19.5t-3 -19.5q-6 -29 -19 -55 q-14 -18 -30 -18t-24.5 11.5t-8.5 27.5zM274 793v10q0 6 1 11t6 13l2 2q0 2 1 2t1 3q41 35 86 55q2 0 11 5t20.5 10t20.5 10.5t11 5.5q27 14 52.5 36.5t60.5 22.5q23 0 28 -21v-14q0 -12 -1 -19t-13 -16q-4 -4 -10 -5t-10 -5q-12 -6 -33 -17.5t-42.5 -23.5t-37.5 -22.5 t-20 -12.5q-2 0 -16.5 -8t-18.5 -12q-4 -2 -14.5 -9.5t-14.5 -9.5q-4 -4 -22.5 -17t-22.5 -17q-4 0 -5 -1t-5 -1q-8 0 -8 6q-2 4 -4.5 19t-2.5 20z" />
<glyph unicode="&#xf2;" horiz-adv-x="579" d="M39 39v22v5q0 2 1 3t1 3q6 35 19.5 68.5t29.5 64.5q57 102 137 201q4 2 19.5 21t23.5 30q2 4 8.5 9t8.5 9q6 6 15 15.5t19.5 19.5t18.5 17.5t10 9.5q2 4 15.5 14t17.5 16q4 2 13.5 9.5t13.5 11.5q8 4 19 11t22 11q8 0 12 2l8 4h61q2 0 9.5 2.5t11.5 2.5h2q2 0 6 -5 q12 -6 24.5 -14t22.5 -14q4 -2 11.5 -12.5t11.5 -14.5q16 -16 21 -45t5 -51q0 -61 -23.5 -118.5t-58.5 -106.5q-29 -39 -63.5 -73t-71.5 -63q-53 -41 -114.5 -74.5t-122.5 -56.5q-2 -2 -18.5 -5t-22.5 -7q-14 -4 -23.5 -5t-23.5 -1h-19q-14 0 -22 8q-23 14 -29 33.5t-6 42.5 zM84 39q0 -18 12.5 -23.5t26.5 -5.5q55 0 108 27q18 10 39 20.5t37 22.5q8 4 30.5 17.5t29.5 17.5q4 2 13 10t20.5 15t19.5 14.5t12 11.5q70 55 124 128t54 167q0 35 -14 70.5t-57 35.5h-11q-8 0 -26.5 -10t-22.5 -18q-4 -12 -10 -35t-23 -23h-2q-2 0 -5 2t-5 2 q-10 6 -9 18.5t-3 22.5h-2q-8 0 -12 -8q-4 -4 -15.5 -12t-13.5 -12q-2 -2 -9.5 -7.5t-9.5 -9.5l-14 -14t-14 -12q-4 -8 -21.5 -25.5t-21.5 -22.5q-41 -51 -80 -103t-70 -112q0 -8 -6 -14q0 -2 -5 -14.5t-5 -14.5q-4 -4 -12.5 -28.5t-12.5 -28.5q-4 -10 -9 -23.5t-5 -25.5z M412 846v2l2 6q10 6 23.5 13t27.5 7h6q2 0 8 -3t8 -3q16 -10 33 -21t31 -22q4 -4 16.5 -14t26.5 -21.5t26.5 -20.5t18.5 -11q18 -14 36.5 -23.5t33.5 -25.5q2 0 4 -4.5t2 -6.5q2 -2 5 -8t5 -8v-2q0 -10 -13.5 -16.5t-21.5 -6.5q-10 0 -18 6.5t-19 14.5l-137 100 q-4 2 -21.5 13.5t-27.5 15.5q-4 4 -23.5 15.5t-25.5 15.5q0 2 -3 4t-3 4z" />
<glyph unicode="&#xf3;" horiz-adv-x="579" d="M39 41q0 39 14.5 79t30.5 75q4 4 12 21t13 24q4 4 12 17t10 15q78 117 176 222q23 27 49.5 49t55.5 45q10 6 19 11t20 11h4q2 0 10 4q4 2 6 2h61q6 0 11.5 2.5t11.5 2.5q45 -23 69.5 -49.5t30.5 -77.5v-29v-29v-12q-12 -86 -57 -153.5t-109 -125.5q-63 -59 -147 -106 q-4 -2 -16.5 -9t-16.5 -10q-27 -10 -48 -20t-46 -20q-4 -2 -20.5 -7.5l-22.5 -7.5q-27 -10 -55 -10h-21q-10 0 -18 4q-23 12 -31 34.5t-8 47.5zM84 39q0 -20 12.5 -24.5t28.5 -4.5q51 0 98 22.5t90 47.5q4 4 22.5 14t22.5 15q43 31 88.5 67.5t82 79.5t59 94t22.5 111 q0 35 -14 70.5t-55 35.5q-16 0 -27.5 -5t-24.5 -13q-6 -6 -8 -6q-8 -12 -10 -37t-22 -25q-25 0 -25 21v20l-2 4q-6 0 -12 -6q-29 -23 -53.5 -45t-47.5 -51q-70 -76 -125 -162q-12 -16 -25.5 -39.5t-23.5 -46.5q0 -2 -5 -13t-11 -25.5t-13.5 -30t-9.5 -23.5q-4 -10 -8 -22.5 t-4 -22.5zM363.5 772q-1.5 6 3.5 8l6 6q2 2 9 5.5l11 5.5q47 23 113 45q4 0 15 3t24.5 7t24 7t14.5 3q43 12 84 32.5t88 20.5q16 0 29.5 -3t13.5 -23q0 -23 -9.5 -29t-27.5 -10l-262 -88q-4 0 -30 -10.5t-40 -14.5q-4 -4 -19.5 -10t-19.5 -8h-6q-8 0 -12 1t-4 11q-2 2 -2 6 v8t-2 9v8q0 4 -1.5 10z" />
<glyph unicode="&#xf4;" horiz-adv-x="579" d="M39 43q0 59 33 121q23 47 48 90t56 86q2 4 10.5 14.5t16.5 20.5t15 19t11 14q2 4 11.5 15t19.5 22.5t19.5 21.5t13.5 14q29 31 60.5 58.5t66.5 52.5q16 12 37 18l8 4q4 2 6 2h59q4 0 11.5 2.5t11.5 2.5h2q23 -6 37 -25q41 -29 52 -55.5t11 -75.5q0 -80 -35.5 -150.5 t-91 -130t-124 -105.5t-136.5 -77q-23 -12 -48 -22.5t-54 -16.5q-4 -2 -12.5 -4t-12.5 -2q-2 -2 -4 -2h-4h-18q-6 0 -13.5 -1t-13.5 3q-31 8 -40 31.5t-9 54.5zM84 29q4 -12 16.5 -15.5t22.5 -3.5q41 0 78 14.5t71 32.5q41 23 78 47.5t72 53.5q8 4 25.5 20.5t23.5 20.5 q57 53 97 116.5t40 143.5v24.5t-4 22.5q-8 29 -22.5 45t-42.5 16q-14 0 -27.5 -6t-24.5 -14q-2 -2 -4 -2t-2 -2q-8 -12 -11 -37t-24 -25h-4q-2 0 -4 2h-4q-2 0 -2 2q-10 6 -8 18.5t-2 22.5h-2q-4 0 -8 -4t-9 -6q-53 -45 -99 -97t-87 -110q-23 -31 -44 -62.5t-38 -68.5 q-4 -4 -6 -12t-6 -19q0 -2 -4 -11t-9.5 -19.5t-9.5 -20.5t-4 -12q-4 -10 -8 -21.5t-4 -23.5v-10zM365 743v15q0 6 12 14q6 6 14 8t17 6q2 0 4 2.5t4 2.5q4 4 17 13t16 9q4 2 18 13.5t29.5 24.5t30 23.5t18.5 14.5l4 4q6 6 6 4l8 4q4 2 6 4q14 8 27.5 18.5t30.5 10.5 q16 0 22 -6q-2 0 4 -10q10 -25 9.5 -50.5t5.5 -50.5q4 -12 9 -24.5t11 -24.5t14.5 -24.5t8.5 -24.5q0 -18 -15 -19q-10 0 -18 9q-2 0 -4 2q-4 4 -4 8q-16 18 -24.5 41.5t-16.5 46.5q0 8 -5.5 30.5t-5.5 30.5h-2q-4 -4 -10 -6q-4 -4 -8 -5t-6 -3q-2 0 -6 -4t-8 -4 q-2 -2 -7.5 -6t-7.5 -4l-112 -86q-14 -12 -28.5 -20.5t-31.5 -16.5h-8q-14 0 -16 9t-2 21z" />
<glyph unicode="&#xf5;" horiz-adv-x="579" d="M39 43v20l2 17q12 47 33.5 92t46.5 86q31 51 65.5 96t69.5 88l15.5 15.5t13.5 15.5q35 35 67.5 65.5t73.5 57.5q14 12 27 14l18 6h61q2 0 9.5 2.5t11.5 2.5h2h4q18 -16 36.5 -27.5t35.5 -32.5q18 -18 22 -43.5t4 -52.5q0 -76 -33.5 -144.5t-82.5 -121.5q-16 -20 -37 -40 t-41 -36q-4 -4 -17.5 -14.5t-17.5 -14.5q-98 -70 -211 -112q-14 -8 -26.5 -12.5t-28.5 -8.5q-25 -6 -47 -6h-21q-14 0 -24 8q-23 14 -27 34.5t-4 45.5zM84 39q0 -18 11 -23.5t28 -5.5q41 0 75.5 12.5t67.5 30.5q8 4 28.5 15.5t24.5 15.5q4 2 14.5 8t21 14.5t20.5 14.5t14 10 q39 29 78 63.5t70.5 75.5t51 88.5t19.5 102.5q0 35 -13 70.5t-56 35.5q-8 0 -29 -8q-14 -2 -31 -16q-6 -12 -9 -37t-24 -25q-4 0 -12 4q-10 8 -9 16.5t-3 20.5q0 2 -2 4h-4q-8 -4 -13.5 -10t-13.5 -12q-4 -4 -14 -12.5t-13 -12.5q-6 -4 -17 -16t-15 -14q-4 -6 -12.5 -15.5 t-17.5 -20t-17.5 -19.5t-10.5 -11q-4 -4 -13 -15.5t-18.5 -24.5t-17.5 -24.5t-10 -15.5q-2 -2 -8 -10t-12.5 -17.5t-12.5 -18.5t-8 -13q-12 -18 -21.5 -36t-19.5 -36q0 -4 -5 -17.5t-5 -17.5q-4 -4 -15.5 -30.5t-15.5 -30.5q-2 -10 -4 -18.5t-2 -18.5zM100 772q0 8 2 14l4 9 q4 8 9 12q4 8 9 18.5t15 14.5q2 2 13.5 6t17.5 8q6 2 16 2q8 0 14.5 -3t14.5 -5q2 -2 2 -6t2 -6q2 -6 2 -17q0 -20 -9 -34.5t-22 -26.5q-2 -4 -8 -10.5t-8 -10.5q-10 -10 -24 -10q-50 0 -50 45zM371 805v4v4v21v20q2 8 4 13t6 14q2 10 18 10q8 0 19 -8v-15q0 -16 -2 -27.5 t-2 -25.5q0 -10 2 -19.5t12 -15.5q16 4 30.5 14.5t26.5 18.5q6 4 18.5 15.5t27 23.5t26.5 22.5t16 14.5q2 0 9.5 5t11.5 7q18 14 37.5 24.5t44.5 10.5q27 0 46 -13.5t30 -35.5q2 -4 11 -21.5t11 -19.5t2 -4q0 -4 2 -4q8 -12 22.5 -22.5t14.5 -22.5q0 -25 -24 -43q0 -2 -5 -2 q-4 0 -6 2q-4 0 -6 4t-4 6q-16 29 -31.5 61.5t-44.5 55.5q-6 4 -11 6t-13 2q-10 0 -22.5 -6.5t-22.5 -12.5l-152 -118q-4 -2 -6 -5l-8 -4t-15.5 -5t-15.5 -1q-14 0 -29 10q-16 10 -20 27q-2 4 -4 15.5t-2 17.5q-2 0 -2 2z" />
<glyph unicode="&#xf6;" horiz-adv-x="579" d="M39 41q0 31 10 59.5t21 57.5q10 31 27.5 60.5t35.5 53.5q33 53 70 101.5t78 91.5q63 74 131 123l20 12t25 10l8 4q2 2 6 2h61q6 0 12.5 2.5t10.5 2.5h2q29 -18 57.5 -40t38.5 -59q4 -16 4 -29.5v-29.5v-25q-4 -45 -18 -84q-23 -61 -60.5 -111t-86.5 -96q-49 -49 -119 -90 q-35 -23 -76 -43t-82 -34q-4 -2 -18.5 -7.5t-18.5 -5.5q-4 -2 -14 -5t-14 -5q-2 0 -7.5 -1t-7.5 -1h-16h-21q-12 0 -26 10q-20 12 -26.5 32.5t-6.5 43.5zM84 39q0 -20 12.5 -24.5t28.5 -4.5q47 0 90 19.5t84 42.5q6 6 28.5 18t26.5 16q4 2 13.5 8.5t18.5 13.5t18.5 13 t13.5 9q37 29 71.5 62.5t62.5 72.5t44 83t16 93q0 16 -3 35.5t-11 35t-21.5 25.5t-33.5 10q-16 0 -27.5 -5t-26.5 -13l-2 -2q-6 -6 -9 -17.5t-6 -21.5t-8 -18.5t-18 -8.5h-2q-2 2 -4 2q-4 0 -4 2q-10 4 -11 15.5t-1 21.5q0 4 -4 4t-10 -6q-57 -45 -101 -96q-6 -6 -15 -16.5 t-18.5 -20.5t-16.5 -19.5t-7 -11.5q-2 -4 -9 -13t-16.5 -20.5t-16.5 -21.5t-9 -16q-39 -45 -66 -109q-2 -4 -9 -21.5t-7 -21.5q-2 -4 -9.5 -21.5t-11.5 -21.5q-4 -10 -9 -23.5t-5 -27.5zM376 774q1 6 1 12v17v4q0 6 2 6q0 2 2 4q20 45 51 72h14q8 0 17.5 -1t13.5 -5 q16 -12 17 -29q0 -10 -4.5 -19.5t-8.5 -17.5q-10 -29 -20 -48t-43 -19q-12 0 -20.5 1t-16.5 11q-6 6 -5 12z" />
<glyph unicode="&#xf7;" horiz-adv-x="1003" d="M133 430q0 18 8.5 23.5t22.5 5.5h59q92 0 183.5 -2t183.5 -2q80 0 157.5 3t155.5 11h35h33q31 0 30 -29q0 -18 -11 -34.5t-27 -24.5q-4 0 -6.5 -2t-6.5 -2q-16 0 -25.5 12t-19.5 17h-4q-2 0 -2 2q-10 2 -21.5 2h-21.5h-27l-423 -13h-44q-53 0 -107 2t-105 13 q-16 6 -17 18zM440 133v4q0 4 4 17v10q0 4 1 6t1 4q4 8 13 14q4 4 18.5 10.5t20.5 10.5h18q35 0 35 -33q0 -16 -5 -27.5t-11 -25.5q-4 -10 -18.5 -17.5t-29.5 -7.5q-16 0 -29.5 9.5t-17.5 25.5zM662 621v14q0 18 4 38.5t13 38t23.5 29t34.5 11.5q16 0 26.5 -8.5t10.5 -24.5 q-4 -12 -12 -32.5t-19.5 -39t-26 -33t-28.5 -14.5q-25 0 -26 21z" />
<glyph unicode="&#xf8;" horiz-adv-x="856" d="M139 188q0 57 29 111q2 4 9 14.5t14.5 22.5t13.5 22.5t8 14.5q35 49 70.5 92t81.5 84q0 2 8 9t12 11q35 27 71 49.5t74 38.5q2 2 17.5 8.5t21.5 8.5q2 2 10.5 5t12.5 3q2 2 16.5 4t16.5 6h4q18 16 24 38t15 44v4q0 2 2 2q2 2 8 16.5t8 16.5q2 4 9 26.5t12 26.5q0 2 3 8.5 t5 10.5l4 4h4q2 0 4 2q20 8 31 8h8q10 -10 12 -18.5t2 -22.5v-10l-2 -2q-25 -39 -45 -77t-37 -81q0 -4 -2 -8l-6 -10v-13v-2q49 -20 86 -63q6 -6 10 -23q0 -6 3.5 -18t5.5 -16q2 -10 2 -29q0 -29 -6.5 -53.5t-14.5 -46.5q-4 -4 -13 -30t-13 -36q-16 -37 -40 -66.5t-51 -56.5 l-5 -5t-5 -3q-6 -6 -20.5 -17.5t-30.5 -23.5t-29.5 -23.5t-19.5 -17.5q-39 -27 -76 -43q-4 0 -15.5 -4t-24.5 -8t-24.5 -9.5t-13.5 -5.5t-6 -2t-6 -2q-4 -2 -14.5 -7t-12.5 -7q-18 -12 -28 -35q0 -4 -10.5 -20.5t-10.5 -20.5q-2 -2 -2 -4t-2 -2q-6 -8 -11 -14t-5 -17v-18v-4 q-8 -10 -12.5 -17.5t-14.5 -17.5q-10 -6 -18 -6q-4 0 -9 2q-18 6 -28 13t-10 30q0 29 19 50.5t34 43.5q4 8 9 15.5t5 15.5v2q0 2 -2 4q-8 4 -30.5 15.5t-26.5 15.5q-18 10 -31.5 22t-24.5 35v6q-6 27 -6 55zM195 188q0 -10 2 -22t10 -21q12 -14 28.5 -25t38.5 -11 q23 0 39 14q23 16 39.5 37.5t26.5 44.5q2 4 9 17.5t14.5 27.5t14.5 26.5t9 18.5l90 145q2 2 6 15.5t8 19.5q8 18 15.5 36.5t11.5 37.5q2 4 6 16q2 6 2 13v2q-12 0 -20 -7q-23 -10 -30 -28.5t-19 -38.5q0 -2 -2 -4h-23l-2 2q-4 4 -7 14t-7 10q-10 0 -19 -4q-20 -8 -39.5 -18 t-36.5 -27q-12 -14 -25 -27.5t-24 -29.5q-29 -35 -47 -72q-4 -6 -11 -20.5t-15.5 -29.5t-16.5 -29.5t-12 -20.5q-4 -16 -9 -31t-5 -31zM399 125q0 -4 7 -4h8h8h4q2 0 2 1t2 1q8 6 31.5 16.5t27.5 14.5q29 16 60 37.5t55 46.5q53 49 91 110.5t38 138.5q0 25 -6 48v8 q-8 16 -26.5 30.5t-34.5 14.5h-2h-11l-4 -6q-2 -4 -3 -7.5t-5 -7.5t-6 -8l-168 -319q0 -2 -2 -2q-2 -2 -4 -2q-2 -2 -5 -4.5t-5 -4.5t-6.5 -6t-4.5 -6q-4 -2 -4 -6v-8q-2 -4 -5 -9.5t-3 -7.5q-10 -12 -19.5 -26.5t-9.5 -30.5v-2z" />
<glyph unicode="&#xf9;" horiz-adv-x="735" d="M113 -14q0 37 10 77q2 6 5 17.5t7 24t7 22.5t3 12l119 330l78 176q4 4 9 21.5t9 21.5q2 8 8.5 15.5t16.5 7.5q20 0 37 -21q0 -2 2 -4t2 -4v-8q0 -16 -8 -33.5t-15 -34.5l-81 -135l-101 -254q0 -4 -8 -30.5t-12 -39.5q-8 -25 -14.5 -50t-6.5 -50q0 -6 1 -13t7 -11h7 q16 0 35.5 9t35.5 17q55 35 105 84q10 10 32.5 31.5t26.5 28.5q4 6 17.5 20t27.5 30.5t26.5 31t18.5 20.5q2 2 9.5 12t16.5 21.5t17 21.5t12 17q2 2 7.5 9t11.5 15t11 15.5t7 9.5q2 4 8.5 14t8.5 14q0 2 4 11.5t9 20.5t10 22.5t7 17.5q14 29 17 45q10 35 16 63.5t31 57.5 q20 16 37 16q4 0 7 1t7 -1q2 -2 4 -5t4 -5v-10q0 -23 -7 -41.5t-17 -36.5l-180 -571q-2 -2 -4.5 -13.5t-4.5 -15.5t-5 -22.5t-3 -22.5q-2 -10 -11 -28.5t-24 -18.5h-10q-18 0 -22.5 9.5t-4.5 25.5q0 27 9 45q0 4 10 22.5t10 22.5q23 45 35 96t27 98q0 2 5 12.5t5 14.5 q4 14 11 26.5t13 28.5v10q0 4 -2 12.5t-10 8.5t-15 -16.5t-9 -20.5q-4 -4 -8.5 -10t-8.5 -14l-133 -160q-4 -4 -23.5 -22.5t-27.5 -26.5q-37 -39 -74 -68q-31 -23 -65.5 -37t-73.5 -14q-12 0 -29.5 2t-21.5 18v15zM442 1047v6q2 0 4 2l5 4q2 2 8 6t8 6q14 14 25 14 q6 0 10 -2q43 -31 77.5 -67.5t69.5 -73.5q8 -6 20.5 -19.5t14.5 -13.5q4 -4 15.5 -12t15.5 -12q10 -10 22.5 -30.5t12.5 -37.5v-6q0 -8 -13.5 -13t-19.5 -5h-8t-7 2q-2 2 -8 7t-6 7t-2 3t-2 3l-147 143q-4 4 -17.5 15.5t-17.5 15.5q-6 6 -25.5 22.5t-25.5 20.5q-8 6 -9 15z " />
<glyph unicode="&#xfa;" horiz-adv-x="735" d="M113 -16q0 29 10 63q0 6 5 24.5t5 24.5q4 10 11.5 37t9.5 33l114 309l76 168q4 4 9 22.5t9 22.5q4 8 9.5 15.5t15.5 7.5q14 0 27.5 -11.5t13.5 -27.5q0 -12 -6 -28.5t-14 -27.5l-86 -145l-99 -256q-2 -4 -10 -32.5t-12 -41.5q-8 -23 -12.5 -45t-4.5 -47v-16q0 -8 6 -10h7 q18 0 33.5 7t31.5 17q4 0 8 4q45 31 95 74q6 6 18 17.5t24.5 23.5t21.5 22.5t11 14.5q6 4 17.5 16t25 27.5t24.5 30t17 22.5q2 2 10.5 12.5t17.5 22.5t18.5 23.5t13.5 15.5t15 21.5t17 23.5q0 4 3.5 8t3.5 6l41 90q0 2 3 4t3 4q0 4 2 10.5t2 8.5t3 12t6 21.5t5 21.5t2 12 q14 45 45 72q10 10 25 10q14 0 19 -3t5 -15q0 -25 -8 -43q-2 -4 -7 -18.5t-9 -18.5l-178 -561q-2 -4 -4.5 -16.5t-4.5 -18.5q-4 -2 -6 -18.5t-2 -20.5t-3 -11t-3 -11q-4 -10 -12 -21.5t-19 -13.5h-6q-33 0 -33 31q0 35 17.5 64.5t28.5 62.5q2 6 9 27.5t9 27.5q0 4 5 20.5 t10 35t9.5 34.5t6.5 20q0 2 3 10.5t3 12.5q4 12 15 30.5t11 32.5q0 6 -2 14.5t-8 8.5t-16 -10q0 -4 -6 -16.5t-9 -14.5q0 -4 -4 -9t-6 -5l-145 -174q-2 -2 -9.5 -10.5t-9.5 -12.5q-23 -23 -48 -47.5t-55 -44t-62.5 -32.5t-69.5 -13q-18 0 -35.5 4t-17.5 29zM453 815v10 q2 10 12 17q4 4 20.5 10t22.5 10q8 2 24.5 9.5t20.5 7.5l131 41q6 2 18.5 6t27.5 10l27.5 11t18.5 7q16 4 33.5 8.5t34.5 4.5h10q16 -2 24.5 -7.5t8.5 -21.5q0 -27 -27 -33q-10 0 -14 -2l-260 -90q-4 0 -32 -11t-42 -20q-4 0 -15.5 -5t-13.5 -7q-4 -2 -14 -2t-10 8 q-6 14 -6 39z" />
<glyph unicode="&#xfb;" horiz-adv-x="735" d="M113 -16q0 10 2 18q0 6 2 14q0 4 2 21.5t4 21.5q4 10 9 31t7 25l119 336q2 4 10 25.5t13 29.5q4 8 12 26.5t18.5 40t18.5 40t12 26.5q2 6 8 24.5t10 22.5q4 10 10.5 17.5t16.5 7.5q16 0 28.5 -11.5t12.5 -27.5q0 -10 -3 -18.5t-7 -16.5q-4 -6 -9.5 -19.5t-7.5 -15.5 l-77 -131l-101 -252q-2 -4 -8 -25.5t-10 -31.5q-8 -29 -15.5 -57.5t-7.5 -55.5v-16q0 -8 6 -10h7q23 0 46 12t40 24q55 37 102 84l13.5 13.5l19.5 19.5t18 19.5t10 13.5q6 4 16.5 16.5t22 24.5t21.5 24.5t14 16.5q2 4 11.5 15t19.5 24.5t20.5 26t14.5 18.5q2 2 12 17.5 t16 23.5q2 0 4 4t5 6q0 4 3 6t3 4q0 4 6 15.5t12 26t11.5 26.5t7.5 18l2 2q0 2 1 2t1 2q0 6 2 11l4 8q0 2 2 12t5 21.5t5 21.5t2 14q8 20 17.5 38t25.5 34q10 10 31 10h8q14 -2 14 -20q0 -20 -8 -38.5t-16 -37.5l-180 -563q0 -4 -3.5 -17.5t-5.5 -19.5q-2 -4 -5 -19.5 t-3 -19.5q-4 -14 -9 -28.5t-17 -22.5q-6 -4 -19 -4q-23 0 -29 18v17v14q0 14 9 31q10 20 20 39.5t14 42.5l60 186q4 16 13 30.5t9 30.5q0 18 -10 23q-8 0 -12 -10q-2 -2 -8 -14.5t-9 -16.5q-2 -2 -5 -7t-5 -7l-141 -172q-2 -2 -7 -7.5t-9 -7.5q-6 -8 -27 -26.5t-25 -22.5 q-10 -12 -24.5 -23.5t-24.5 -21.5q-31 -23 -67.5 -38t-73.5 -15q-16 0 -34.5 4t-18.5 27v2zM482 826q-1 5 3 10q2 0 9 6q2 2 4 6q4 4 10 6t14 6q2 2 6 5t7 3q4 4 19 15.5t19 15.5q2 2 15.5 13.5t28 23.5t26.5 22.5t16 14.5q2 4 5 6q2 2 4 3t4 3q2 0 5 2t5 2q2 2 14.5 11.5 t14.5 11.5l15 10t19 6q4 -2 9.5 -2t9.5 -2q8 -12 12 -29q6 -29 6 -56.5t9 -55.5q0 -4 3 -10.5t3 -8.5q8 -18 19 -38.5t11 -43.5q0 -4 -1 -8t-5 -6h-8h-8q-2 0 -4 2h-4q-2 0 -2 2l-2 4q-16 23 -26.5 48.5t-14.5 54.5q-2 8 -7.5 33.5t-7.5 33.5l-2 2q-37 -14 -65 -39 q-4 -6 -16.5 -17t-28 -24.5t-28.5 -26t-19 -16.5q-33 -27 -70 -45q-4 -2 -10 -2q-10 0 -12.5 14.5t-2.5 24.5q0 4 -1 9z" />
</font>
</defs>
</svg>
